<svg width="1456" height="1416" viewBox="0 0 1456 1416" fill="none" xmlns="http://www.w3.org/2000/svg">
<path opacity="0.6" d="M5.68766 708.251L1450.22 708.251L1450.22 1.00006L5.68762 616.886L5.68766 708.251Z" fill="#D6DFFF"/>
<g opacity="0.55">
<line y1="-0.5" x2="146.869" y2="-0.5" transform="matrix(-0.775562 0.631271 0.631271 0.775562 1448.05 1)" stroke="#003DC9" stroke-opacity="0.1"/>
<line y1="-0.5" x2="174.45" y2="-0.5" transform="matrix(0.668125 0.744049 0.744049 -0.668125 1334.15 91.0651)" stroke="#10284E" stroke-opacity="0.1"/>
<line y1="-0.5" x2="417.539" y2="-0.5" transform="matrix(-0.996048 -0.0888195 -0.0888195 0.996048 1448.05 220.865)" stroke="#003DC9" stroke-opacity="0.1"/>
<line y1="-0.5" x2="482.992" y2="-0.5" transform="matrix(0.866551 0.499089 0.499089 -0.866551 1032.16 181.13)" stroke="#003DC9" stroke-opacity="0.1"/>
<line y1="-0.5" x2="562.886" y2="-0.5" transform="matrix(-0.861207 0.508254 0.508254 0.861207 1450.7 422.186)" stroke="#003DC9" stroke-opacity="0.1"/>
<line y1="-0.5" x2="528.335" y2="-0.5" transform="matrix(0.120331 -0.992734 -0.992734 -0.120331 968.589 708.275)" stroke="#003DC9" stroke-opacity="0.1"/>
<line y1="-0.5" x2="708.836" y2="-0.5" transform="matrix(-0.672673 0.73994 0.73994 0.672673 1032.16 183.779)" stroke="#10284E" stroke-opacity="0.1"/>
<line y1="-0.5" x2="314.882" y2="-0.5" transform="matrix(-0.681419 -0.731894 -0.731894 0.681419 555.349 708.275)" stroke="#003DC9" stroke-opacity="0.1"/>
<line y1="-0.5" x2="333.497" y2="-0.5" transform="matrix(-0.722814 0.691042 0.691042 0.722814 340.783 477.815)" stroke="#003DC9" stroke-opacity="0.1"/>
<line y1="-0.5" x2="123.852" y2="-0.5" transform="matrix(-0.748588 -0.663035 -0.663035 0.748588 99.7262 708.275)" stroke="#003DC9" stroke-opacity="0.1"/>
<line y1="-0.5" x2="227.811" y2="-0.5" transform="matrix(0 1 1 0 340.783 475.166)" stroke="#003DC9" stroke-opacity="0.1"/>
<line y1="-0.5" x2="476.962" y2="-0.5" transform="matrix(0.65578 -0.754952 -0.754952 -0.65578 337.93 702.801)" stroke="#003DC9" stroke-opacity="0.1"/>
<line y1="-0.5" x2="480.451" y2="-0.5" transform="matrix(0.661622 0.749838 0.749838 -0.661622 650.712 342.717)" stroke="#003DC9" stroke-opacity="0.1"/>
<line y1="-0.5" x2="228.565" y2="-0.5" transform="matrix(-0.996704 -0.0811271 -0.0811271 0.996704 995.078 493.709)" stroke="#10284E" stroke-opacity="0.1"/>
<line y1="-0.5" x2="231.721" y2="-0.5" transform="matrix(-0.182908 0.98313 0.98313 0.182908 767.267 475.166)" stroke="#10284E" stroke-opacity="0.1"/>
<line y1="-0.5" x2="483.515" y2="-0.5" transform="matrix(-0.88205 0.471157 0.471157 0.88205 767.267 475.166)" stroke="#003DC9" stroke-opacity="0.1"/>
<line y1="-0.5" x2="655.41" y2="-0.5" transform="matrix(0.792173 -0.610297 -0.610297 -0.792173 722.234 702.977)" stroke="#10284E" stroke-opacity="0.1"/>
<line y1="-0.5" x2="225.785" y2="-0.5" transform="matrix(-0.92685 0.375433 0.375433 0.92685 1450.7 220.865)" stroke="#10284E" stroke-opacity="0.1"/>
<line y1="-0.5" x2="315.127" y2="-0.5" transform="matrix(-0.958288 0.285805 0.285805 0.958288 1334.15 93.714)" stroke="#10284E" stroke-opacity="0.1"/>
<line y1="-0.5" x2="506.016" y2="-0.5" transform="matrix(-0.905647 -0.424031 -0.424031 0.905647 1453.35 708.275)" stroke="#003DC9" stroke-opacity="0.1"/>
<line y1="-0.5" x2="425.067" y2="-0.5" transform="matrix(-0.355218 -0.934784 -0.934784 0.355218 1183.16 581.125)" stroke="#003DC9" stroke-opacity="0.1"/>
<line y1="-0.5" x2="267.743" y2="-0.5" transform="matrix(-0.890435 -0.455111 -0.455111 0.890435 338.134 702.977)" stroke="#003DC9" stroke-opacity="0.1"/>
<line y1="-0.5" x2="154.733" y2="-0.5" transform="matrix(-0.616308 0.787505 0.787505 0.616308 102.375 581.125)" stroke="#003DC9" stroke-opacity="0.1"/>
<line y1="-0.5" x2="374.443" y2="-0.5" transform="matrix(-0.636699 0.771113 0.771113 0.636699 1448.05 422.186)" stroke="#003DC9" stroke-opacity="0.1"/>
<line y1="-0.5" x2="225.605" y2="-0.5" transform="matrix(0.333697 -0.94268 -0.94268 -0.333697 766.155 473.272)" stroke="#003DC9" stroke-opacity="0.1"/>
</g>
<path opacity="0.6" d="M1450.31 707.815L5.78438 707.814L5.7844 1415.07L1450.31 799.18L1450.31 707.815Z" fill="#D6DFFF"/>
<g opacity="0.55">
<line y1="-0.5" x2="146.869" y2="-0.5" transform="matrix(0.775562 -0.631271 -0.631271 -0.775562 7.94751 1415.07)" stroke="#003DC9" stroke-opacity="0.1"/>
<line y1="-0.5" x2="174.45" y2="-0.5" transform="matrix(-0.668125 -0.744049 -0.744049 0.668125 121.853 1325)" stroke="#10284E" stroke-opacity="0.1"/>
<line y1="-0.5" x2="417.539" y2="-0.5" transform="matrix(0.996048 0.0888195 0.0888195 -0.996048 7.94751 1195.2)" stroke="#003DC9" stroke-opacity="0.1"/>
<line y1="-0.5" x2="482.992" y2="-0.5" transform="matrix(-0.866551 -0.499089 -0.499089 0.866551 423.836 1234.94)" stroke="#003DC9" stroke-opacity="0.1"/>
<line y1="-0.5" x2="562.886" y2="-0.5" transform="matrix(0.861207 -0.508254 -0.508254 -0.861207 5.29871 993.88)" stroke="#003DC9" stroke-opacity="0.1"/>
<line y1="-0.5" x2="528.335" y2="-0.5" transform="matrix(-0.120331 0.992734 0.992734 0.120331 487.411 707.791)" stroke="#003DC9" stroke-opacity="0.1"/>
<line y1="-0.5" x2="708.836" y2="-0.5" transform="matrix(0.672673 -0.73994 -0.73994 -0.672673 423.836 1232.29)" stroke="#10284E" stroke-opacity="0.1"/>
<line y1="-0.5" x2="314.882" y2="-0.5" transform="matrix(0.681419 0.731894 0.731894 -0.681419 900.651 707.791)" stroke="#003DC9" stroke-opacity="0.1"/>
<line y1="-0.5" x2="333.497" y2="-0.5" transform="matrix(0.722814 -0.691042 -0.691042 -0.722814 1115.22 938.251)" stroke="#003DC9" stroke-opacity="0.1"/>
<line y1="-0.5" x2="123.852" y2="-0.5" transform="matrix(0.748588 0.663035 0.663035 -0.748588 1356.27 707.791)" stroke="#003DC9" stroke-opacity="0.1"/>
<line y1="-0.5" x2="227.811" y2="-0.5" transform="matrix(0 -1 -1 0 1115.22 940.9)" stroke="#003DC9" stroke-opacity="0.1"/>
<line y1="-0.5" x2="476.962" y2="-0.5" transform="matrix(-0.65578 0.754952 0.754952 0.65578 1118.07 713.265)" stroke="#003DC9" stroke-opacity="0.1"/>
<line y1="-0.5" x2="480.451" y2="-0.5" transform="matrix(-0.661622 -0.749838 -0.749838 0.661622 805.288 1073.35)" stroke="#003DC9" stroke-opacity="0.1"/>
<line y1="-0.5" x2="228.565" y2="-0.5" transform="matrix(0.996704 0.0811271 0.0811271 -0.996704 460.922 922.357)" stroke="#10284E" stroke-opacity="0.1"/>
<line y1="-0.5" x2="231.721" y2="-0.5" transform="matrix(0.182908 -0.98313 -0.98313 -0.182908 688.733 940.9)" stroke="#10284E" stroke-opacity="0.1"/>
<line y1="-0.5" x2="483.515" y2="-0.5" transform="matrix(0.88205 -0.471157 -0.471157 -0.88205 688.733 940.9)" stroke="#003DC9" stroke-opacity="0.1"/>
<line y1="-0.5" x2="655.41" y2="-0.5" transform="matrix(-0.792173 0.610297 0.610297 0.792173 733.765 713.089)" stroke="#10284E" stroke-opacity="0.1"/>
<line y1="-0.5" x2="225.785" y2="-0.5" transform="matrix(0.92685 -0.375433 -0.375433 -0.92685 5.29871 1195.2)" stroke="#10284E" stroke-opacity="0.1"/>
<line y1="-0.5" x2="315.127" y2="-0.5" transform="matrix(0.958288 -0.285805 -0.285805 -0.958288 121.853 1322.35)" stroke="#10284E" stroke-opacity="0.1"/>
<line y1="-0.5" x2="506.016" y2="-0.5" transform="matrix(0.905647 0.424031 0.424031 -0.905647 2.64966 707.791)" stroke="#003DC9" stroke-opacity="0.1"/>
<line y1="-0.5" x2="425.067" y2="-0.5" transform="matrix(0.355218 0.934784 0.934784 -0.355218 272.844 834.941)" stroke="#003DC9" stroke-opacity="0.1"/>
<line y1="-0.5" x2="267.743" y2="-0.5" transform="matrix(0.890435 0.455111 0.455111 -0.890435 1117.87 713.089)" stroke="#003DC9" stroke-opacity="0.1"/>
<line y1="-0.5" x2="154.733" y2="-0.5" transform="matrix(0.616308 -0.787505 -0.787505 -0.616308 1353.62 834.941)" stroke="#003DC9" stroke-opacity="0.1"/>
<line y1="-0.5" x2="374.443" y2="-0.5" transform="matrix(0.636699 -0.771113 -0.771113 -0.636699 7.94751 993.88)" stroke="#003DC9" stroke-opacity="0.1"/>
<line y1="-0.5" x2="225.605" y2="-0.5" transform="matrix(-0.333697 0.94268 0.94268 0.333697 689.845 942.794)" stroke="#003DC9" stroke-opacity="0.1"/>
</g>
</svg>
