<svg width="598" height="585" viewBox="0 0 598 585" fill="none" xmlns="http://www.w3.org/2000/svg">
<g opacity="0.6">
<path opacity="0.6" d="M0.352803 292.564H597.901V6.10352e-05L0.352783 72L0.352803 292.564Z" fill="#D6DFFF"/>
<g opacity="0.55">
<path opacity="0.55" d="M577.823 4.6156L532.524 40.7019" stroke="#003DC9" stroke-opacity="0.1"/>
<path opacity="0.55" d="M532.471 40.3547L578.823 90.8754" stroke="#10284E" stroke-opacity="0.1"/>
<path opacity="0.55" d="M578.173 90.0829L412.779 75.6484" stroke="#003DC9" stroke-opacity="0.1"/>
<path opacity="0.55" d="M412.493 75.5063L578.94 169.33" stroke="#003DC9" stroke-opacity="0.1"/>
<path opacity="0.55" d="M578.936 168.508L386.152 279.86" stroke="#003DC9" stroke-opacity="0.1"/>
<path opacity="0.55" d="M387.928 280.326L413.211 76.1812" stroke="#003DC9" stroke-opacity="0.1"/>
<path opacity="0.55" d="M412.378 75.807L222.754 279.952" stroke="#10284E" stroke-opacity="0.1"/>
<path opacity="0.55" d="M223.466 279.947L138.135 190.247" stroke="#003DC9" stroke-opacity="0.1"/>
<path opacity="0.55" d="M137.447 190.227L41.5818 279.927" stroke="#003DC9" stroke-opacity="0.1"/>
<path opacity="0.55" d="M42.2372 279.915L5.36589 247.953" stroke="#003DC9" stroke-opacity="0.1"/>
<path opacity="0.55" d="M137.303 189.539V278.208" stroke="#003DC9" stroke-opacity="0.1"/>
<path opacity="0.55" d="M137.011 278.449L261.401 138.297" stroke="#003DC9" stroke-opacity="0.1"/>
<path opacity="0.55" d="M260.675 138.3L387.09 278.52" stroke="#003DC9" stroke-opacity="0.1"/>
<path opacity="0.55" d="M398.026 196.279L307.428 189.062" stroke="#10284E" stroke-opacity="0.1"/>
<path opacity="0.55" d="M306.918 189.453L290.063 278.122" stroke="#10284E" stroke-opacity="0.1"/>
<path opacity="0.55" d="M307.159 189.118L137.552 277.787" stroke="#003DC9" stroke-opacity="0.1"/>
<path opacity="0.55" d="M289.776 278.584L496.256 122.897" stroke="#10284E" stroke-opacity="0.1"/>
<path opacity="0.55" d="M579 90.1173L495.776 123.11" stroke="#10284E" stroke-opacity="0.1"/>
<path opacity="0.55" d="M532.691 40.612L412.596 75.6672" stroke="#10284E" stroke-opacity="0.1"/>
<path opacity="0.55" d="M578.893 279.181L397.79 197.192" stroke="#003DC9" stroke-opacity="0.1"/>
<path opacity="0.55" d="M473.232 230.613L413.184 75.9578" stroke="#003DC9" stroke-opacity="0.1"/>
<path opacity="0.55" d="M136.949 277.784L42.1372 230.356" stroke="#003DC9" stroke-opacity="0.1"/>
<path opacity="0.55" d="M42.5895 230.489L4.66475 277.916" stroke="#003DC9" stroke-opacity="0.1"/>
<path opacity="0.55" d="M577.757 168.617L482.946 281" stroke="#003DC9" stroke-opacity="0.1"/>
</g>
<path opacity="0.6" d="M597.941 291.887H0.39272L0.3927 584.451L597.941 512.451V291.887Z" fill="#D6DFFF"/>
<g opacity="0.55">
<path opacity="0.55" d="M14.615 562.908L59.8358 526.884" stroke="#003DC9" stroke-opacity="0.1"/>
<path opacity="0.55" d="M59.8893 527.23L13.6168 476.797" stroke="#10284E" stroke-opacity="0.1"/>
<path opacity="0.55" d="M14.2661 477.588L179.374 491.998" stroke="#003DC9" stroke-opacity="0.1"/>
<path opacity="0.55" d="M179.661 492.14L13.5008 398.477" stroke="#003DC9" stroke-opacity="0.1"/>
<path opacity="0.55" d="M13.5046 399.297L205.956 288.138" stroke="#003DC9" stroke-opacity="0.1"/>
<path opacity="0.55" d="M204.183 287.673L178.944 491.466" stroke="#003DC9" stroke-opacity="0.1"/>
<path opacity="0.55" d="M179.775 491.839L369.072 288.046" stroke="#10284E" stroke-opacity="0.1"/>
<path opacity="0.55" d="M368.362 288.051L453.545 377.596" stroke="#003DC9" stroke-opacity="0.1"/>
<path opacity="0.55" d="M454.232 377.616L549.932 288.071" stroke="#003DC9" stroke-opacity="0.1"/>
<path opacity="0.55" d="M549.277 288.083L584.016 317.486" stroke="#003DC9" stroke-opacity="0.1"/>
<path opacity="0.55" d="M454.376 378.304V289.788" stroke="#003DC9" stroke-opacity="0.1"/>
<path opacity="0.55" d="M454.666 289.547L330.491 429.457" stroke="#003DC9" stroke-opacity="0.1"/>
<path opacity="0.55" d="M331.217 429.454L205.019 289.476" stroke="#003DC9" stroke-opacity="0.1"/>
<path opacity="0.55" d="M194.101 371.575L284.543 378.78" stroke="#10284E" stroke-opacity="0.1"/>
<path opacity="0.55" d="M285.052 378.389L301.879 289.873" stroke="#10284E" stroke-opacity="0.1"/>
<path opacity="0.55" d="M284.812 378.723L454.126 290.207" stroke="#003DC9" stroke-opacity="0.1"/>
<path opacity="0.55" d="M302.166 289.412L96.0426 444.83" stroke="#10284E" stroke-opacity="0.1"/>
<path opacity="0.55" d="M13.4406 477.554L96.5207 444.618" stroke="#10284E" stroke-opacity="0.1"/>
<path opacity="0.55" d="M59.6696 526.974L179.557 491.979" stroke="#10284E" stroke-opacity="0.1"/>
<path opacity="0.55" d="M12 288.16L193.934 371.53" stroke="#003DC9" stroke-opacity="0.1"/>
<path opacity="0.55" d="M119.026 337.3L178.97 491.689" stroke="#003DC9" stroke-opacity="0.1"/>
<path opacity="0.55" d="M454.728 290.211L549.377 337.557" stroke="#003DC9" stroke-opacity="0.1"/>
<path opacity="0.55" d="M548.171 336.837L584.12 291.39" stroke="#003DC9" stroke-opacity="0.1"/>
<path opacity="0.55" d="M14.6812 399.189L109.329 287" stroke="#003DC9" stroke-opacity="0.1"/>
</g>
</g>
</svg>
