<svg width="374" height="817" viewBox="0 0 374 817" fill="none" xmlns="http://www.w3.org/2000/svg">
<g opacity="0.6">
<path opacity="0.6" d="M1.25496e-05 409.028H375V0L0 100.662L1.25496e-05 409.028Z" fill="#D6DFFF"/>
<g opacity="0.55">
<path opacity="0.55" d="M361.409 5.1709L333.059 45.6014" stroke="#003DC9" stroke-opacity="0.1"/>
<path opacity="0.55" d="M333.026 45.2104L362.036 101.813" stroke="#10284E" stroke-opacity="0.1"/>
<path opacity="0.55" d="M361.628 100.928L258.116 84.7554" stroke="#003DC9" stroke-opacity="0.1"/>
<path opacity="0.55" d="M257.938 84.5942L362.108 189.713" stroke="#003DC9" stroke-opacity="0.1"/>
<path opacity="0.55" d="M362.106 188.792L241.452 313.55" stroke="#003DC9" stroke-opacity="0.1"/>
<path opacity="0.55" d="M242.563 314.073L258.387 85.3521" stroke="#003DC9" stroke-opacity="0.1"/>
<path opacity="0.55" d="M257.865 84.9316L139.189 313.652" stroke="#10284E" stroke-opacity="0.1"/>
<path opacity="0.55" d="M139.635 313.647L86.2305 213.148" stroke="#003DC9" stroke-opacity="0.1"/>
<path opacity="0.55" d="M85.7999 213.126L25.8027 313.624" stroke="#003DC9" stroke-opacity="0.1"/>
<path opacity="0.55" d="M26.2126 313.612L3.13672 277.802" stroke="#003DC9" stroke-opacity="0.1"/>
<path opacity="0.55" d="M85.71 212.356V311.699" stroke="#003DC9" stroke-opacity="0.1"/>
<path opacity="0.55" d="M85.5273 311.969L163.377 154.945" stroke="#003DC9" stroke-opacity="0.1"/>
<path opacity="0.55" d="M162.923 154.947L242.04 312.048" stroke="#003DC9" stroke-opacity="0.1"/>
<path opacity="0.55" d="M248.883 219.908L192.183 211.822" stroke="#10284E" stroke-opacity="0.1"/>
<path opacity="0.55" d="M191.863 212.26L181.314 311.604" stroke="#10284E" stroke-opacity="0.1"/>
<path opacity="0.55" d="M192.015 211.882L85.8662 311.226" stroke="#003DC9" stroke-opacity="0.1"/>
<path opacity="0.55" d="M181.136 312.12L310.361 137.691" stroke="#10284E" stroke-opacity="0.1"/>
<path opacity="0.55" d="M362.145 100.965L310.06 137.93" stroke="#10284E" stroke-opacity="0.1"/>
<path opacity="0.55" d="M333.163 45.4985L258.002 84.7737" stroke="#10284E" stroke-opacity="0.1"/>
<path opacity="0.55" d="M362.078 312.788L248.735 220.929" stroke="#003DC9" stroke-opacity="0.1"/>
<path opacity="0.55" d="M295.951 258.374L258.37 85.1006" stroke="#003DC9" stroke-opacity="0.1"/>
<path opacity="0.55" d="M85.4883 311.223L26.1504 258.086" stroke="#003DC9" stroke-opacity="0.1"/>
<path opacity="0.55" d="M26.4334 258.234L2.69824 311.371" stroke="#003DC9" stroke-opacity="0.1"/>
<path opacity="0.55" d="M361.368 188.915L302.03 314.827" stroke="#003DC9" stroke-opacity="0.1"/>
</g>
<path opacity="0.6" d="M374 407.811H1.25348e-05L0 817L374 716.298V407.811Z" fill="#D6DFFF"/>
<g opacity="0.55">
<path opacity="0.55" d="M8.92578 630.672L37.2272 590.312" stroke="#003DC9" stroke-opacity="0.1"/>
<path opacity="0.55" d="M37.2604 590.699L8.30078 534.194" stroke="#10284E" stroke-opacity="0.1"/>
<path opacity="0.55" d="M8.70703 535.08L112.04 551.224" stroke="#003DC9" stroke-opacity="0.1"/>
<path opacity="0.55" d="M112.22 551.384L8.22852 446.445" stroke="#003DC9" stroke-opacity="0.1"/>
<path opacity="0.55" d="M8.23145 447.366L128.677 322.825" stroke="#003DC9" stroke-opacity="0.1"/>
<path opacity="0.55" d="M127.567 322.306L111.771 550.632" stroke="#003DC9" stroke-opacity="0.1"/>
<path opacity="0.55" d="M112.291 551.048L230.762 322.722" stroke="#10284E" stroke-opacity="0.1"/>
<path opacity="0.55" d="M230.318 322.726L283.63 423.051" stroke="#003DC9" stroke-opacity="0.1"/>
<path opacity="0.55" d="M284.06 423.072L343.953 322.747" stroke="#003DC9" stroke-opacity="0.1"/>
<path opacity="0.55" d="M343.544 322.761L365.285 355.704" stroke="#003DC9" stroke-opacity="0.1"/>
<path opacity="0.55" d="M284.149 423.844V324.672" stroke="#003DC9" stroke-opacity="0.1"/>
<path opacity="0.55" d="M284.331 324.403L206.616 481.156" stroke="#003DC9" stroke-opacity="0.1"/>
<path opacity="0.55" d="M207.071 481.152L128.09 324.323" stroke="#003DC9" stroke-opacity="0.1"/>
<path opacity="0.55" d="M121.257 416.304L177.86 424.376" stroke="#10284E" stroke-opacity="0.1"/>
<path opacity="0.55" d="M178.179 423.939L188.71 324.768" stroke="#10284E" stroke-opacity="0.1"/>
<path opacity="0.55" d="M178.028 424.313L283.993 325.141" stroke="#003DC9" stroke-opacity="0.1"/>
<path opacity="0.55" d="M188.89 324.251L59.8877 498.379" stroke="#10284E" stroke-opacity="0.1"/>
<path opacity="0.55" d="M8.19043 535.042L60.186 498.141" stroke="#10284E" stroke-opacity="0.1"/>
<path opacity="0.55" d="M37.123 590.41L112.154 551.202" stroke="#10284E" stroke-opacity="0.1"/>
<path opacity="0.55" d="M7.28906 322.849L121.152 416.255" stroke="#003DC9" stroke-opacity="0.1"/>
<path opacity="0.55" d="M74.2715 377.905L111.787 550.88" stroke="#003DC9" stroke-opacity="0.1"/>
<path opacity="0.55" d="M284.37 325.146L343.606 378.192" stroke="#003DC9" stroke-opacity="0.1"/>
<path opacity="0.55" d="M342.852 377.386L365.35 326.468" stroke="#003DC9" stroke-opacity="0.1"/>
<path opacity="0.55" d="M8.96777 447.245L68.203 321.55" stroke="#003DC9" stroke-opacity="0.1"/>
</g>
</g>
</svg>
