<svg width="30" height="30" viewBox="0 0 30 30" fill="none" xmlns="http://www.w3.org/2000/svg">
<circle cx="15" cy="15" r="15" fill="#10284E"/>
<path d="M20.6875 6C18.9355 6 16.9793 7.20941 16.0362 8.87574C15.7991 9.29453 15.3534 9.55469 14.8729 9.55469H14.8281C14.5045 9.55469 14.2422 9.81703 14.2422 10.1406V10.7266H11.8984V9.55469C11.8984 8.26234 10.847 7.21094 9.55469 7.21094C8.26234 7.21094 7.21094 8.26234 7.21094 9.55469C7.21094 10.847 8.26234 11.8984 9.55469 11.8984H10.7266V14.2812H10.1406C9.81703 14.2812 9.55469 14.5436 9.55469 14.8672V14.912C9.55469 15.3924 9.29453 15.8382 8.87574 16.0752C7.20941 17.0184 6 18.9745 6 20.7266C6 23.6343 8.38316 26 11.3125 26C14.2203 26 16.5859 23.6343 16.5859 20.7266C16.5859 18.7695 15.5112 16.9835 13.7811 16.0655C13.3427 15.8329 13.0703 15.3805 13.0703 14.8848V14.8672C13.0703 14.5436 12.808 14.2812 12.4844 14.2812H11.8984V11.8984H14.2422V12.4844C14.2422 12.808 14.5045 13.0703 14.8281 13.0703H14.8458C15.3414 13.0703 15.7939 13.3427 16.0265 13.7811C16.9445 15.5112 18.7304 16.5859 20.6875 16.5859C23.6168 16.5859 26 14.2203 26 11.3125C26 8.39691 23.6024 6 20.6875 6ZM13.2318 17.1007C14.5779 17.8149 15.4141 19.2043 15.4141 20.7266C15.4141 22.3638 14.4497 23.7798 13.0593 24.437C13.0664 24.373 13.0703 24.308 13.0703 24.2422C13.0703 23.8807 12.9605 23.5445 12.7727 23.2648C13.65 22.758 14.2422 21.8105 14.2422 20.7266C14.2422 19.1111 12.9279 17.7969 11.3125 17.7969C9.69301 17.7969 8.34375 19.1068 8.34375 20.7266C8.34375 22.346 9.69277 23.6562 11.3125 23.6562C11.6356 23.6562 11.8984 23.9191 11.8984 24.2422C11.8984 24.5653 11.6356 24.8281 11.3125 24.8281C9.02934 24.8281 7.17188 22.9882 7.17188 20.7266C7.17188 19.3923 8.15254 17.8311 9.45297 17.0951C10.0782 16.7411 10.515 16.1389 10.6672 15.4531H11.9632C12.125 16.1513 12.5808 16.7553 13.2318 17.1007V17.1007ZM9.51562 20.7266C9.51562 19.7737 10.3385 18.9688 11.3125 18.9688C12.2818 18.9688 13.0703 19.7573 13.0703 20.7266C13.0703 21.6958 12.2818 22.4844 11.3125 22.4844C10.3385 22.4844 9.51562 21.6794 9.51562 20.7266V20.7266ZM9.55469 10.7266C8.90852 10.7266 8.38281 10.2009 8.38281 9.55469C8.38281 8.90852 8.90852 8.38281 9.55469 8.38281C10.2009 8.38281 10.7266 8.90852 10.7266 9.55469V10.7266H9.55469ZM24.2422 11.8984C23.9191 11.8984 23.6562 11.6356 23.6562 11.3125C23.6562 9.69937 22.3134 8.34375 20.6875 8.34375C19.068 8.34375 17.7578 9.69277 17.7578 11.3125C17.7578 12.9279 19.0721 14.2422 20.6875 14.2422C21.79 14.2422 22.7463 13.6412 23.2593 12.7692C23.54 12.9592 23.8784 13.0703 24.2422 13.0703C24.3067 13.0703 24.3703 13.0666 24.433 13.0598C23.7695 14.4499 22.3401 15.4141 20.6875 15.4141C19.1652 15.4141 17.7759 14.5779 17.0616 13.2318C16.7163 12.5808 16.1122 12.125 15.4141 11.9632V10.6672C16.0999 10.515 16.7021 10.0783 17.056 9.45301C17.7921 8.15254 19.3533 7.17188 20.6875 7.17188C22.9707 7.17188 24.8281 9.02934 24.8281 11.3125C24.8281 11.6356 24.5653 11.8984 24.2422 11.8984V11.8984ZM22.4844 11.3125C22.4844 12.2654 21.6615 13.0703 20.6875 13.0703C19.7182 13.0703 18.9297 12.2818 18.9297 11.3125C18.9297 10.3385 19.7346 9.51562 20.6875 9.51562C21.6615 9.51562 22.4844 10.3385 22.4844 11.3125Z" fill="white"/>
</svg>
