<svg width="26" height="26" viewBox="0 0 26 26" fill="none" xmlns="http://www.w3.org/2000/svg">
<g clip-path="url(#clip0)" filter="url(#filter0_d)">
<path d="M19.3626 2.6347C15.8474 -0.879477 10.1489 -0.878633 6.63471 2.63664C3.12053 6.15191 3.12137 11.8504 6.63665 15.3646C10.1519 18.8787 15.8504 18.8779 19.3646 15.3626C21.0523 13.6744 22.0002 11.3848 21.9996 8.9977C21.9992 6.61094 21.0506 4.32213 19.3626 2.6347ZM17.6298 12.5365C17.6294 12.5369 17.6291 12.5373 17.6286 12.5377V12.5347L17.1726 12.9877C16.5829 13.5849 15.724 13.8306 14.9076 13.6357C14.0851 13.4156 13.3033 13.0651 12.5916 12.5977C11.9305 12.1752 11.3178 11.6812 10.7646 11.1247C10.2557 10.6195 9.79842 10.0647 9.39961 9.46872C8.96339 8.8274 8.61812 8.12878 8.37361 7.39271C8.09331 6.52801 8.32559 5.57918 8.97362 4.94173L9.50761 4.40774C9.65608 4.25861 9.89732 4.25808 10.0464 4.40654C10.0468 4.40693 10.0472 4.40732 10.0476 4.40774L11.7336 6.09373C11.8827 6.24219 11.8833 6.48343 11.7348 6.63253C11.7344 6.63292 11.734 6.6333 11.7336 6.63373L10.7436 7.62372C10.4595 7.90469 10.4238 8.35118 10.6596 8.67374C11.0177 9.16515 11.4139 9.62756 11.8446 10.0567C12.3248 10.539 12.8469 10.9777 13.4046 11.3678C13.7269 11.5925 14.1638 11.5546 14.4426 11.2778L15.3996 10.3058C15.5481 10.1566 15.7893 10.1561 15.9384 10.3046C15.9388 10.3049 15.9392 10.3053 15.9396 10.3058L17.6286 11.9978C17.7778 12.1462 17.7783 12.3874 17.6298 12.5365Z" fill="#316FFF"/>
</g>
<defs>
<filter id="filter0_d" x="0" y="0" width="26" height="26" filterUnits="userSpaceOnUse" color-interpolation-filters="sRGB">
<feFlood flood-opacity="0" result="BackgroundImageFix"/>
<feColorMatrix in="SourceAlpha" type="matrix" values="0 0 0 0 0 0 0 0 0 0 0 0 0 0 0 0 0 0 127 0" result="hardAlpha"/>
<feOffset dy="4"/>
<feGaussianBlur stdDeviation="2"/>
<feComposite in2="hardAlpha" operator="out"/>
<feColorMatrix type="matrix" values="0 0 0 0 0 0 0 0 0 0 0 0 0 0 0 0 0 0 0.02 0"/>
<feBlend mode="normal" in2="BackgroundImageFix" result="effect1_dropShadow"/>
<feBlend mode="normal" in="SourceGraphic" in2="effect1_dropShadow" result="shape"/>
</filter>
<clipPath id="clip0">
<rect width="18" height="18" fill="white" transform="translate(4)"/>
</clipPath>
</defs>
</svg>
