<svg width="22" height="22" viewBox="0 0 22 22" fill="none" xmlns="http://www.w3.org/2000/svg">
<path d="M18.7767 3.22027C14.4802 -1.07484 7.5154 -1.07381 3.22029 3.22263C-1.07483 7.51907 -1.0738 14.4839 3.22265 18.779C7.5191 23.0741 14.4839 23.0731 18.779 18.7766C20.8418 16.7132 22.0003 13.9149 21.9997 10.9973C21.999 8.08012 20.8397 5.28268 18.7767 3.22027ZM16.6588 15.3225C16.6583 15.323 16.6578 15.3235 16.6573 15.324V15.3203L16.1 15.874C15.3792 16.6039 14.3294 16.9042 13.3316 16.666C12.3264 16.3969 11.3707 15.9686 10.501 15.3973C9.69289 14.8809 8.94403 14.2772 8.26796 13.597C7.6459 12.9795 7.08705 12.3014 6.59961 11.573C6.06645 10.7891 5.64446 9.93525 5.34561 9.03561C5.00302 7.97875 5.28691 6.81907 6.07896 6.03996L6.73161 5.38731C6.91307 5.20504 7.20792 5.20439 7.39015 5.38585C7.39062 5.38632 7.39114 5.38679 7.39161 5.38731L9.45226 7.44796C9.63453 7.62942 9.63518 7.92427 9.45372 8.1065C9.45325 8.10697 9.45278 8.10745 9.45226 8.10796L8.24226 9.31796C7.89507 9.66137 7.85142 10.2071 8.13961 10.6013C8.57724 11.2019 9.06155 11.7671 9.58796 12.2917C10.1749 12.8811 10.8129 13.4173 11.4946 13.894C11.8885 14.1687 12.4225 14.1224 12.7633 13.784L13.9329 12.596C14.1144 12.4137 14.4092 12.4131 14.5915 12.5945C14.5919 12.595 14.5924 12.5955 14.5929 12.596L16.6573 14.664C16.8396 14.8454 16.8402 15.1402 16.6588 15.3225Z" fill="white"/>
</svg>
