<svg width="22" height="22" viewBox="0 0 22 22" fill="none" xmlns="http://www.w3.org/2000/svg">
<path d="M18.7766 3.22065C14.4801 -1.07446 7.51528 -1.07343 3.22017 3.22301C-1.07495 7.51945 -1.07392 14.4843 3.22253 18.7794C7.51898 23.0745 14.4838 23.0735 18.7789 18.777C20.8417 16.7136 22.0002 13.9153 21.9996 10.9977C21.9989 8.0805 20.8396 5.28306 18.7766 3.22065ZM16.6587 15.3229L16.6572 15.3244V15.3207L16.0999 15.8744C15.3791 16.6043 14.3293 16.9046 13.3315 16.6664C12.3263 16.3973 11.3706 15.969 10.5009 15.3977C9.69277 14.8813 8.94391 14.2776 8.26784 13.5974C7.64578 12.9799 7.08693 12.3018 6.59949 11.5734C6.06633 10.7895 5.64434 9.93563 5.34549 9.03599C5.0029 7.97913 5.28679 6.81945 6.07884 6.04034L6.73149 5.38769C6.91295 5.20542 7.2078 5.20477 7.39003 5.38623L7.39149 5.38769L9.45214 7.44834C9.63441 7.6298 9.63506 7.92465 9.4536 8.10688L9.45214 8.10834L8.24214 9.31834C7.89495 9.66175 7.8513 10.2075 8.13949 10.6017C8.57712 11.2023 9.06143 11.7675 9.58784 12.2921C10.1748 12.8815 10.8128 13.4177 11.4945 13.8944C11.8884 14.1691 12.4224 14.1228 12.7632 13.7844L13.9328 12.5964C14.1143 12.4141 14.4091 12.4135 14.5914 12.5949L14.5928 12.5964L16.6572 14.6644C16.8395 14.8458 16.8401 15.1406 16.6587 15.3229Z" fill="#10284E"/>
</svg>
