<svg width="30" height="30" viewBox="0 0 30 30" fill="none" xmlns="http://www.w3.org/2000/svg">
<circle cx="15" cy="15" r="15" fill="#D6DFFF" fill-opacity="0.4"/>
<g clip-path="url(#clip0)">
<path d="M23.9352 20.1273L22.8898 17.0848C23.3937 16.0546 23.66 14.909 23.6618 13.7562C23.6649 11.7518 22.8894 9.85668 21.4782 8.41984C20.0666 6.98272 18.1857 6.17374 16.1818 6.14199C14.1039 6.10915 12.1507 6.89954 10.6824 8.36788C9.26648 9.78373 8.48116 11.6503 8.45631 13.6449C7.06081 14.6956 6.23713 16.3337 6.23984 18.0834C6.24114 18.9022 6.42543 19.7161 6.77464 20.4521L6.05453 22.5477C5.93075 22.9079 6.02117 23.2991 6.29054 23.5684C6.4801 23.758 6.73003 23.859 6.98705 23.859C7.09519 23.859 7.2046 23.8411 7.3113 23.8045L9.40693 23.0843C10.1429 23.4336 10.9568 23.6178 11.7756 23.6191C11.7786 23.6191 11.7814 23.6191 11.7843 23.6191C13.5601 23.6191 15.2107 22.7742 16.2575 21.3445C17.3469 21.3158 18.4248 21.0521 19.3992 20.5754L22.4418 21.6209C22.5685 21.6644 22.6986 21.6857 22.8271 21.6857C23.1325 21.6857 23.4295 21.5657 23.6548 21.3403C23.9749 21.0202 24.0823 20.5554 23.9352 20.1273ZM11.7843 22.5477C11.782 22.5477 11.7796 22.5477 11.7773 22.5477C11.0526 22.5466 10.3329 22.368 9.69616 22.0311C9.56524 21.9619 9.41154 21.9499 9.27155 21.998L7.12269 22.7364L7.86107 20.5875C7.90917 20.4475 7.89722 20.2938 7.82796 20.1629C7.49109 19.5262 7.31243 18.8065 7.3113 18.0818C7.30951 16.916 7.76299 15.8111 8.55601 14.9837C8.81504 16.5628 9.56763 18.0179 10.7342 19.1637C11.8921 20.3011 13.3477 21.0252 14.9182 21.262C14.0889 22.0793 12.9711 22.5477 11.7843 22.5477ZM22.8971 20.5827C22.8666 20.6132 22.8305 20.6215 22.7899 20.6075L19.5327 19.4883C19.4761 19.4688 19.4173 19.4592 19.3586 19.4592C19.2722 19.4592 19.1861 19.4801 19.1081 19.5214C18.1781 20.0134 17.1272 20.2743 16.069 20.2759C16.0655 20.2759 16.0623 20.2759 16.0588 20.2759C12.5129 20.2759 9.58388 17.3954 9.5277 13.8503C9.49939 12.0649 10.1785 10.3869 11.44 9.12546C12.7014 7.86402 14.3797 7.18511 16.1649 7.21324C19.7134 7.26952 22.5959 10.2039 22.5904 13.7545C22.5887 14.8128 22.3278 15.8637 21.8359 16.7937C21.7666 16.9245 21.7547 17.0782 21.8028 17.2183L22.922 20.4754C22.9359 20.5162 22.9276 20.5523 22.8971 20.5827Z" fill="#10284E"/>
<path d="M19.2501 10.9047H12.8671C12.5713 10.9047 12.3314 11.1446 12.3314 11.4404C12.3314 11.7363 12.5713 11.9761 12.8671 11.9761H19.2501C19.546 11.9761 19.7858 11.7363 19.7858 11.4404C19.7858 11.1446 19.546 10.9047 19.2501 10.9047Z" fill="#10284E"/>
<path d="M19.2501 13.108H12.8671C12.5713 13.108 12.3314 13.3479 12.3314 13.6437C12.3314 13.9396 12.5713 14.1794 12.8671 14.1794H19.2501C19.546 14.1794 19.7858 13.9396 19.7858 13.6437C19.7858 13.3479 19.546 13.108 19.2501 13.108Z" fill="#10284E"/>
<path d="M16.7932 15.3112H12.8671C12.5713 15.3112 12.3314 15.5511 12.3314 15.8469C12.3314 16.1428 12.5713 16.3826 12.8671 16.3826H16.7931C17.089 16.3826 17.3288 16.1428 17.3288 15.8469C17.3288 15.5511 17.089 15.3112 16.7932 15.3112Z" fill="#10284E"/>
</g>
<defs>
<clipPath id="clip0">
<rect width="18" height="18" fill="white" transform="translate(6 6)"/>
</clipPath>
</defs>
</svg>
