<svg width="28" height="28" viewBox="0 0 28 28" fill="none" xmlns="http://www.w3.org/2000/svg">
<path d="M11.7597 12.6707C11.818 12.2857 11.9463 11.9473 12.1097 11.6557C12.273 11.364 12.5063 11.119 12.798 10.9323C13.078 10.7573 13.428 10.6757 13.8597 10.664C14.128 10.6757 14.373 10.7223 14.5947 10.8157C14.828 10.9207 15.038 11.0607 15.2013 11.2357C15.3647 11.4107 15.493 11.6207 15.598 11.854C15.703 12.0873 15.7497 12.344 15.7613 12.6007H17.8497C17.8263 12.0523 17.7213 11.5507 17.523 11.0957C17.3247 10.6407 17.0563 10.244 16.7063 9.91732C16.3563 9.59065 15.9363 9.33398 15.4463 9.14732C14.9563 8.96065 14.4197 8.87898 13.8247 8.87898C13.0663 8.87898 12.4013 9.00732 11.8413 9.27565C11.2813 9.54398 10.8147 9.89398 10.4413 10.349C10.068 10.804 9.78801 11.329 9.61301 11.9357C9.43801 12.5423 9.33301 13.1723 9.33301 13.849V14.164C9.33301 14.8407 9.42634 15.4707 9.60134 16.0773C9.77634 16.684 10.0563 17.209 10.4297 17.6523C10.803 18.0957 11.2697 18.4573 11.8297 18.714C12.3897 18.9707 13.0547 19.1107 13.813 19.1107C14.3613 19.1107 14.8747 19.0173 15.353 18.8423C15.8313 18.6673 16.2513 18.4223 16.613 18.1073C16.9747 17.7923 17.2663 17.4307 17.4763 17.0107C17.6863 16.5907 17.8147 16.1473 17.8263 15.669H15.738C15.7263 15.914 15.668 16.1357 15.563 16.3457C15.458 16.5557 15.318 16.7307 15.143 16.8823C14.968 17.034 14.7697 17.1507 14.5363 17.2323C14.3147 17.314 14.0813 17.3373 13.8363 17.349C13.4163 17.3373 13.0663 17.2557 12.798 17.0807C12.5063 16.894 12.273 16.649 12.1097 16.3573C11.9463 16.0657 11.818 15.7157 11.7597 15.3307C11.7013 14.9457 11.6663 14.549 11.6663 14.164V13.849C11.6663 13.4407 11.7013 13.0557 11.7597 12.6707ZM13.9997 2.33398C7.55967 2.33398 2.33301 7.56065 2.33301 14.0007C2.33301 20.4407 7.55967 25.6673 13.9997 25.6673C20.4397 25.6673 25.6663 20.4407 25.6663 14.0007C25.6663 7.56065 20.4397 2.33398 13.9997 2.33398ZM13.9997 23.334C8.85468 23.334 4.66634 19.1457 4.66634 14.0007C4.66634 8.85565 8.85468 4.66732 13.9997 4.66732C19.1447 4.66732 23.333 8.85565 23.333 14.0007C23.333 19.1457 19.1447 23.334 13.9997 23.334Z" fill="white"/>
</svg>
