<svg width="20" height="20" viewBox="0 0 20 20" fill="none" xmlns="http://www.w3.org/2000/svg">
<g clip-path="url(#clip0)">
<path d="M9.50891 5.16416V11.2754H13.404V10.2009H10.5834V5.16416H9.50891Z" fill="#10284E"/>
<path d="M20.0001 10.0645C20.0001 4.94369 15.8282 0.778683 10.7074 0.778683C6.1143 0.778683 2.29139 4.15681 1.55186 8.52201H0.0603027L2.63255 12.9544L5.28014 8.52201H3.73829C4.44384 5.29848 7.30405 2.9277 10.7124 2.9277C14.6481 2.9277 17.851 6.12928 17.851 10.065C17.851 13.466 15.4188 16.3181 12.2624 17.0306V19.2213C16.6276 18.4817 20.0001 14.6575 20.0001 10.0645Z" fill="#10284E"/>
<path d="M1.63783 18.2498L2.32116 17.5234C2.76513 17.0402 3.06975 16.6786 3.23509 16.4335C3.40043 16.1884 3.48311 15.9077 3.48311 15.5885C3.48311 15.1145 3.32757 14.7418 3.01657 14.4688C2.70556 14.1961 2.2726 14.0598 1.71762 14.0598C1.19493 14.0598 0.775271 14.2226 0.458492 14.5473C0.141646 14.8722 -0.0110018 15.2776 0.000616297 15.7447L0.00760062 15.7749H1.15222C1.15222 15.5063 1.20252 15.3442 1.30312 15.1951C1.40373 15.0458 1.54187 14.9667 1.71768 14.9667C1.91419 14.9667 2.06159 15.0221 2.15985 15.1378C2.25816 15.2534 2.30725 15.4071 2.30725 15.6015C2.30725 15.7379 2.2587 15.898 2.16159 16.0829C2.06448 16.268 1.92446 16.4781 1.71883 16.7141L0.106926 18.4203V19.2H3.59908V18.2598H1.64824L1.63783 18.2498Z" fill="#10284E"/>
<path d="M6.82259 14.1632H5.68092V14.1435L3.64258 17.4061L3.69926 18.1254H5.68092V19.2H6.82259V18.1254H7.35985V17.2524H6.82259V14.1632ZM5.68092 17.2524H4.67747L5.54466 15.8095L5.64748 15.6578L5.68092 15.6559V17.2524Z" fill="#10284E"/>
<path d="M11.1878 19.2V17.0259C11.1878 16.8643 11.1918 16.7161 11.174 16.5786C11.1287 16.2321 11.0347 15.9606 10.8759 15.7668C10.6538 15.4963 10.3522 15.361 9.96366 15.361C9.7671 15.361 9.60182 15.4078 9.43877 15.5015C9.27571 15.5952 9.10594 15.7265 9.03878 15.8952V14.096H7.82996V19.2H9.03878V16.4536C9.03878 16.3935 9.15086 16.3467 9.23421 16.3131C9.31735 16.2797 9.40928 16.2629 9.52258 16.2629C9.70068 16.2629 9.83123 16.3172 9.91793 16.4258C10.0047 16.5345 10.0461 16.7322 10.0461 17.019V19.2H10.4544H11.1878Z" fill="#10284E"/>
</g>
<defs>
<clipPath id="clip0">
<rect width="20" height="20" fill="white"/>
</clipPath>
</defs>
</svg>
