<svg id="Capa_1" enable-background="new 0 0 512 512" height="512" viewBox="0 0 512 512" width="512" xmlns="http://www.w3.org/2000/svg"><g><path d="m255.061 91.406 61.756 19.468c.736.232 1.497.347 2.255.347 1.194 0 2.384-.286 3.464-.848 1.764-.918 3.091-2.5 3.689-4.397l9.96-31.596c1.245-3.95-.948-8.163-4.898-9.408l-61.757-19.468c-1.897-.598-3.954-.417-5.719.501-1.764.918-3.091 2.5-3.689 4.397l-9.96 31.596c-1.245 3.95.948 8.163 4.899 9.408zm17.113-29.341 47.449 14.958-5.45 17.29-47.449-14.958z"/><path d="m351.531 121.817 61.757 19.468c.736.232 1.497.347 2.255.347 1.194 0 2.384-.286 3.464-.848 1.764-.918 3.091-2.5 3.689-4.397l9.96-31.596c1.245-3.95-.948-8.163-4.898-9.408l-61.756-19.468c-3.949-1.246-8.162.948-9.408 4.898l-9.961 31.596c-.598 1.897-.418 3.954.501 5.719.919 1.764 2.5 3.091 4.397 3.689zm17.115-29.342 47.449 14.958-5.45 17.29-47.45-14.958z"/><path d="m234.206 157.562 61.756 19.468c.736.232 1.497.347 2.255.347 1.194 0 2.384-.286 3.464-.848 1.764-.918 3.091-2.5 3.689-4.397l9.96-31.596c1.245-3.95-.948-8.163-4.898-9.408l-61.756-19.468c-1.895-.598-3.952-.418-5.719.501-1.764.918-3.091 2.5-3.689 4.397l-9.96 31.596c-1.245 3.95.948 8.162 4.898 9.408zm17.113-29.342 47.449 14.958-5.45 17.29-47.449-14.958z"/><path d="m325.778 178.564c-.598 1.897-.418 3.954.501 5.719s2.5 3.092 4.397 3.69l61.757 19.468c.75.237 1.51.349 2.257.349 3.187 0 6.143-2.047 7.151-5.247l9.96-31.596c1.245-3.95-.948-8.163-4.898-9.408l-61.756-19.468c-3.95-1.245-8.163.948-9.408 4.898zm22.013-19.933 47.449 14.958-5.45 17.29-47.45-14.958z"/><path d="m294.476 206.691c1.245-3.95-.948-8.163-4.898-9.408l-61.756-19.468c-1.897-.597-3.954-.417-5.719.501-1.764.918-3.091 2.5-3.689 4.397l-9.96 31.596c-1.245 3.95.948 8.163 4.898 9.408l61.756 19.468c.736.232 1.497.347 2.255.347 1.194 0 2.384-.286 3.464-.848 1.764-.918 3.091-2.5 3.689-4.397zm-22.012 19.933-47.449-14.958 5.45-17.29 47.449 14.958z"/><path d="m386.049 227.694-61.756-19.468c-3.949-1.246-8.163.948-9.408 4.898l-9.961 31.596c-.598 1.897-.418 3.954.501 5.719s2.5 3.092 4.397 3.69l61.756 19.468c.75.237 1.51.349 2.257.349 3.187 0 6.143-2.047 7.151-5.247l9.961-31.596c.598-1.897.418-3.954-.501-5.719s-2.5-3.092-4.397-3.69zm-17.114 29.341-47.449-14.958 5.451-17.29 47.449 14.958z"/><path d="m268.723 263.439-61.756-19.467c-1.897-.598-3.954-.418-5.719.501-1.764.918-3.091 2.5-3.689 4.397l-9.96 31.596c-1.245 3.95.948 8.163 4.898 9.408l61.756 19.468c.736.232 1.497.347 2.255.347 1.195 0 2.384-.286 3.464-.848 1.764-.918 3.091-2.5 3.689-4.397l9.96-31.596c1.245-3.952-.948-8.164-4.898-9.409zm-17.114 29.341-47.449-14.958 5.45-17.29 47.449 14.958z"/><path d="m365.194 293.85-61.757-19.468c-1.896-.597-3.953-.418-5.719.501-1.764.918-3.091 2.5-3.689 4.397l-9.96 31.596c-1.245 3.95.948 8.163 4.898 9.408l61.756 19.468c.75.237 1.51.349 2.257.349 3.187 0 6.143-2.047 7.151-5.247l9.961-31.596c.598-1.897.418-3.954-.501-5.719s-2.499-3.091-4.397-3.689zm-17.114 29.341-47.449-14.958 5.45-17.29 47.45 14.958z"/><path d="m490.798 374.798h-44.24l7.117-53.835c18.976-1.33 35.247-15.946 37.898-35.382.151-1.11.253-2.242.31-3.385l9.783 1.293c.333.044.664.065.992.065 3.705 0 6.927-2.745 7.426-6.518.543-4.106-2.347-7.875-6.453-8.418 0 0-50-6.602-50.11-6.605-1.846-.15-3.691.381-5.169 1.514-1.578 1.209-2.611 2.996-2.872 4.966 0 .001 0 .002-.001.003l-14.052 106.301h-43.501l87.171-276.529c4.283-13.589-3.287-28.128-16.875-32.412l-193.107-60.873c-13.579-4.279-28.115 3.282-32.406 16.857l-111.561 352.958h-13.369s-32.33-222.661-32.33-222.663c-.084-.577-.176-.95-.282-1.191-.471-1.482-1.388-2.794-2.65-3.737-1.593-1.191-3.594-1.701-5.563-1.416l-30.849 4.459h-.001l-18.799 2.718c-4.1.593-6.942 4.396-6.35 8.496.54 3.736 3.746 6.428 7.413 6.428.357 0 .719-.026 1.083-.078l9.766-1.412c.07 1.142.186 2.272.351 3.381 2.888 19.415 19.352 33.84 38.357 34.925l24.697 170.091h-19.419c-4.143 0-7.5 3.358-7.5 7.5s3.357 7.5 7.5 7.5h198.366v70.709c0 2.988 1.773 5.691 4.515 6.88 2.744 1.19 5.927.637 8.109-1.404l53.01-49.593 9.305 10.362v24.98c0 4.142 3.357 7.5 7.5 7.5s7.5-3.358 7.5-7.5v-27.854c0-1.85-.684-3.635-1.92-5.011l-11.429-12.727 17.469-16.343h72.372c.004 0 .008.001.011.001.005 0 .01-.001.016-.001h52.771c3.42 0 6.202 2.782 6.202 6.202v23.955l-8.521-.458-17.663-17.664c-2.929-2.928-7.677-2.929-10.607 0-2.929 2.929-2.929 7.678 0 10.607l19.695 19.696c1.309 1.308 3.054 2.087 4.901 2.186l12.195.654v58.237h-482v-48.598h23.354c1.85 0 3.635-.684 5.011-1.92l13.524-12.145c3.082-2.768 3.337-7.509.569-10.591-2.766-3.081-7.508-3.338-10.591-.569l-11.387 10.226h-20.48v-33.616c0-3.42 2.782-6.202 6.202-6.202h22.001c4.143 0 7.5-3.358 7.5-7.5s-3.357-7.5-7.5-7.5h-22.001c-11.69 0-21.202 9.511-21.202 21.202v104.714c0 4.142 3.357 7.5 7.5 7.5h497c4.143 0 7.5-3.358 7.5-7.5v-104.714c0-11.691-9.512-21.202-21.202-21.202zm-14.088-91.244c-1.538 11.281-10.305 20.008-21.005 22.06l3.663-27.716 17.563 2.322c-.001 1.142-.075 2.265-.221 3.334zm-432.306-115.979c-.158-1.067-.245-2.188-.262-3.33l17.535-2.535 3.998 27.669c-10.721-1.924-19.595-10.544-21.271-21.804zm162.285 207.223 12.948-41.074 36.511 11.51-9.32 29.565h-40.139zm72.38 0h-16.513l7.898-25.055 36.511 11.51-20.396 64.703v-43.658c0-4.142-3.357-7.5-7.5-7.5zm83.598 0c-1.902 0-3.734.723-5.124 2.023l-56.385 52.751 22.37-70.962c.598-1.897.418-3.954-.501-5.718s-2.5-3.092-4.397-3.69l-101.636-32.039c-3.949-1.246-8.162.948-9.408 4.898l-16.625 52.737h-54.081l110.132-348.438c1.8-5.694 7.899-8.866 13.594-7.071l193.106 60.874c5.7 1.797 8.875 7.896 7.078 13.596l-88.592 281.039z"/></g></svg>