<svg width="394" height="354" viewBox="0 0 394 354" fill="none" xmlns="http://www.w3.org/2000/svg">
<g clip-path="url(#clip0)">
<path d="M201.536 206.299L115.65 207.809C114.294 207.835 112.947 207.595 111.684 207.1C110.422 206.606 109.269 205.867 108.293 204.927C107.316 203.987 106.535 202.863 105.994 201.621C105.452 200.379 105.161 199.042 105.137 197.687C105.113 196.332 105.357 194.985 105.855 193.725C106.352 192.464 107.093 191.314 108.036 190.34C108.979 189.366 110.105 188.587 111.349 188.049C112.593 187.51 113.932 187.222 115.288 187.201L201.174 185.692C202.454 185.67 203.691 186.157 204.612 187.046C205.534 187.935 206.064 189.153 206.086 190.433L206.279 201.389C206.301 202.613 205.856 203.799 205.035 204.708C204.215 205.617 203.079 206.179 201.859 206.283C201.752 206.292 201.644 206.297 201.536 206.299Z" fill="#35C6DA"/>
<path d="M184.95 209.101L114.487 212.315C113.854 212.344 113.221 212.248 112.625 212.033C112.028 211.817 111.48 211.486 111.012 211.059C110.544 210.632 110.164 210.117 109.895 209.543C109.626 208.969 109.472 208.348 109.444 207.715L108.698 191.388C108.64 190.109 109.092 188.86 109.955 187.915C110.818 186.969 112.022 186.405 113.301 186.347L183.764 183.132C184.397 183.103 185.03 183.199 185.626 183.415C186.223 183.63 186.771 183.961 187.239 184.388C187.707 184.815 188.087 185.331 188.356 185.904C188.625 186.478 188.779 187.099 188.807 187.732L189.553 204.059C189.609 205.306 189.179 206.526 188.355 207.463C187.531 208.401 186.376 208.984 185.132 209.089C185.072 209.094 185.011 209.098 184.95 209.101Z" fill="#2F2E41"/>
<path d="M65.7924 349.173V257.842C65.7939 256.562 66.3031 255.335 67.2083 254.431C68.1135 253.526 69.3408 253.017 70.621 253.016H81.5853C82.8655 253.017 84.0928 253.526 84.998 254.431C85.9032 255.335 86.4124 256.562 86.4138 257.842V349.173C86.4124 350.453 85.9032 351.68 84.998 352.584C84.0928 353.489 82.8655 353.998 81.5853 353.999H70.621C69.3408 353.998 68.1135 353.489 67.2083 352.584C66.3031 351.68 65.7939 350.453 65.7924 349.173Z" fill="#35C6DA"/>
<path d="M94.5651 349.173V257.842C94.5665 256.562 95.0757 255.335 95.9809 254.431C96.8861 253.526 98.1134 253.017 99.3936 253.016H110.358C111.638 253.017 112.865 253.526 113.771 254.431C114.676 255.335 115.185 256.562 115.186 257.842V349.173C115.185 350.453 114.676 351.68 113.771 352.584C112.865 353.489 111.638 353.998 110.358 353.999H99.3936C98.1134 353.998 96.8861 353.489 95.9809 352.584C95.0757 351.68 94.5665 350.453 94.5651 349.173Z" fill="#35C6DA"/>
<path d="M97.4285 157.701C118.352 157.701 135.314 140.748 135.314 119.836C135.314 98.9234 118.352 81.9707 97.4285 81.9707C76.5049 81.9707 59.543 98.9234 59.543 119.836C59.543 140.748 76.5049 157.701 97.4285 157.701Z" fill="#35C6DA"/>
<path d="M117.936 132.766C119.154 132.365 120.273 131.709 121.217 130.841C121.842 130.221 122.324 129.471 122.629 128.646C122.934 127.82 123.055 126.937 122.983 126.06C122.943 125.435 122.759 124.827 122.446 124.285C122.133 123.743 121.698 123.28 121.176 122.933C119.821 122.065 118.009 122.062 116.164 122.875L116.234 108.093L114.748 108.086L114.666 125.464L115.811 124.744C117.138 123.911 119.034 123.324 120.374 124.183C120.705 124.41 120.979 124.711 121.175 125.061C121.371 125.411 121.483 125.801 121.504 126.202C121.554 126.856 121.463 127.512 121.236 128.127C121.009 128.742 120.653 129.301 120.191 129.767C118.55 131.333 116.157 131.823 113.427 132.26L113.663 133.726C115.113 133.534 116.543 133.213 117.936 132.766Z" fill="#2F2E41"/>
<path d="M131.549 107.345L123.616 108.393L123.811 109.865L131.744 108.817L131.549 107.345Z" fill="#2F2E41"/>
<path d="M106.509 110.65L98.5765 111.697L98.771 113.169L106.704 112.122L106.509 110.65Z" fill="#2F2E41"/>
<path d="M17.052 116.846L71.4466 183.293C72.3047 184.34 72.948 185.546 73.3396 186.842C73.7313 188.137 73.8637 189.498 73.7292 190.845C73.5947 192.192 73.1961 193.499 72.556 194.692C71.9159 195.885 71.0469 196.94 69.9987 197.797C68.9505 198.654 67.7436 199.297 66.4469 199.687C65.1502 200.078 63.7892 200.21 62.4416 200.075C61.094 199.94 59.7862 199.541 58.5929 198.901C57.3997 198.26 56.3443 197.391 55.4871 196.343L1.09216 129.897C0.69058 129.407 0.389587 128.842 0.206388 128.235C0.0231895 127.629 -0.0386415 126.992 0.0244352 126.361C0.0875119 125.731 0.27425 125.119 0.573998 124.56C0.873745 124.002 1.28063 123.508 1.7714 123.106L10.2571 116.167C11.2483 115.357 12.5211 114.973 13.7953 115.1C15.0696 115.228 16.241 115.856 17.052 116.846H17.052Z" fill="#35C6DA"/>
<path d="M35.1932 131.676L79.8592 186.238C80.2608 186.729 80.5618 187.293 80.745 187.9C80.9282 188.507 80.99 189.144 80.9269 189.774C80.8638 190.405 80.6771 191.017 80.3773 191.575C80.0776 192.134 79.6707 192.628 79.1799 193.029L64.6858 204.882C64.1951 205.283 63.6301 205.584 63.023 205.767C62.4159 205.95 61.7787 206.012 61.1478 205.949C60.5168 205.886 59.9044 205.699 59.3457 205.399C58.7869 205.1 58.2927 204.693 57.8912 204.202L13.225 149.641C12.4155 148.65 12.0324 147.378 12.1597 146.105C12.2871 144.832 12.9145 143.661 13.9043 142.85L28.3985 130.997C29.3897 130.187 30.6624 129.803 31.9366 129.93C33.2108 130.058 34.3823 130.686 35.1932 131.676L35.1932 131.676Z" fill="#2F2E41"/>
<path d="M344.866 65.3456C344.32 64.0494 343.405 62.9417 342.236 62.1596C341.066 61.3775 339.693 60.9553 338.286 60.9453H206.941C205.053 60.9463 203.242 61.6964 201.907 63.0307C200.572 64.365 199.822 66.1744 199.821 68.0614V234.135C199.822 236.022 200.572 237.832 201.907 239.166C203.242 240.5 205.053 241.25 206.941 241.251H338.29C340.178 241.249 341.988 240.498 343.322 239.164C344.657 237.83 345.408 236.022 345.41 234.135V68.0614C345.414 67.1292 345.23 66.2058 344.871 65.3456H344.866ZM343.825 234.135C343.823 235.603 343.239 237.01 342.2 238.048C341.162 239.086 339.754 239.669 338.286 239.671H206.941C205.472 239.671 204.063 239.088 203.025 238.05C201.986 237.012 201.402 235.604 201.402 234.136V68.0624C201.404 66.5948 201.988 65.1879 203.026 64.1502C204.065 63.1124 205.472 62.5285 206.941 62.5265H338.29C339.397 62.5307 340.476 62.8642 341.392 63.4845C342.308 64.1047 343.018 64.9836 343.432 66.0089C343.512 66.2132 343.582 66.4217 343.64 66.6334C343.766 67.0994 343.829 67.5798 343.829 68.0624L343.825 234.135Z" fill="#3F3D56"/>
<path d="M317.456 100.155H277.893C277.477 100.156 277.065 100.074 276.68 99.9156C276.296 99.7569 275.946 99.524 275.652 99.2302C275.357 98.9364 275.124 98.5874 274.964 98.2033C274.805 97.8192 274.723 97.4074 274.723 96.9916C274.723 96.5757 274.805 96.164 274.964 95.7798C275.124 95.3957 275.357 95.0467 275.652 94.7529C275.946 94.4591 276.296 94.2262 276.68 94.0675C277.065 93.9088 277.477 93.8275 277.893 93.8281H317.456C317.872 93.8275 318.284 93.9088 318.669 94.0675C319.053 94.2262 319.403 94.4591 319.697 94.7529C319.992 95.0467 320.225 95.3957 320.385 95.7798C320.544 96.164 320.626 96.5757 320.626 96.9916C320.626 97.4074 320.544 97.8192 320.385 98.2033C320.225 98.5874 319.992 98.9364 319.697 99.2302C319.403 99.524 319.053 99.7569 318.669 99.9156C318.284 100.074 317.872 100.156 317.456 100.155Z" fill="#3F3D56"/>
<path d="M317.456 116.762H277.893C277.477 116.763 277.065 116.682 276.68 116.523C276.296 116.364 275.946 116.131 275.652 115.838C275.357 115.544 275.124 115.195 274.964 114.811C274.805 114.427 274.723 114.015 274.723 113.599C274.723 113.183 274.805 112.771 274.964 112.387C275.124 112.003 275.357 111.654 275.652 111.36C275.946 111.067 276.296 110.834 276.68 110.675C277.065 110.516 277.477 110.435 277.893 110.436H317.456C317.872 110.435 318.284 110.516 318.669 110.675C319.053 110.834 319.403 111.067 319.697 111.36C319.992 111.654 320.225 112.003 320.385 112.387C320.544 112.771 320.626 113.183 320.626 113.599C320.626 114.015 320.544 114.427 320.385 114.811C320.225 115.195 319.992 115.544 319.697 115.838C319.403 116.131 319.053 116.364 318.669 116.523C318.284 116.682 317.872 116.763 317.456 116.762Z" fill="#3F3D56"/>
<path d="M257.594 126.218H228.681C227.737 126.217 226.832 125.842 226.164 125.175C225.497 124.508 225.121 123.603 225.12 122.66V88.559C225.121 87.6154 225.497 86.7107 226.164 86.0435C226.832 85.3763 227.737 85.001 228.681 85H257.594C258.538 85.001 259.443 85.3763 260.11 86.0435C260.778 86.7107 261.153 87.6154 261.154 88.559V122.66C261.153 123.603 260.778 124.508 260.11 125.175C259.443 125.842 258.538 126.217 257.594 126.218Z" fill="#35C6DA"/>
<path d="M317.182 150.768H227.769C226.93 150.768 226.125 150.435 225.531 149.842C224.938 149.248 224.604 148.444 224.604 147.605C224.604 146.766 224.938 145.961 225.531 145.368C226.125 144.775 226.93 144.441 227.769 144.441H317.182C318.021 144.441 318.826 144.775 319.42 145.368C320.013 145.961 320.347 146.766 320.347 147.605C320.347 148.444 320.013 149.248 319.42 149.842C318.826 150.435 318.021 150.768 317.182 150.768Z" fill="#CCCCCC"/>
<path d="M317.182 167.376H227.769C226.931 167.374 226.127 167.041 225.534 166.447C224.942 165.854 224.609 165.05 224.609 164.212C224.609 163.374 224.942 162.57 225.534 161.977C226.127 161.384 226.931 161.05 227.769 161.049H317.182C317.598 161.048 318.01 161.13 318.394 161.288C318.779 161.447 319.128 161.68 319.423 161.974C319.717 162.267 319.951 162.616 320.11 163.001C320.27 163.385 320.352 163.796 320.352 164.212C320.352 164.628 320.27 165.04 320.11 165.424C319.951 165.808 319.717 166.157 319.423 166.451C319.128 166.745 318.779 166.978 318.394 167.136C318.01 167.295 317.598 167.376 317.182 167.376Z" fill="#CCCCCC"/>
<path d="M317.182 183.983H227.769C226.931 183.982 226.127 183.648 225.534 183.055C224.942 182.462 224.609 181.658 224.609 180.82C224.609 179.982 224.942 179.178 225.534 178.585C226.127 177.991 226.931 177.658 227.769 177.656H317.182C317.598 177.656 318.01 177.737 318.394 177.896C318.779 178.054 319.128 178.287 319.423 178.581C319.717 178.875 319.951 179.224 320.11 179.608C320.27 179.992 320.352 180.404 320.352 180.82C320.352 181.236 320.27 181.647 320.11 182.031C319.951 182.416 319.717 182.765 319.423 183.058C319.128 183.352 318.779 183.585 318.394 183.744C318.01 183.902 317.598 183.984 317.182 183.983Z" fill="#CCCCCC"/>
<path d="M317.182 200.591H227.769C226.931 200.589 226.127 200.255 225.534 199.662C224.942 199.069 224.609 198.265 224.609 197.427C224.609 196.589 224.942 195.785 225.534 195.192C226.127 194.599 226.931 194.265 227.769 194.264H317.182C317.598 194.263 318.01 194.344 318.394 194.503C318.779 194.662 319.128 194.895 319.423 195.189C319.717 195.482 319.951 195.831 320.11 196.215C320.27 196.6 320.352 197.011 320.352 197.427C320.352 197.843 320.27 198.255 320.11 198.639C319.951 199.023 319.717 199.372 319.423 199.666C319.128 199.96 318.779 200.193 318.394 200.351C318.01 200.51 317.598 200.591 317.182 200.591Z" fill="#CCCCCC"/>
<path d="M317.182 217.198H227.769C226.931 217.197 226.127 216.863 225.534 216.27C224.942 215.677 224.609 214.873 224.609 214.035C224.609 213.196 224.942 212.392 225.534 211.799C226.127 211.206 226.931 210.872 227.769 210.871H317.182C317.598 210.87 318.01 210.952 318.394 211.11C318.779 211.269 319.128 211.502 319.423 211.796C319.717 212.09 319.951 212.439 320.11 212.823C320.27 213.207 320.352 213.619 320.352 214.035C320.352 214.45 320.27 214.862 320.11 215.246C319.951 215.63 319.717 215.979 319.423 216.273C319.128 216.567 318.779 216.8 318.394 216.959C318.01 217.117 317.598 217.199 317.182 217.198Z" fill="#CCCCCC"/>
<path d="M348.688 90.5744C373.713 90.5744 394 70.2986 394 45.2872C394 20.2758 373.713 0 348.688 0C323.663 0 303.377 20.2758 303.377 45.2872C303.377 70.2986 323.663 90.5744 348.688 90.5744Z" fill="#35C6DA"/>
<path d="M347.811 76.4583C350.756 76.4583 353.143 74.0725 353.143 71.1295C353.143 68.1865 350.756 65.8008 347.811 65.8008C344.866 65.8008 342.479 68.1865 342.479 71.1295C342.479 74.0725 344.866 76.4583 347.811 76.4583Z" fill="white"/>
<path d="M347.24 15.5258C343.221 15.5657 339.376 17.1716 336.523 20.0018C333.67 22.8321 332.036 26.6632 331.966 30.6799C331.965 30.7567 331.965 31.2974 331.965 32.0044C331.965 33.0412 332.377 34.0354 333.11 34.7685C333.844 35.5016 334.838 35.9135 335.876 35.9136C336.914 35.9134 337.909 35.5011 338.643 34.7673C339.377 34.0335 339.789 33.0384 339.789 32.001V31.9984C339.788 31.5174 339.788 31.1845 339.788 31.1641C339.788 29.8771 340.123 28.6122 340.76 27.4938C341.397 26.3754 342.315 25.4421 343.422 24.7856C344.53 24.1291 345.79 23.7721 347.077 23.7497C348.365 23.7273 349.636 24.0403 350.765 24.6578C351.895 25.2753 352.845 26.1762 353.521 27.2717C354.196 28.3672 354.575 29.6197 354.62 30.9059C354.664 32.1922 354.373 33.4678 353.775 34.6075C353.176 35.7471 352.292 36.7114 351.207 37.4056L351.209 37.4073C351.209 37.4073 345.642 40.9891 343.945 45.9026L343.946 45.9029C343.648 46.9095 343.497 47.954 343.497 49.0038C343.497 49.4354 343.523 53.2113 343.572 56.2761C343.589 57.3336 344.021 58.3419 344.776 59.0836C345.53 59.8252 346.546 60.2407 347.604 60.2405C348.134 60.2405 348.658 60.1362 349.147 59.9336C349.637 59.731 350.081 59.4341 350.456 59.0598C350.83 58.6855 351.127 58.2411 351.33 57.752C351.533 57.263 351.637 56.7388 351.637 56.2095L351.637 56.1848C351.62 53.378 351.611 50.1098 351.611 49.8726C351.611 46.8555 354.523 43.8494 356.915 41.8891C359.684 39.6478 361.63 36.5512 362.448 33.0852C362.624 32.3707 362.721 31.6391 362.737 30.9035C362.737 28.884 362.339 26.8843 361.566 25.0185C360.793 23.1528 359.66 21.4575 358.231 20.0295C356.802 18.6015 355.106 17.4688 353.239 16.696C351.372 15.9232 349.372 15.5254 347.351 15.5254C347.314 15.5254 347.277 15.5255 347.24 15.5258Z" fill="white"/>
<path d="M87.9307 103.084C94.7139 98.6267 103.239 100.632 110.778 101.214C117.59 101.74 125.664 101.222 130.455 95.6591C135.44 89.872 135.023 81.2796 130.897 75.1585C126.834 69.1335 120.092 65.3292 112.958 64.3261C109.006 63.7473 104.976 63.9973 101.126 65.06C97.2752 66.1228 93.6883 67.975 90.5932 70.4989L93.0176 71.5026C91.6048 58.0031 81.6739 45.7995 68.3499 42.4893C54.8689 39.14 39.7929 44.8561 32.6006 56.8697C25.51 68.7132 26.35 85.2395 36.5561 95.0817C41.4574 99.8083 48.1246 102.216 54.8908 100.931C61.131 99.7464 66.6755 95.1998 67.8433 88.7794C68.9259 82.8276 66.561 76.0673 60.7686 73.468C59.1837 72.7293 57.4515 72.3599 55.7029 72.3878C53.9543 72.4158 52.2348 72.8402 50.6742 73.6292C49.2609 74.424 48.0666 75.5565 47.1983 76.9255C46.33 78.2945 45.8148 79.8572 45.6987 81.4739C45.5907 83.0391 45.9097 84.6042 46.6217 86.0024C47.4258 87.6429 49.8762 86.2057 49.0743 84.5696C48.5563 83.3666 48.409 82.0366 48.6514 80.7495C48.8938 79.4625 49.5148 78.277 50.435 77.3446C52.5405 75.1463 55.8642 74.7811 58.662 75.68C63.7815 77.3246 66.0419 83.1943 65.0771 88.1738C63.9966 93.7514 59.2325 97.3353 53.8079 98.253C47.9087 99.2509 42.1559 96.7614 38.0609 92.5741C29.4849 83.805 28.7428 69.6813 34.5279 59.2153C40.3968 48.598 52.9156 42.8968 64.8401 44.6777C76.6315 46.4388 86.3424 55.7082 89.3683 67.1377C89.75 68.5697 90.0205 70.029 90.1772 71.5026C90.1869 71.7789 90.2759 72.0466 90.4336 72.2737C90.5912 72.5009 90.811 72.6779 91.0665 72.7837C91.3221 72.8895 91.6027 72.9196 91.8749 72.8704C92.1471 72.8212 92.3994 72.6948 92.6017 72.5063C102.677 64.1428 119.436 65.0398 127.697 75.5613C131.749 80.7211 132.943 88.7337 128.212 93.9169C123.707 98.8522 116.225 98.8572 110.072 98.3167C102.201 97.6252 93.5479 95.9996 86.4971 100.632C84.976 101.632 86.3974 104.091 87.9307 103.084V103.084Z" fill="#2F2E41"/>
<path d="M118.48 289.692H61.6722C60.5426 289.691 59.4596 289.242 58.6609 288.444C57.8621 287.646 57.4129 286.563 57.4116 285.434V266.508C57.4129 265.379 57.8621 264.297 58.6609 263.499C59.4596 262.7 60.5426 262.251 61.6722 262.25H118.48C119.61 262.251 120.693 262.7 121.492 263.499C122.29 264.297 122.74 265.379 122.741 266.508V285.434C122.74 286.563 122.29 287.646 121.492 288.444C120.693 289.242 119.61 289.691 118.48 289.692Z" fill="#2F2E41"/>
<path d="M120.422 196.382C118.643 187.291 111.735 180.092 102.769 177.132C106.007 176.09 108.066 174.549 108.066 172.824C108.066 169.688 101.283 167.146 92.9167 167.146C84.5503 167.146 77.7679 169.688 77.7679 172.824C77.7679 174.574 79.8824 176.137 83.2023 177.179C69.4567 181.275 59.4797 193.231 59.4797 207.31C59.4797 207.31 55.2485 234.42 51.9264 256.09C49.801 269.954 61.4139 282.346 76.5272 282.346H129.679C133.161 282.346 135.994 279.722 135.994 276.496C135.994 276.496 126.199 225.914 120.422 196.382Z" fill="#2F2E41"/>
</g>
<defs>
<clipPath id="clip0">
<rect width="394" height="354" fill="white"/>
</clipPath>
</defs>
</svg>
