<svg width="590" height="530" viewBox="0 0 590 530" fill="none" xmlns="http://www.w3.org/2000/svg">
<path d="M301.793 308.867L173.182 311.127C171.152 311.167 169.134 310.807 167.243 310.066C165.353 309.326 163.627 308.22 162.165 306.813C160.702 305.405 159.532 303.723 158.721 301.863C157.91 300.003 157.475 298.001 157.439 295.973C157.403 293.944 157.768 291.928 158.513 290.041C159.258 288.153 160.368 286.431 161.78 284.973C163.192 283.515 164.878 282.349 166.741 281.543C168.604 280.737 170.608 280.306 172.639 280.274L301.25 278.015C303.167 277.981 305.02 278.71 306.399 280.041C307.779 281.372 308.573 283.196 308.607 285.112L308.895 301.516C308.927 303.348 308.262 305.125 307.033 306.485C305.804 307.845 304.103 308.688 302.276 308.843C302.116 308.856 301.955 308.864 301.793 308.867Z" fill="#35C6DA"/>
<path d="M276.955 313.059L171.441 317.872C170.492 317.915 169.544 317.772 168.651 317.449C167.758 317.126 166.938 316.631 166.236 315.991C165.535 315.352 164.967 314.58 164.564 313.721C164.161 312.862 163.931 311.932 163.888 310.984L162.771 286.54C162.684 284.626 163.361 282.755 164.653 281.34C165.946 279.924 167.749 279.08 169.664 278.993L275.179 274.179C276.127 274.136 277.075 274.28 277.968 274.603C278.861 274.925 279.682 275.42 280.383 276.06C281.084 276.7 281.653 277.471 282.056 278.33C282.459 279.189 282.689 280.119 282.732 281.067L283.848 305.511C283.932 307.378 283.289 309.204 282.055 310.608C280.821 312.012 279.091 312.884 277.228 313.042C277.138 313.049 277.046 313.055 276.955 313.059Z" fill="#2F2E41"/>
<path d="M98.5216 522.774V386.034C98.5238 384.118 99.2863 382.282 100.642 380.927C101.997 379.573 103.835 378.811 105.752 378.809H122.171C124.088 378.811 125.926 379.573 127.281 380.927C128.637 382.282 129.399 384.118 129.401 386.034V522.774C129.399 524.689 128.637 526.526 127.281 527.88C125.926 529.235 124.088 529.997 122.171 529.999H105.752C103.835 529.997 101.997 529.235 100.642 527.88C99.2863 526.526 98.5238 524.689 98.5216 522.774Z" fill="#35C6DA"/>
<path d="M141.608 522.774V386.034C141.61 384.118 142.372 382.282 143.728 380.927C145.083 379.573 146.921 378.811 148.838 378.809H165.257C167.174 378.811 169.012 379.573 170.367 380.927C171.723 382.282 172.485 384.118 172.487 386.034V522.774C172.485 524.689 171.723 526.526 170.367 527.88C169.012 529.235 167.174 529.997 165.257 529.999H148.838C146.921 529.997 145.083 529.235 143.728 527.88C142.372 526.526 141.61 524.689 141.608 522.774V522.774Z" fill="#35C6DA"/>
<path d="M145.895 236.106C177.228 236.106 202.627 210.724 202.627 179.415C202.627 148.106 177.228 122.725 145.895 122.725C114.563 122.725 89.1633 148.106 89.1633 179.415C89.1633 210.724 114.563 236.106 145.895 236.106Z" fill="#35C6DA"/>
<path d="M176.604 198.772C178.429 198.173 180.104 197.19 181.518 195.89C182.454 194.962 183.176 193.84 183.632 192.604C184.089 191.367 184.27 190.046 184.162 188.733C184.103 187.797 183.828 186.887 183.358 186.075C182.889 185.263 182.238 184.571 181.456 184.052C179.427 182.751 176.714 182.747 173.951 183.964L174.056 161.833L171.831 161.822L171.708 187.84L173.422 186.762C175.41 185.515 178.249 184.637 180.255 185.923C180.751 186.263 181.161 186.712 181.455 187.236C181.748 187.761 181.917 188.345 181.947 188.945C182.022 189.924 181.886 190.907 181.546 191.828C181.207 192.749 180.673 193.586 179.981 194.282C177.524 196.627 173.94 197.36 169.853 198.015L170.205 200.21C172.377 199.923 174.519 199.441 176.604 198.772V198.772Z" fill="#2F2E41"/>
<path d="M196.99 160.716L185.111 162.283L185.402 164.487L197.281 162.919L196.99 160.716Z" fill="#2F2E41"/>
<path d="M159.494 165.663L147.615 167.23L147.906 169.434L159.785 167.867L159.494 165.663Z" fill="#2F2E41"/>
<path d="M25.5348 174.939L106.989 274.421C108.274 275.989 109.237 277.795 109.823 279.735C110.41 281.675 110.608 283.711 110.407 285.728C110.205 287.744 109.608 289.701 108.65 291.487C107.691 293.273 106.39 294.853 104.82 296.137C103.251 297.42 101.443 298.382 99.5017 298.967C97.56 299.552 95.5219 299.749 93.5039 299.547C91.486 299.345 89.5276 298.748 87.7407 297.789C85.9538 296.83 84.3734 295.529 83.0898 293.96L1.63547 194.479C1.03412 193.744 0.583393 192.899 0.30906 191.991C0.0347266 191.082 -0.0578629 190.129 0.0365921 189.185C0.131047 188.24 0.41068 187.324 0.859541 186.488C1.3084 185.652 1.91769 184.912 2.65261 184.312L15.3597 173.922C16.844 172.709 18.7498 172.134 20.658 172.325C22.5661 172.516 24.3203 173.456 25.5347 174.939H25.5348Z" fill="#35C6DA"/>
<path d="M52.7005 197.142L119.586 278.831C120.187 279.565 120.638 280.411 120.913 281.319C121.187 282.228 121.279 283.181 121.185 284.125C121.091 285.069 120.811 285.986 120.362 286.822C119.913 287.658 119.304 288.397 118.569 288.998L96.8646 306.743C96.1297 307.344 95.2836 307.795 94.3746 308.069C93.4655 308.343 92.5113 308.435 91.5665 308.341C90.6216 308.247 89.7046 307.967 88.8679 307.519C88.0312 307.07 87.2911 306.461 86.6898 305.727L19.804 224.038C18.5918 222.554 18.0181 220.65 18.2087 218.744C18.3994 216.838 19.3389 215.086 20.8211 213.871L42.5258 196.125C44.01 194.912 45.9157 194.337 47.8239 194.528C49.732 194.719 51.4861 195.659 52.7005 197.142L52.7005 197.142Z" fill="#2F2E41"/>
<path d="M516.424 97.834C515.606 95.8934 514.236 94.235 512.485 93.0641C510.734 91.8932 508.677 91.2611 506.57 91.2461H309.886C307.058 91.2476 304.347 92.3706 302.348 94.3683C300.349 96.366 299.225 99.075 299.224 101.9V350.542C299.225 353.367 300.349 356.076 302.348 358.074C304.347 360.071 307.058 361.194 309.886 361.196H506.577C509.404 361.192 512.113 360.068 514.112 358.071C516.111 356.074 517.235 353.366 517.239 350.542V101.9C517.244 100.504 516.969 99.122 516.431 97.834H516.424ZM514.864 350.542C514.862 352.739 513.987 354.846 512.432 356.399C510.877 357.953 508.769 358.827 506.57 358.83H309.886C307.686 358.83 305.577 357.956 304.022 356.403C302.466 354.849 301.592 352.741 301.592 350.543V101.902C301.595 99.7043 302.469 97.598 304.024 96.0443C305.579 94.4907 307.687 93.6165 309.886 93.6135H506.577C508.233 93.6198 509.851 94.1191 511.222 95.0477C512.593 95.9763 513.656 97.2921 514.276 98.8272C514.396 99.1331 514.5 99.4452 514.588 99.7622C514.776 100.46 514.871 101.179 514.871 101.902L514.864 350.542Z" fill="#3F3D56"/>
<path d="M475.378 149.949H416.134C415.511 149.95 414.894 149.828 414.318 149.591C413.742 149.353 413.219 149.004 412.778 148.564C412.337 148.125 411.987 147.602 411.749 147.027C411.51 146.452 411.387 145.835 411.387 145.213C411.387 144.59 411.51 143.974 411.749 143.399C411.987 142.824 412.337 142.301 412.778 141.861C413.219 141.421 413.742 141.073 414.318 140.835C414.894 140.597 415.511 140.476 416.134 140.477H475.378C476.001 140.476 476.619 140.597 477.194 140.835C477.77 141.073 478.294 141.421 478.735 141.861C479.176 142.301 479.525 142.824 479.764 143.399C480.003 143.974 480.125 144.59 480.125 145.213C480.125 145.835 480.003 146.452 479.764 147.027C479.525 147.602 479.176 148.125 478.735 148.564C478.294 149.004 477.77 149.353 477.194 149.591C476.619 149.828 476.001 149.95 475.378 149.949Z" fill="#3F3D56"/>
<path d="M475.378 174.814H416.134C415.511 174.815 414.894 174.693 414.318 174.456C413.742 174.218 413.219 173.87 412.778 173.43C412.337 172.99 411.987 172.467 411.749 171.892C411.51 171.317 411.387 170.701 411.387 170.078C411.387 169.455 411.51 168.839 411.749 168.264C411.987 167.689 412.337 167.166 412.778 166.726C413.219 166.287 413.742 165.938 414.318 165.7C414.894 165.463 415.511 165.341 416.134 165.342H475.378C476.001 165.341 476.619 165.463 477.194 165.7C477.77 165.938 478.294 166.287 478.735 166.726C479.176 167.166 479.525 167.689 479.764 168.264C480.003 168.839 480.125 169.455 480.125 170.078C480.125 170.701 480.003 171.317 479.764 171.892C479.525 172.467 479.176 172.99 478.735 173.43C478.294 173.87 477.77 174.218 477.194 174.456C476.619 174.693 476.001 174.815 475.378 174.814Z" fill="#3F3D56"/>
<path d="M385.736 188.971H342.441C341.027 188.97 339.672 188.408 338.672 187.409C337.673 186.41 337.11 185.055 337.109 183.643V132.588C337.11 131.175 337.673 129.821 338.672 128.822C339.672 127.823 341.027 127.261 342.441 127.26H385.736C387.15 127.261 388.506 127.823 389.505 128.822C390.505 129.821 391.067 131.175 391.069 132.588V183.643C391.067 185.055 390.505 186.41 389.505 187.409C388.506 188.408 387.15 188.97 385.736 188.971V188.971Z" fill="#35C6DA"/>
<path d="M474.967 225.726H341.076C339.819 225.726 338.613 225.227 337.724 224.339C336.836 223.451 336.336 222.246 336.336 220.99C336.336 219.734 336.836 218.529 337.724 217.641C338.613 216.753 339.819 216.254 341.076 216.254H474.967C476.224 216.254 477.43 216.753 478.319 217.641C479.208 218.529 479.707 219.734 479.707 220.99C479.707 222.246 479.208 223.451 478.319 224.339C477.43 225.227 476.224 225.726 474.967 225.726V225.726Z" fill="#CCCCCC"/>
<path d="M474.967 250.592H341.076C339.82 250.59 338.616 250.09 337.729 249.202C336.842 248.314 336.343 247.11 336.343 245.855C336.343 244.601 336.842 243.397 337.729 242.509C338.616 241.621 339.82 241.121 341.076 241.119H474.967C475.59 241.118 476.207 241.24 476.783 241.478C477.359 241.715 477.883 242.064 478.323 242.504C478.764 242.944 479.114 243.466 479.353 244.041C479.591 244.616 479.714 245.233 479.714 245.855C479.714 246.478 479.591 247.094 479.353 247.67C479.114 248.245 478.764 248.767 478.323 249.207C477.883 249.647 477.359 249.996 476.783 250.233C476.207 250.471 475.59 250.593 474.967 250.592Z" fill="#CCCCCC"/>
<path d="M474.967 275.455H341.076C339.82 275.453 338.616 274.953 337.729 274.065C336.842 273.177 336.343 271.974 336.343 270.719C336.343 269.464 336.842 268.26 337.729 267.372C338.616 266.484 339.82 265.984 341.076 265.982H474.967C475.59 265.981 476.207 266.103 476.783 266.341C477.359 266.578 477.883 266.927 478.323 267.367C478.764 267.807 479.114 268.329 479.353 268.904C479.591 269.48 479.714 270.096 479.714 270.719C479.714 271.341 479.591 271.958 479.353 272.533C479.114 273.108 478.764 273.63 478.323 274.07C477.883 274.51 477.359 274.859 476.783 275.096C476.207 275.334 475.59 275.456 474.967 275.455Z" fill="#CCCCCC"/>
<path d="M474.967 300.32H341.076C339.82 300.318 338.616 299.818 337.729 298.93C336.842 298.042 336.343 296.839 336.343 295.584C336.343 294.329 336.842 293.125 337.729 292.237C338.616 291.349 339.82 290.85 341.076 290.848H474.967C475.59 290.847 476.207 290.969 476.783 291.206C477.359 291.444 477.883 291.792 478.323 292.232C478.764 292.672 479.114 293.195 479.353 293.77C479.591 294.345 479.714 294.961 479.714 295.584C479.714 296.207 479.591 296.823 479.353 297.398C479.114 297.973 478.764 298.496 478.323 298.936C477.883 299.375 477.359 299.724 476.783 299.962C476.207 300.199 475.59 300.321 474.967 300.32V300.32Z" fill="#CCCCCC"/>
<path d="M474.967 325.183H341.076C339.82 325.181 338.616 324.682 337.729 323.794C336.842 322.906 336.343 321.702 336.343 320.447C336.343 319.192 336.842 317.989 337.729 317.101C338.616 316.213 339.82 315.713 341.076 315.711H474.967C475.59 315.71 476.207 315.832 476.783 316.069C477.359 316.307 477.883 316.656 478.323 317.096C478.764 317.535 479.114 318.058 479.353 318.633C479.591 319.208 479.714 319.825 479.714 320.447C479.714 321.07 479.591 321.686 479.353 322.261C479.114 322.836 478.764 323.359 478.323 323.799C477.883 324.239 477.359 324.587 476.783 324.825C476.207 325.063 475.59 325.184 474.967 325.183Z" fill="#CCCCCC"/>
<path d="M522.147 135.606C559.621 135.606 590 105.249 590 67.8029C590 30.3564 559.621 0 522.147 0C484.673 0 454.295 30.3564 454.295 67.8029C454.295 105.249 484.673 135.606 522.147 135.606Z" fill="#35C6DA"/>
<path d="M520.834 114.472C525.243 114.472 528.818 110.9 528.818 106.494C528.818 102.088 525.243 98.5156 520.834 98.5156C516.424 98.5156 512.85 102.088 512.85 106.494C512.85 110.9 516.424 114.472 520.834 114.472Z" fill="white"/>
<path d="M519.978 23.2448C513.96 23.3044 508.202 25.7088 503.93 29.9461C499.659 34.1835 497.21 39.9193 497.107 45.933C497.105 46.0481 497.104 46.8575 497.105 47.9161C497.105 49.4683 497.722 50.9569 498.82 52.0544C499.918 53.152 501.408 53.7687 502.961 53.7689V53.7689C504.516 53.7686 506.006 53.1512 507.105 52.0526C508.204 50.954 508.821 49.4642 508.821 47.9109V47.9072C508.82 47.187 508.82 46.6886 508.82 46.658C508.819 44.7311 509.321 42.8374 510.275 41.163C511.229 39.4885 512.603 38.0912 514.262 37.1083C515.921 36.1255 517.807 35.591 519.735 35.5574C521.663 35.5239 523.566 35.9924 525.258 36.917C526.95 37.8415 528.372 39.1902 529.383 40.8304C530.395 42.4706 530.963 44.3458 531.029 46.2715C531.096 48.1972 530.66 50.1071 529.764 51.8134C528.868 53.5196 527.543 54.9634 525.919 56.0027L525.921 56.0051C525.921 56.0051 517.586 61.3677 515.044 68.7241L515.046 68.7247C514.599 70.2317 514.373 71.7954 514.374 73.3672C514.374 74.0133 514.412 79.6666 514.485 84.2551C514.511 85.8383 515.159 87.3479 516.288 88.4583C517.418 89.5687 518.939 90.1909 520.524 90.1905V90.1905C521.317 90.1905 522.102 90.0343 522.835 89.731C523.568 89.4277 524.233 88.9832 524.794 88.4228C525.355 87.8623 525.8 87.197 526.103 86.4648C526.407 85.7326 526.563 84.9479 526.563 84.1554L526.563 84.1184C526.537 79.9162 526.523 75.0231 526.523 74.6679C526.523 70.1508 530.884 65.6502 534.466 62.7152C538.613 59.3596 541.527 54.7235 542.752 49.5342C543.015 48.4646 543.161 47.3692 543.185 46.2678C543.185 43.2443 542.589 40.2504 541.432 37.457C540.274 34.6637 538.577 32.1256 536.437 29.9876C534.297 27.8497 531.758 26.1538 528.962 24.9967C526.167 23.8397 523.171 23.2441 520.145 23.2441C520.089 23.2441 520.034 23.2444 519.978 23.2448Z" fill="white"/>
<path d="M131.673 154.334C141.83 147.662 154.596 150.663 165.886 151.535C176.087 152.323 188.177 151.547 195.352 143.219C202.816 134.554 202.193 121.69 196.013 112.526C189.93 103.505 179.833 97.8094 169.151 96.3075C163.232 95.441 157.198 95.8153 151.432 97.4064C145.666 98.9975 140.295 101.771 135.66 105.549L139.29 107.052C137.175 86.841 122.304 68.57 102.351 63.614C82.1641 58.5996 59.5884 67.1576 48.8181 85.144C38.2003 102.876 39.4582 127.619 54.7413 142.354C62.0809 149.431 72.0648 153.036 82.1969 151.112C91.5414 149.338 99.8441 142.531 101.593 132.918C103.214 124.008 99.6726 113.886 90.9987 109.995C88.6253 108.889 86.0315 108.336 83.413 108.377C80.7945 108.419 78.2196 109.055 75.8828 110.236C73.7663 111.426 71.9779 113.122 70.6777 115.171C69.3775 117.221 68.6059 119.56 68.432 121.981C68.2703 124.324 68.748 126.667 69.8142 128.761C71.0183 131.217 74.6878 129.065 73.4869 126.616C72.7112 124.815 72.4907 122.823 72.8537 120.896C73.2167 118.969 74.1466 117.195 75.5245 115.799C78.6774 112.507 83.6546 111.961 87.8442 113.306C95.5104 115.769 98.8952 124.557 97.4506 132.012C95.8325 140.362 88.6984 145.728 80.5753 147.102C71.7415 148.596 63.1269 144.869 56.9948 138.6C44.1525 125.471 43.0412 104.325 51.7043 88.6559C60.4926 72.7598 79.2392 64.2241 97.0957 66.8905C114.753 69.5272 129.295 83.4051 133.826 100.517C134.397 102.661 134.802 104.846 135.037 107.052C135.052 107.466 135.185 107.867 135.421 108.207C135.657 108.547 135.986 108.812 136.369 108.97C136.751 109.128 137.172 109.174 137.579 109.1C137.987 109.026 138.365 108.837 138.668 108.555C153.755 96.0332 178.85 97.3762 191.222 113.129C197.289 120.854 199.077 132.85 191.992 140.61C185.246 147.999 174.043 148.007 164.829 147.197C153.042 146.162 140.084 143.728 129.526 150.664C127.248 152.161 129.377 155.843 131.673 154.334V154.334Z" fill="#2F2E41"/>
<path d="M177.42 433.719H92.3518C90.6603 433.717 89.0386 433.045 87.8425 431.85C86.6464 430.654 85.9736 429.034 85.9717 427.343V399.008C85.9736 397.318 86.6464 395.697 87.8425 394.502C89.0386 393.307 90.6603 392.635 92.3518 392.633H177.42C179.111 392.635 180.733 393.307 181.929 394.502C183.125 395.697 183.798 397.318 183.8 399.008V427.343C183.798 429.034 183.125 430.654 181.929 431.85C180.733 433.045 179.111 433.717 177.42 433.719Z" fill="#2F2E41"/>
<path d="M180.327 294.019C177.663 280.408 167.319 269.63 153.893 265.198C158.742 263.639 161.824 261.33 161.824 258.749C161.824 254.054 151.668 250.248 139.139 250.248C126.611 250.248 116.455 254.054 116.455 258.749C116.455 261.368 119.621 263.709 124.592 265.268C104.009 271.4 89.0686 289.301 89.0686 310.38C89.0686 310.38 82.7326 350.968 77.7578 383.413C74.5751 404.169 91.9651 422.722 114.597 422.722H194.19C199.404 422.722 203.645 418.793 203.645 413.963C203.645 413.963 188.979 338.233 180.327 294.019Z" fill="#2F2E41"/>
</svg>
