<svg width="1440" height="727" viewBox="0 0 1440 727" fill="none" xmlns="http://www.w3.org/2000/svg">
<path d="M1.4782e-05 267.5L1441 0V727H0L1.4782e-05 267.5Z" fill="#10284E"/>
<line y1="-0.5" x2="152.618" y2="-0.5" transform="matrix(0.922017 0.387149 -0.280066 0.959981 -11 465.335)" stroke="#316FFF" stroke-opacity="0.2"/>
<line y1="-0.5" x2="185.576" y2="-0.5" transform="matrix(-0.758267 0.651944 -0.512837 -0.858486 129.717 521.604)" stroke="#003DC9" stroke-opacity="0.3"/>
<line y1="-0.5" x2="140.704" y2="-0.5" transform="matrix(0.800073 0.599902 -0.462027 0.886866 -11 642.593)" stroke="#003DC9" stroke-opacity="0.3"/>
<line y1="-0.5" x2="204.526" y2="-0.5" transform="matrix(0.137603 -0.990487 0.98059 0.196068 101.574 726.999)" stroke="#316FFF" stroke-opacity="0.2"/>
<line y1="-0.5" x2="225.608" y2="-0.5" transform="matrix(0.727676 -0.68592 0.547883 0.836555 129.717 524.419)" stroke="#316FFF" stroke-opacity="0.2"/>
<line y1="-0.5" x2="210.479" y2="-0.5" transform="matrix(0.869119 0.494603 -0.3677 0.929945 293.886 369.671)" stroke="#003DC9" stroke-opacity="0.3"/>
<line y1="-0.5" x2="350.776" y2="-0.5" transform="matrix(-0.989522 0.14438 -0.10086 -0.994901 476.818 470.964)" stroke="#D6DFFF" stroke-opacity="0.1"/>
<line y1="-0.5" x2="350.579" y2="-0.5" transform="matrix(0.816146 0.577845 -0.44141 0.897306 129.717 524.419)" stroke="#316FFF" stroke-opacity="0.2"/>
<line y1="-0.5" x2="263.2" y2="-0.5" transform="matrix(-0.231676 0.972793 -0.945971 -0.324251 476.818 470.964)" stroke="#D6DFFF" stroke-opacity="0.1"/>
<line y1="-0.5" x2="188.663" y2="-0.5" transform="matrix(0.298344 -0.954458 0.911961 0.410278 476.818 473.772)" stroke="#003DC9" stroke-opacity="0.3"/>
<line y1="-0.5" x2="211.069" y2="-0.5" transform="matrix(0.733354 0.679847 -0.541499 0.840702 533.104 293.702)" stroke="#003DC9" stroke-opacity="0.3"/>
<line y1="-0.5" x2="397.489" y2="-0.5" transform="matrix(-0.684426 0.729082 -0.594911 -0.803792 687.893 437.196)" stroke="#003DC9" stroke-opacity="0.3"/>
<line y1="-0.5" x2="454.273" y2="-0.5" transform="matrix(0.826032 0.563623 -0.428377 0.9036 476.818 470.964)" stroke="#003DC9" stroke-opacity="0.3"/>
<line x1="688.393" y1="437.196" x2="688.393" y2="726.999" stroke="#003DC9" stroke-opacity="0.3"/>
<line y1="-0.5" x2="273.235" y2="-0.5" transform="matrix(0.516776 -0.856121 0.754899 0.655841 686.477 435.987)" stroke="#003DC9" stroke-opacity="0.3"/>
<line y1="-0.5" x2="526.779" y2="-0.5" transform="matrix(0.0489732 0.9988 -0.997519 0.0703952 826.264 200.854)" stroke="#003DC9" stroke-opacity="0.3"/>
<line y1="-0.5" x2="202.322" y2="-0.5" transform="matrix(0.718691 -0.69533 0.557883 0.829919 687.893 440.013)" stroke="#003DC9" stroke-opacity="0.3"/>
<line y1="-0.5" x2="521.76" y2="-0.5" transform="matrix(0.831562 0.555432 -0.420959 0.90708 687.893 437.196)" stroke="#D6DFFF" stroke-opacity="0.1"/>
<line y1="-0.5" x2="639.165" y2="-0.5" transform="matrix(0.322897 -0.946434 0.897622 0.440766 856.752 726.999)" stroke="#003DC9" stroke-opacity="0.3"/>
<line y1="-0.5" x2="603.451" y2="-0.5" transform="matrix(0.489692 0.871896 -0.777691 0.628647 826.264 200.854)" stroke="#35C6DA" stroke-opacity="0.1"/>
<line x1="833.3" y1="298.829" x2="1429" y2="298.829" stroke="#003DC9" stroke-opacity="0.3"/>
<line y1="-0.5" x2="706.96" y2="-0.5" transform="matrix(0.517516 0.855674 -0.754265 0.65657 1063.14 122.073)" stroke="#003DC9" stroke-opacity="0.3"/>
<line y1="-0.5" x2="788.252" y2="-0.5" transform="matrix(0.389763 -0.920915 0.854027 0.520228 1121.77 726.999)" stroke="#003DC9" stroke-opacity="0.3"/>
<line y1="-0.5" x2="406.542" y2="-0.5" transform="matrix(0.89994 0.436014 -0.319033 0.947744 1063.14 122.073)" stroke="#35C6DA" stroke-opacity="0.1"/>
<line y1="-0.5" x2="416.6" y2="-0.5" transform="matrix(0.737473 -0.675376 0.536834 0.843688 1121.77 726.999)" stroke="#D6DFFF" stroke-opacity="0.1"/>
</svg>
