<svg width="375" height="579" viewBox="0 0 375 579" fill="none" xmlns="http://www.w3.org/2000/svg">
<path d="M0 106L374 0.5V579H0V106Z" fill="#10284E"/>
<g opacity="0.55">
<line y1="-0.5" x2="59.5738" y2="-0.5" transform="matrix(0.613477 0.789712 -0.0947345 0.995503 0 370.652)" stroke="#316FFF" stroke-opacity="0.2"/>
<line y1="-0.5" x2="103.032" y2="-0.5" transform="matrix(-0.354715 0.934974 -0.191259 -0.98154 36.5469 415.455)" stroke="#003DC9" stroke-opacity="0.3"/>
<line y1="-0.5" x2="73.2931" y2="-0.5" transform="matrix(0.398916 0.916988 -0.167531 0.985867 0 511.79)" stroke="#003DC9" stroke-opacity="0.3"/>
<line y1="-0.5" x2="161.467" y2="-0.5" transform="matrix(0.045269 -0.998975 0.852569 0.522614 29.2378 578.996)" stroke="#316FFF" stroke-opacity="0.2"/>
<line y1="-0.5" x2="130.385" y2="-0.5" transform="matrix(0.327019 -0.945018 0.208916 0.977934 36.5469 417.695)" stroke="#316FFF" stroke-opacity="0.2"/>
<line y1="-0.5" x2="95.5418" y2="-0.5" transform="matrix(0.497284 0.867588 -0.127915 0.991785 79.1836 294.482)" stroke="#003DC9" stroke-opacity="0.3"/>
<line y1="-0.5" x2="98.7579" y2="-0.5" transform="matrix(-0.912836 0.408325 -0.0330499 -0.999454 126.696 375.134)" stroke="#D6DFFF" stroke-opacity="0.1"/>
<line y1="-0.5" x2="177.596" y2="-0.5" transform="matrix(0.418436 0.908246 -0.158435 0.987369 36.5469 417.695)" stroke="#316FFF" stroke-opacity="0.2"/>
<line y1="-0.5" x2="204.481" y2="-0.5" transform="matrix(-0.0774503 0.996996 -0.689368 -0.724412 126.696 375.134)" stroke="#D6DFFF" stroke-opacity="0.1"/>
<line y1="-0.5" x2="144.122" y2="-0.5" transform="matrix(0.101434 -0.994842 0.586993 0.809592 126.696 377.371)" stroke="#003DC9" stroke-opacity="0.3"/>
<line y1="-0.5" x2="121.122" y2="-0.5" transform="matrix(0.331914 0.94331 -0.20561 0.978634 141.316 233.991)" stroke="#003DC9" stroke-opacity="0.3"/>
<line y1="-0.5" x2="241.326" y2="-0.5" transform="matrix(-0.29279 0.956177 -0.23468 -0.972073 181.518 348.247)" stroke="#003DC9" stroke-opacity="0.3"/>
<line y1="-0.5" x2="225.965" y2="-0.5" transform="matrix(0.431303 0.902207 -0.152823 0.988254 126.696 375.134)" stroke="#003DC9" stroke-opacity="0.3"/>
<line x1="182.018" y1="348.247" x2="182.018" y2="578.998" stroke="#003DC9" stroke-opacity="0.3"/>
<line y1="-0.5" x2="189.833" y2="-0.5" transform="matrix(0.193187 -0.981162 0.351498 0.936189 181.15 347.285)" stroke="#003DC9" stroke-opacity="0.3"/>
<line y1="-0.5" x2="418.989" y2="-0.5" transform="matrix(0.0159916 0.999872 -0.977387 0.211456 217.454 160.063)" stroke="#003DC9" stroke-opacity="0.3"/>
<line y1="-0.5" x2="118.21" y2="-0.5" transform="matrix(0.319478 -0.947594 0.21418 0.976794 181.518 350.49)" stroke="#003DC9" stroke-opacity="0.3"/>
<line y1="-0.5" x2="256.796" y2="-0.5" transform="matrix(0.43882 0.898575 -0.149673 0.988735 181.518 348.247)" stroke="#D6DFFF" stroke-opacity="0.1"/>
<line y1="-0.5" x2="484.637" y2="-0.5" transform="matrix(0.110604 -0.993865 0.553325 0.832965 225.375 578.996)" stroke="#003DC9" stroke-opacity="0.3"/>
<line y1="-0.5" x2="425.907" y2="-0.5" transform="matrix(0.180201 0.98363 -0.374206 0.927346 217.454 160.063)" stroke="#35C6DA" stroke-opacity="0.1"/>
<line x1="219.284" y1="237.971" x2="374" y2="237.971" stroke="#003DC9" stroke-opacity="0.3"/>
<line y1="-0.5" x2="490.947" y2="-0.5" transform="matrix(0.19355 0.98109 -0.350897 0.936414 278.977 97.334)" stroke="#003DC9" stroke-opacity="0.3"/>
<line y1="-0.5" x2="583.478" y2="-0.5" transform="matrix(0.136757 -0.990605 0.472063 0.881564 294.204 578.996)" stroke="#003DC9" stroke-opacity="0.3"/>
<line y1="-0.5" x2="170.145" y2="-0.5" transform="matrix(0.55848 0.829518 -0.109147 0.994026 278.977 97.334)" stroke="#35C6DA" stroke-opacity="0.1"/>
<line y1="-0.5" x2="237.816" y2="-0.5" transform="matrix(0.335531 -0.942029 0.203221 0.979133 294.204 578.996)" stroke="#D6DFFF" stroke-opacity="0.1"/>
</g>
</svg>
