<svg width="615" height="260" viewBox="0 0 615 260" fill="none" xmlns="http://www.w3.org/2000/svg">
<path d="M3.05176e-05 83L615 1.00003V259H3.05176e-05L3.05176e-05 83Z" fill="#10284E"/>
<g opacity="0.55">
<line x1="0.165175" y1="165.528" x2="60.1652" y2="186.528" stroke="#316FFF" stroke-opacity="0.2"/>
<line x1="60.2913" y1="186.406" x2="0.291255" y2="229.406" stroke="#003DC9" stroke-opacity="0.3"/>
<line x1="0.264999" y1="228.576" x2="48.265" y2="258.576" stroke="#003DC9" stroke-opacity="0.3"/>
<line x1="47.5068" y1="258.918" x2="59.5068" y2="186.918" stroke="#316FFF" stroke-opacity="0.2"/>
<line x1="59.6911" y1="186.607" x2="129.691" y2="131.607" stroke="#316FFF" stroke-opacity="0.2"/>
<line x1="130.214" y1="131.548" x2="208.214" y2="168.548" stroke="#003DC9" stroke-opacity="0.3"/>
<line x1="208.06" y1="168.496" x2="60.0604" y2="186.496" stroke="#D6DFFF" stroke-opacity="0.1"/>
<line x1="60.2541" y1="186.569" x2="182.254" y2="258.569" stroke="#316FFF" stroke-opacity="0.2"/>
<line x1="208.481" y1="168.137" x2="182.481" y2="259.137" stroke="#D6DFFF" stroke-opacity="0.1"/>
<line x1="207.532" y1="168.824" x2="231.532" y2="104.825" stroke="#003DC9" stroke-opacity="0.3"/>
<line x1="232.306" y1="104.604" x2="298.306" y2="155.604" stroke="#003DC9" stroke-opacity="0.3"/>
<line x1="298.332" y1="156.374" x2="182.332" y2="259.374" stroke="#003DC9" stroke-opacity="0.3"/>
<line x1="208.247" y1="167.565" x2="368.247" y2="258.565" stroke="#003DC9" stroke-opacity="0.3"/>
<line x1="298.5" y1="156" x2="298.5" y2="259" stroke="#003DC9" stroke-opacity="0.3"/>
<line x1="296.992" y1="155.276" x2="357.198" y2="72.1371" stroke="#003DC9" stroke-opacity="0.3"/>
<line x1="357.499" y1="71.9707" x2="368.499" y2="258.971" stroke="#003DC9" stroke-opacity="0.3"/>
<line x1="297.686" y1="156.611" x2="359.686" y2="106.611" stroke="#003DC9" stroke-opacity="0.3"/>
<line x1="298.243" y1="155.563" x2="483.243" y2="258.563" stroke="#D6DFFF" stroke-opacity="0.1"/>
<line x1="369.537" y1="258.811" x2="457.537" y2="43.8106" stroke="#003DC9" stroke-opacity="0.3"/>
<line x1="357.415" y1="71.7207" x2="483.415" y2="258.721" stroke="#35C6DA" stroke-opacity="0.1"/>
<line x1="360" y1="106.5" x2="614" y2="106.5" stroke="#003DC9" stroke-opacity="0.3"/>
<line x1="458.405" y1="43.7064" x2="614.405" y2="258.706" stroke="#003DC9" stroke-opacity="0.3"/>
<line x1="482.554" y1="258.774" x2="613.554" y2="0.773634" stroke="#003DC9" stroke-opacity="0.3"/>
<line x1="458.187" y1="43.5364" x2="614.187" y2="106.536" stroke="#35C6DA" stroke-opacity="0.1"/>
<line x1="482.697" y1="258.603" x2="613.697" y2="158.603" stroke="#D6DFFF" stroke-opacity="0.1"/>
</g>
</svg>
