<svg width="30" height="30" viewBox="0 0 30 30" fill="none" xmlns="http://www.w3.org/2000/svg">
<circle cx="15" cy="15" r="15" fill="#D6DFFF" fill-opacity="0.4"/>
<path d="M19.8271 15.7191C20.0429 15.7191 20.2178 15.5443 20.2178 15.3285C20.2178 15.1128 20.0429 14.9379 19.8271 14.9379C19.6114 14.9379 19.4365 15.1128 19.4365 15.3285C19.4365 15.5443 19.6114 15.7191 19.8271 15.7191Z" fill="#10284E"/>
<path d="M17.5284 6.56145C16.7711 6.18953 15.917 6 15.0742 6C12.4845 6 10.1788 7.72437 9.20074 10.0827C8.88508 10.8439 8.71617 11.6675 8.71094 12.4918C8.71406 12.9988 8.87773 13.5852 9.24141 14.3773C9.86648 15.7237 10.7274 16.935 11.4854 18.2059C11.6184 18.4289 11.8221 18.707 11.875 18.9766V24.0469C11.875 24.1079 11.8909 24.1666 11.9162 24.2216L12.6975 25.7841C12.7637 25.9164 12.8989 26 13.0469 26H16.9531C17.1011 26 17.2363 25.9164 17.3025 25.7841C17.3025 25.7841 18.0831 24.2229 18.0837 24.2216C18.0918 24.2055 18.125 24.1641 18.125 24.0469C18.125 24.0469 18.125 18.9883 18.125 18.9766C18.125 18.8983 18.1838 18.813 18.2171 18.7437C18.3801 18.4051 19.2066 17.0993 19.243 17.0414C19.3546 16.8639 19.3023 16.6166 19.1211 16.5027C18.9417 16.39 18.6949 16.4457 18.5824 16.6242C18.5309 16.7063 17.9332 17.6504 17.7473 17.9711C17.6419 18.1529 17.5633 18.2995 17.5029 18.4263L16.6314 18.0124L17.6465 14.1214C17.6755 14.1236 17.7048 14.125 17.7344 14.125C18.3805 14.125 18.9062 13.5993 18.9062 12.9531C18.9062 12.307 18.3805 11.7812 17.7344 11.7812C17.2509 11.7812 16.835 12.0755 16.6561 12.4943L16.0575 11.8957C15.9049 11.7431 15.6576 11.7431 15.505 11.8957L15 12.4007L14.495 11.8957C14.3424 11.7431 14.0951 11.7431 13.9425 11.8957L13.3438 12.4943C13.165 12.0755 12.7491 11.7812 12.2656 11.7812C11.6195 11.7812 11.0937 12.307 11.0937 12.9531C11.0937 13.5993 11.6195 14.125 12.2656 14.125C12.2952 14.125 12.3245 14.1235 12.3535 14.1214L13.3702 18.0188L12.5086 18.4496C12.4648 18.3557 12.4097 18.2492 12.3375 18.1184C11.5204 16.6384 10.4627 15.2906 9.80703 13.7231C9.60234 13.2332 9.49027 12.7946 9.49219 12.4957C9.5 11.0301 10.1031 9.56684 11.1465 8.4891C12.2129 7.38793 13.6078 6.78129 15.0742 6.78129H15.0758C16.4867 6.78129 17.841 7.39613 18.8895 8.51215C19.9187 9.60781 20.5086 11.0699 20.5078 12.5234C20.5094 12.7933 20.4164 13.1793 20.2453 13.6097C20.1661 13.8091 20.2677 14.0384 20.466 14.1164C20.658 14.192 20.8923 14.0995 20.9726 13.8961C21.1871 13.3469 21.2875 12.9109 21.2891 12.5234C21.2991 10.0304 19.753 7.65402 17.5284 6.56145ZM16.7117 25.2188H13.2883L12.8977 24.4375H17.1023L16.7117 25.2188ZM17.3437 23.6562H14.5208L17.3437 22.648V23.6562ZM17.7344 12.5625C17.9498 12.5625 18.125 12.7377 18.125 12.9531C18.125 13.1685 17.9498 13.3438 17.7344 13.3438C17.519 13.3438 17.3437 13.1685 17.3437 12.9531C17.3437 12.7377 17.519 12.5625 17.7344 12.5625ZM12.2656 13.3438C12.0502 13.3438 11.875 13.1685 11.875 12.9531C11.875 12.7377 12.0502 12.5625 12.2656 12.5625C12.481 12.5625 12.6562 12.7377 12.6562 12.9531C12.6562 13.1685 12.481 13.3438 12.2656 13.3438ZM13.0765 13.7979C13.207 13.6726 13.3086 13.5176 13.3703 13.3438H13.4375C13.5411 13.3438 13.6404 13.3026 13.7137 13.2293L14.2187 12.7243L14.7238 13.2293C14.8764 13.3819 15.1236 13.3819 15.2762 13.2293L15.7812 12.7243L16.2863 13.2293C16.3596 13.3026 16.4589 13.3438 16.5625 13.3438H16.6297C16.6914 13.5176 16.793 13.6726 16.9235 13.7979L15.8701 17.8359H14.1299L13.0765 13.7979ZM12.6562 19.2492L13.9203 18.6172H16.0838L17.3437 19.2157V20.1406H12.6562V19.2492ZM12.6562 20.9219H15.4792L12.6562 21.9301V20.9219ZM12.6562 22.7596L17.3437 21.0855V21.8185L12.6562 23.4926V22.7596Z" fill="#10284E"/>
<path d="M6.75421 9.89887L7.85538 10.2997C7.89948 10.3157 7.94456 10.3234 7.98894 10.3234C8.14851 10.3234 8.29831 10.2248 8.35601 10.0662C8.42984 9.86348 8.32531 9.63933 8.12253 9.56555L7.02136 9.16473C6.81863 9.09086 6.59449 9.19547 6.52074 9.3982C6.44695 9.6009 6.55148 9.82504 6.75421 9.89887Z" fill="#10284E"/>
<path d="M23.2457 15.0699L22.1445 14.6691C21.9419 14.5952 21.7177 14.6998 21.6439 14.9025C21.5701 15.1053 21.6746 15.3294 21.8774 15.4032L22.9786 15.804C23.0227 15.8201 23.0677 15.8277 23.1121 15.8277C23.2717 15.8277 23.4215 15.7292 23.4792 15.5705C23.553 15.3678 23.4485 15.1437 23.2457 15.0699Z" fill="#10284E"/>
<path d="M7.92969 12.4844C7.92969 12.2686 7.75477 12.0938 7.53906 12.0938H6.36719C6.15148 12.0938 5.97656 12.2686 5.97656 12.4844C5.97656 12.7001 6.15148 12.875 6.36719 12.875H7.53906C7.75477 12.875 7.92969 12.7001 7.92969 12.4844Z" fill="#10284E"/>
<path d="M23.6328 12.0938H22.4609C22.2452 12.0938 22.0703 12.2686 22.0703 12.4844C22.0703 12.7001 22.2452 12.875 22.4609 12.875H23.6328C23.8485 12.875 24.0234 12.7001 24.0234 12.4844C24.0234 12.2686 23.8485 12.0938 23.6328 12.0938Z" fill="#10284E"/>
<path d="M8.35613 14.9025C8.28234 14.6998 8.05816 14.5954 7.85551 14.6691L6.75433 15.0699C6.5516 15.1437 6.44707 15.3678 6.52086 15.5705C6.57859 15.7292 6.7284 15.8277 6.88793 15.8277C6.9323 15.8277 6.97738 15.8201 7.02148 15.804L8.12265 15.4032C8.32543 15.3294 8.42996 15.1053 8.35613 14.9025Z" fill="#10284E"/>
<path d="M21.6439 10.0662C21.7017 10.2248 21.8515 10.3234 22.011 10.3234C22.0554 10.3234 22.1004 10.3157 22.1446 10.2997L23.2457 9.89887C23.4485 9.82508 23.553 9.60094 23.4792 9.3982C23.4054 9.19547 23.1812 9.09094 22.9786 9.16472L21.8774 9.56555C21.6746 9.63933 21.5701 9.86348 21.6439 10.0662Z" fill="#10284E"/>
<path d="M9.03358 16.9809L8.13588 17.7342C7.97065 17.8729 7.94905 18.1193 8.08772 18.2845C8.21909 18.4411 8.47284 18.4713 8.63807 18.3327L9.53577 17.5794C9.701 17.4407 9.7226 17.1943 9.58389 17.0291C9.44526 16.8638 9.19877 16.8423 9.03358 16.9809Z" fill="#10284E"/>
<path d="M20.7157 8.07383C20.8054 8.0748 20.8955 8.04734 20.9664 7.98785L21.8641 7.23457C22.0294 7.0959 22.051 6.84949 21.9123 6.68426C21.7736 6.51898 21.5272 6.49746 21.362 6.63609L20.4643 7.38937C20.299 7.52805 20.2774 7.77437 20.4161 7.93961C20.488 8.02531 20.6014 8.07258 20.7157 8.07383Z" fill="#10284E"/>
<path d="M8.13575 7.23453C8.13575 7.23453 9.0322 7.98676 9.03345 7.98781C9.19095 8.11996 9.4438 8.10653 9.58376 7.93965C9.72247 7.77442 9.70087 7.52801 9.53564 7.38934L8.63794 6.63606C8.47275 6.49742 8.22626 6.51891 8.08763 6.68422C7.94892 6.84949 7.97052 7.09586 8.13575 7.23453Z" fill="#10284E"/>
<path d="M21.8643 17.7342L20.9666 16.9809C20.8013 16.8423 20.5549 16.8638 20.4162 17.0291C20.2775 17.1943 20.2991 17.4407 20.4644 17.5794L21.3621 18.3327C21.5258 18.47 21.7751 18.4482 21.9124 18.2845C22.0511 18.1193 22.0295 17.8729 21.8643 17.7342Z" fill="#10284E"/>
</svg>
