<svg width="30" height="30" viewBox="0 0 30 30" fill="none" xmlns="http://www.w3.org/2000/svg">
<circle cx="15" cy="15" r="15" fill="#D6DFFF" fill-opacity="0.4"/>
<path d="M13.2422 15.5859H16.7578V16.7578H13.2422V15.5859Z" fill="#10284E"/>
<path d="M21.2257 16.7578H17.9297V17.3438C17.9297 17.6675 17.6675 17.9297 17.3438 17.9297H12.6562C12.3325 17.9297 12.0703 17.6675 12.0703 17.3438V16.7578H8.77426C8.01666 16.7578 7.34665 16.2749 7.10678 15.5562L5 9.23477V22.0312C5 23.0005 5.78857 23.7891 6.75781 23.7891H23.2422C24.2114 23.7891 25 23.0005 25 22.0312V9.23523L22.8931 15.5562C22.6534 16.2749 21.9833 16.7578 21.2257 16.7578Z" fill="#10284E"/>
<path d="M17.3438 6.21094H12.6563C11.687 6.21094 10.8985 6.99951 10.8985 7.96875V8.55469H6.00818L8.21811 15.1854C8.29822 15.4251 8.52191 15.5859 8.77429 15.5859H12.0703V15C12.0703 14.6762 12.3325 14.4141 12.6563 14.4141H17.3438C17.6676 14.4141 17.9297 14.6762 17.9297 15V15.5859H21.2258C21.4781 15.5859 21.7018 15.4251 21.782 15.1854L23.992 8.55469H19.1016V7.96875C19.1016 6.99951 18.313 6.21094 17.3438 6.21094ZM12.0703 8.55469V7.96875C12.0703 7.64542 12.3329 7.38281 12.6563 7.38281H17.3438C17.6671 7.38281 17.9297 7.64542 17.9297 7.96875V8.55469H12.0703Z" fill="#10284E"/>
</svg>
