<svg width="30" height="30" viewBox="0 0 30 30" fill="none" xmlns="http://www.w3.org/2000/svg">
<circle cx="15" cy="15" r="15" fill="#D6DFFF" fill-opacity="0.4"/>
<g clip-path="url(#clip0)">
<path d="M14.9999 7.98227C15.2156 7.98227 15.3905 7.80735 15.3905 7.59164V5.6018C15.3905 5.3861 15.2156 5.21117 14.9999 5.21117C14.7841 5.21117 14.6093 5.38606 14.6093 5.6018V7.59164C14.6093 7.80735 14.7842 7.98227 14.9999 7.98227Z" fill="#10284E"/>
<path d="M12.063 8.62394C12.1373 8.74179 12.2641 8.80632 12.3938 8.80632C12.465 8.80632 12.5371 8.78687 12.6017 8.74613C12.7842 8.63113 12.8389 8.38992 12.7239 8.20738L11.6831 6.55601C11.5681 6.37351 11.3269 6.31878 11.1444 6.43382C10.9619 6.54882 10.9072 6.79003 11.0222 6.97257L12.063 8.62394Z" fill="#10284E"/>
<path d="M17.3992 8.74625C17.4639 8.78691 17.5359 8.80633 17.607 8.80633C17.7367 8.80633 17.8636 8.74172 17.9379 8.62379L18.9776 6.97242C19.0925 6.78985 19.0377 6.54871 18.8551 6.43371C18.6725 6.31883 18.4314 6.37367 18.3165 6.55617L17.2768 8.20754C17.1618 8.39016 17.2167 8.63129 17.3992 8.74625Z" fill="#10284E"/>
<path d="M24.8741 14.4075L24.1954 13.2085C24.089 13.0207 23.8507 12.9546 23.6631 13.061C23.4753 13.1673 23.4093 13.4056 23.5156 13.5933L24.194 14.7918C24.2279 14.852 24.2191 14.9101 24.2108 14.9394C24.2029 14.9675 24.1809 15.0195 24.1235 15.0512L23.0775 15.6307C22.9846 15.682 22.8633 15.6496 22.8126 15.5602L22.5469 15.0901C22.5458 15.088 22.5445 15.0861 22.5434 15.084L19.7961 10.2248C19.7622 10.165 19.7708 10.1077 19.7789 10.0788C19.7867 10.0509 19.8085 9.9993 19.866 9.96754L20.9132 9.38801C21.0073 9.3359 21.1256 9.36754 21.1771 9.45871L21.7894 10.5405C21.8956 10.7282 22.134 10.7942 22.3217 10.688C22.5095 10.5818 22.5755 10.3434 22.4692 10.1557L21.8572 9.07438C21.5962 8.61164 21.0032 8.44567 20.5351 8.70438L19.4879 9.28391C19.2613 9.40914 19.0976 9.61613 19.027 9.86688C18.9603 10.1033 18.9842 10.3501 19.0933 10.5667L18.5164 10.7339C18.2706 10.805 18.1215 10.8435 18.0387 10.8435C18.0384 10.8435 18.0381 10.8435 18.0378 10.8435C17.9808 10.8433 17.9186 10.8216 17.7412 10.7544C17.6608 10.7239 17.5606 10.6859 17.4374 10.643L16.4153 10.2857C15.8501 10.0882 15.5951 10.0989 15.2257 10.1326L13.4829 10.2886C12.6884 10.3589 12.1819 10.5382 11.9023 10.849L10.9091 10.5612C11.016 10.3455 11.0389 10.1011 10.9729 9.86688C10.9022 9.61629 10.7387 9.40934 10.5123 9.2841L9.46564 8.7043C8.99721 8.44535 8.40381 8.61141 8.14275 9.07402L5.12697 14.407C4.99787 14.6343 4.96592 14.8986 5.03709 15.1514C5.10779 15.4024 5.27146 15.6096 5.49764 15.7347L6.54428 16.3144C6.69392 16.3971 6.8565 16.4364 7.01693 16.4364C7.35775 16.4364 7.68908 16.2591 7.86717 15.9447L7.97775 15.7491C8.27955 15.882 8.53295 16.075 8.70564 16.3035C8.53697 16.5006 8.43072 16.7438 8.40092 17.0084C8.36154 17.3583 8.46037 17.7016 8.6792 17.9752C8.89615 18.2465 9.20639 18.4177 9.5533 18.458C9.51658 18.8049 9.6158 19.1448 9.83295 19.4154C10.0574 19.696 10.3746 19.8597 10.7065 19.8984C10.6699 20.2448 10.7688 20.5844 10.9853 20.8551C11.2021 21.127 11.5124 21.2985 11.8597 21.3388C11.8229 21.686 11.9221 22.0261 12.1393 22.2968C12.3981 22.6204 12.7802 22.7888 13.166 22.7888C13.4539 22.7888 13.7439 22.6949 13.986 22.5015L14.8039 21.8471C14.8689 21.7952 14.9279 21.7379 14.981 21.6762L15.4482 22.0494C15.6898 22.2422 15.9791 22.3359 16.2667 22.3359C16.6526 22.3358 17.0354 22.1671 17.2945 21.8432C17.4312 21.6725 17.5176 21.4775 17.5567 21.2763C17.6933 21.3236 17.8375 21.348 17.9846 21.348C18.0338 21.348 18.0835 21.3452 18.1332 21.3397C18.4832 21.3009 18.7962 21.1287 19.0137 20.856C19.2312 20.585 19.3304 20.2451 19.2937 19.8982C19.6253 19.8595 19.9427 19.6959 20.1678 19.4154C20.392 19.135 20.482 18.7898 20.4468 18.4579C20.7935 18.4175 21.1036 18.2464 21.3201 17.9757C21.539 17.7028 21.6383 17.36 21.5995 17.0104C21.5701 16.745 21.4637 16.501 21.2947 16.3033C21.4669 16.0749 21.7198 15.8816 22.0218 15.7489L22.1326 15.9449C22.3106 16.2592 22.6418 16.4364 22.9827 16.4364C23.1432 16.4364 23.3059 16.3971 23.4557 16.3143L24.5018 15.7348C24.7279 15.6098 24.8915 15.4029 24.9624 15.1523C25.034 14.8998 25.0027 14.6354 24.8741 14.4075ZM7.18725 15.56C7.13646 15.6497 7.0151 15.682 6.92256 15.6308L5.87596 15.0511C5.81881 15.0195 5.79701 14.9677 5.78904 14.9396C5.78088 14.9105 5.77217 14.8527 5.80662 14.7922L8.82287 9.4582C8.8574 9.39699 8.92248 9.3627 8.99006 9.3627C9.02295 9.3627 9.05639 9.37078 9.08724 9.38785L10.1336 9.96746C10.1337 9.96754 10.1338 9.96762 10.1339 9.96766C10.1912 9.99934 10.2129 10.0509 10.2208 10.0789C10.229 10.1077 10.2376 10.1651 10.2032 10.2255L7.18725 15.56ZM10.0378 17.5702C9.92764 17.6584 9.78853 17.6983 9.64639 17.6825C9.50416 17.6667 9.3774 17.5974 9.28935 17.4873C9.20111 17.377 9.16135 17.2379 9.17732 17.0958C9.19322 16.9543 9.26256 16.8281 9.37326 16.74L10.8357 15.5711C11.0652 15.3878 11.4012 15.4255 11.5846 15.6546C11.6728 15.7649 11.7126 15.9037 11.6967 16.0454C11.6808 16.1866 11.6115 16.3126 11.5014 16.4002C11.499 16.4021 11.4969 16.4043 11.4945 16.4063L10.0381 17.5699C10.038 17.57 10.0379 17.5701 10.0378 17.5702ZM10.4426 18.927C10.3545 18.8171 10.3146 18.6786 10.3304 18.537C10.3461 18.3954 10.4155 18.2686 10.5258 18.1802L10.5259 18.1802C10.526 18.1801 10.526 18.18 10.5261 18.18C10.5262 18.18 10.5262 18.18 10.5262 18.1799L12.6327 16.497C12.8622 16.3137 13.1982 16.3511 13.3816 16.5805C13.4697 16.6906 13.5095 16.8293 13.4938 16.9709C13.478 17.1127 13.4084 17.2395 13.2979 17.3277L11.1919 19.0101C10.9622 19.1934 10.6262 19.1564 10.4426 18.927ZM11.9527 20.5633C11.8105 20.5475 11.6839 20.4781 11.5957 20.3676C11.5076 20.2575 11.4678 20.1188 11.4836 19.9771C11.4994 19.8355 11.5688 19.7089 11.6792 19.6206C11.6793 19.6205 11.6794 19.6204 11.6795 19.6204L13.1372 18.4558C13.1389 18.4545 13.1408 18.4534 13.1425 18.452C13.3714 18.2688 13.7074 18.3061 13.891 18.5349C13.9792 18.6452 14.019 18.7843 14.003 18.9264C13.9871 19.0679 13.9178 19.194 13.8071 19.2821L12.3447 20.4511C12.2342 20.5393 12.0949 20.579 11.9527 20.5633ZM14.512 20.8804C14.4962 21.0221 14.4268 21.1485 14.3162 21.2368L13.4983 21.8914C13.2685 22.0748 12.9326 22.0379 12.749 21.8083C12.6609 21.6985 12.621 21.5599 12.6367 21.4181C12.6525 21.2763 12.7218 21.1497 12.8319 21.0618C12.832 21.0618 12.8321 21.0616 12.8322 21.0616L13.65 20.4079C13.6504 20.4075 13.6509 20.4073 13.6513 20.407C13.8809 20.2238 14.2169 20.2613 14.4003 20.4905C14.4881 20.6004 14.5279 20.7388 14.512 20.8804ZM20.7104 17.4873C20.6223 17.5973 20.4955 17.6667 20.3533 17.6825C20.2113 17.6984 20.0721 17.6584 19.9619 17.5702C19.9619 17.5701 19.9618 17.5701 19.9617 17.57C19.9617 17.57 19.9616 17.57 19.9616 17.5699L18.9163 16.7348C18.7478 16.6001 18.502 16.6276 18.3674 16.7961C18.2327 16.9646 18.2602 17.2105 18.4287 17.3451L19.4736 18.18C19.7028 18.3635 19.7406 18.6988 19.5581 18.9269C19.3741 19.1563 19.0381 19.1936 18.8087 19.0099L17.6749 18.1051C17.5063 17.9706 17.2606 17.9982 17.126 18.1668C16.9915 18.3354 17.019 18.5812 17.1877 18.7157L18.3209 19.6201C18.4313 19.7085 18.5008 19.8353 18.5166 19.9771C18.5324 20.1187 18.4925 20.2572 18.4036 20.368C18.3158 20.4781 18.1891 20.5475 18.047 20.5633C17.9047 20.5789 17.7654 20.5392 17.6553 20.4514L17.0912 20.0002C17.0902 19.9994 17.0894 19.9986 17.0884 19.9978L16.6117 19.6168L16.5226 19.5455C16.3541 19.4107 16.1083 19.4381 15.9736 19.6066C15.9568 19.6277 15.9424 19.6499 15.9306 19.673C15.8741 19.7836 15.875 19.9132 15.9281 20.022C15.9527 20.0723 15.9881 20.1183 16.0347 20.1556L16.6019 20.6092C16.8296 20.7931 16.8669 21.1273 16.6846 21.3552C16.5011 21.5845 16.1651 21.622 15.9356 21.439L15.2921 20.9248C15.3189 20.5905 15.2198 20.2645 15.0103 20.0025C14.8801 19.8397 14.7185 19.7164 14.5412 19.6337C14.6712 19.4534 14.7537 19.2415 14.7793 19.0137C14.8187 18.6638 14.7199 18.3205 14.5006 18.0464C14.3704 17.8841 14.209 17.7611 14.032 17.6786C14.1622 17.4977 14.2448 17.2854 14.2702 17.0573C14.309 16.7082 14.2101 16.3656 13.9917 16.0924C13.6158 15.6225 12.9802 15.4796 12.4512 15.7042C12.4088 15.5097 12.3223 15.3263 12.1946 15.1666C11.7423 14.6014 10.9141 14.5089 10.3481 14.9606L9.30213 15.7966C9.0656 15.4948 8.74408 15.2445 8.36392 15.066L10.5154 11.2605L11.661 11.5924C11.6662 11.6537 11.6762 11.7181 11.6928 11.7864C11.9701 12.9266 13.0198 13.4578 14.4324 13.1732C15.6227 12.9337 16.1127 13.2904 17.0886 14.0011C17.1898 14.0748 17.295 14.1514 17.4051 14.2303C18.107 14.7338 18.857 15.3256 19.3598 15.7268L20.6278 16.7401C20.7379 16.828 20.8073 16.9546 20.823 17.0965C20.8388 17.2384 20.7989 17.377 20.7104 17.4873ZM20.6982 15.7964L19.8473 15.1164C19.3375 14.7097 18.5769 14.1096 17.8603 13.5954C17.7517 13.5177 17.6482 13.4422 17.5485 13.3696C16.5365 12.6327 15.8052 12.1003 14.2783 12.4074C13.811 12.5016 12.6975 12.6117 12.4519 11.602C12.4173 11.4595 12.4525 11.4105 12.4674 11.3896C12.5197 11.3168 12.7298 11.1395 13.552 11.0667L15.2967 10.9106C15.581 10.8846 15.7236 10.8716 16.1575 11.0232L17.1797 11.3805C17.2933 11.4202 17.3842 11.4546 17.4644 11.485C17.9566 11.6714 18.087 11.6714 18.7336 11.4842L19.4872 11.2659L21.6358 15.0662C21.2556 15.2446 20.9344 15.4947 20.6982 15.7964Z" fill="#10284E"/>
<path d="M22.9911 12.2656C23.2068 12.2656 23.3817 12.0901 23.3817 11.8744C23.3817 11.6586 23.2068 11.4838 22.9911 11.4838C22.7754 11.4838 22.6005 11.6587 22.6005 11.8744V11.8755C22.6005 12.0912 22.7754 12.2656 22.9911 12.2656Z" fill="#10284E"/>
</g>
<defs>
<clipPath id="clip0">
<rect width="20" height="20" fill="white" transform="translate(5 4)"/>
</clipPath>
</defs>
</svg>
