<svg width="30" height="30" viewBox="0 0 30 30" fill="none" xmlns="http://www.w3.org/2000/svg">
<circle cx="15" cy="15" r="15" fill="#D6DFFF" fill-opacity="0.4"/>
<path d="M16.1838 9.41147L14.5399 11.5652L15.5922 9.05198C15.6184 8.92125 15.7229 8.84608 15.7981 8.84608C15.8243 8.84608 15.8471 8.87223 15.8994 8.8951L16.053 8.97027L16.2066 9.04544C16.3406 9.13041 16.3145 9.2546 16.1838 9.41147ZM13.9549 11.7711L14.4157 8.15323C14.4647 7.89831 14.3895 7.71856 14.2098 7.71856H13.9777C13.9287 7.71856 13.6967 7.71856 13.6967 7.71856C13.5169 7.71856 13.4418 7.87216 13.4908 8.15323L13.9549 11.7711ZM14.5954 15.6929C14.749 16.0524 14.8013 16.2845 14.8013 16.6145V19.6147V20.0265C14.8013 20.1573 14.7 20.2815 14.5464 20.2815H13.213C13.0594 20.2815 12.9581 20.1801 12.9581 20.0265V19.6147V19.1801H5.84979V19.6147V20.0265C5.84979 20.1573 5.74847 20.2815 5.59487 20.2815H4.25492C4.10131 20.2815 4 20.1801 4 20.0265V19.6147V16.6145C4 16.2779 4.04902 16.023 4.2059 15.6929L5.87267 12.2058C6.05241 11.794 6.56552 11.4639 7.02633 11.4639H11.7456C12.2064 11.4639 12.7228 11.8005 12.9287 12.2058L14.5954 15.6929ZM5.48702 15.5426H13.2816L12.1541 13.1339C11.9221 12.6731 11.7194 12.5685 11.2325 12.5685H7.53944C7.46427 12.5685 7.40871 12.5685 7.35969 12.5685C7.00019 12.6176 6.82044 12.7483 6.64395 13.1339L5.48702 15.5426ZM6.56552 17.2845C6.56552 16.8237 6.17987 16.4642 5.71906 16.4642C5.25825 16.4642 4.89875 16.8237 4.89875 17.2845C4.89875 17.7453 5.25825 18.131 5.71906 18.131C6.17987 18.131 6.56552 17.7486 6.56552 17.2845ZM13.8993 17.2845C13.8993 16.8237 13.5137 16.4642 13.0528 16.4642C12.592 16.4642 12.2325 16.8237 12.2325 17.2845C12.2325 17.7453 12.592 18.131 13.0528 18.131C13.5137 18.1342 13.8993 17.7486 13.8993 17.2845ZM13.3895 11.794L12.3371 9.28075C12.2881 9.15002 12.2064 9.07485 12.1312 9.07485C12.1051 9.07485 12.0822 9.07485 12.0561 9.07485C12.0299 9.07485 12.0299 9.101 12.007 9.101L11.8534 9.17617L11.7227 9.27748C11.592 9.35265 11.6214 9.48337 11.7488 9.63698L13.3895 11.794ZM23.9261 16.7191L23.1548 19.618L23.0534 20.0036C23.0273 20.1344 22.8737 20.2095 22.7462 20.1834L21.4651 19.8468C21.3344 19.8206 21.2592 19.667 21.2854 19.5396L21.3867 19.1539L21.5174 18.7421L15.1804 17.0492V16.5622C15.1804 16.3563 15.1543 16.1275 15.1053 15.9216C15.4419 15.8955 15.7459 15.6667 15.8471 15.304C15.9779 14.8693 15.6935 14.4085 15.2556 14.2778C14.9745 14.2288 14.6902 14.3039 14.4843 14.4837L13.8927 13.2516C13.9189 13.2254 13.9418 13.1764 13.9679 13.1503L16.4811 10.2253C16.7132 9.94419 17.0988 9.79058 17.4583 9.76444C17.589 9.76444 17.6904 9.76444 17.7949 9.79058L22.2854 10.9442C22.7462 11.075 23.158 11.5358 23.2332 11.9705L23.9489 15.7681C24.0307 16.1537 24.0078 16.4152 23.9261 16.7191ZM22.8247 15.389L22.3377 12.7744C22.2364 12.2646 22.0567 12.1077 21.5959 11.977L18.0303 10.9998C17.8505 10.9508 17.7231 10.9508 17.5956 10.9508C17.3897 10.9769 17.21 11.1044 17.0041 11.3364L15.2589 13.3594L22.8247 15.389ZM22.3377 16.2093C22.2887 16.1831 22.2364 16.1831 22.1842 16.1831C22.1318 16.1831 22.0828 16.1831 22.0306 16.1831C21.6939 16.2093 21.4129 16.4381 21.3377 16.8008C21.207 17.2355 21.4684 17.6963 21.9031 17.827C22.3378 17.9577 22.7986 17.6734 22.9293 17.2355C23.0535 16.7943 22.7757 16.3335 22.3377 16.2093Z" fill="#10284E"/>
</svg>
