<svg width="30" height="30" viewBox="0 0 30 30" fill="none" xmlns="http://www.w3.org/2000/svg">
<circle cx="15" cy="15" r="15" fill="#D6DFFF" fill-opacity="0.4"/>
<path d="M20.2734 23.375C20.2734 22.4042 19.4864 21.6172 18.5156 21.6172H11.4844C10.5136 21.6172 9.72656 22.4042 9.72656 23.375V24H20.2734V23.375Z" fill="#10284E"/>
<path d="M23.8281 8.72656V7.55469H16.6499C16.4729 7.05828 16.0823 6.66777 15.5859 6.49074V4H14.4141V6.49074C13.9177 6.66777 13.5271 7.05828 13.3501 7.55469H6.17188V8.72656H7.63687L5 15.1719C5 16.7872 6.31434 18.1016 7.92969 18.1016H9.10156C10.7169 18.1016 12.0312 16.7872 12.0312 15.1719L9.38246 8.72656H13.3502C13.5272 9.22297 13.9177 9.61348 14.4141 9.79051V18.1658C13.269 18.4001 12.3631 19.2998 12.1296 20.4453H17.8704C17.637 19.2998 16.7311 18.4001 15.586 18.1658V9.79051C16.0824 9.61348 16.4729 9.22297 16.6499 8.72656H20.6057L17.9688 15.1719C17.9688 16.7872 19.2831 18.1016 20.8984 18.1016H22.0703C23.6857 18.1016 25 16.7872 25 15.1719L22.3512 8.72656H23.8281ZM10.5662 14.5859H6.465L8.51562 9.66383L10.5662 14.5859ZM23.535 14.5859H19.4338L21.4844 9.66383L23.535 14.5859Z" fill="#10284E"/>
</svg>
