<svg width="30" height="30" viewBox="0 0 30 30" fill="none" xmlns="http://www.w3.org/2000/svg">
<circle cx="15" cy="15" r="15" fill="#D6DFFF" fill-opacity="0.4"/>
<g clip-path="url(#clip0)">
<path d="M14.5089 10.1642V16.2754H18.404V15.2009H15.5834V10.1642H14.5089Z" fill="#10284E"/>
<path d="M25.0001 15.0645C25.0001 9.94369 20.8282 5.77868 15.7074 5.77868C11.1143 5.77868 7.29139 9.15681 6.55186 13.522H5.0603L7.63255 17.9544L10.2801 13.522H8.73829C9.44384 10.2985 12.304 7.9277 15.7124 7.9277C19.6481 7.9277 22.851 11.1293 22.851 15.065C22.851 18.466 20.4188 21.3181 17.2624 22.0306V24.2213C21.6276 23.4817 25.0001 19.6575 25.0001 15.0645Z" fill="#10284E"/>
<path d="M6.63783 23.2498L7.32116 22.5234C7.76513 22.0402 8.06975 21.6786 8.23509 21.4335C8.40043 21.1884 8.48311 20.9077 8.48311 20.5885C8.48311 20.1145 8.32757 19.7418 8.01657 19.4688C7.70556 19.1961 7.2726 19.0598 6.71762 19.0598C6.19493 19.0598 5.77527 19.2226 5.45849 19.5473C5.14165 19.8722 4.989 20.2776 5.00062 20.7447L5.0076 20.7749H6.15222C6.15222 20.5063 6.20252 20.3442 6.30312 20.1951C6.40373 20.0458 6.54187 19.9667 6.71768 19.9667C6.91419 19.9667 7.06159 20.0221 7.15985 20.1378C7.25816 20.2534 7.30725 20.4071 7.30725 20.6015C7.30725 20.7379 7.2587 20.898 7.16159 21.0829C7.06448 21.268 6.92446 21.4781 6.71883 21.7141L5.10693 23.4203V24.2H8.59908V23.2598H6.64824L6.63783 23.2498Z" fill="#10284E"/>
<path d="M11.8226 19.1632H10.6809V19.1435L8.64258 22.4061L8.69926 23.1254H10.6809V24.2H11.8226V23.1254H12.3598V22.2524H11.8226V19.1632ZM10.6809 22.2524H9.67747L10.5447 20.8095L10.6475 20.6578L10.6809 20.6559V22.2524Z" fill="#10284E"/>
<path d="M16.1878 24.2V22.0259C16.1878 21.8643 16.1918 21.7161 16.174 21.5786C16.1287 21.2321 16.0347 20.9606 15.8759 20.7668C15.6538 20.4963 15.3522 20.361 14.9637 20.361C14.7671 20.361 14.6018 20.4078 14.4388 20.5015C14.2757 20.5952 14.1059 20.7265 14.0388 20.8952V19.096H12.83V24.2H14.0388V21.4536C14.0388 21.3935 14.1509 21.3467 14.2342 21.3131C14.3173 21.2797 14.4093 21.2629 14.5226 21.2629C14.7007 21.2629 14.8312 21.3172 14.9179 21.4258C15.0047 21.5345 15.0461 21.7322 15.0461 22.019V24.2H15.4544H16.1878Z" fill="#10284E"/>
</g>
<defs>
<clipPath id="clip0">
<rect width="20" height="20" fill="white" transform="translate(5 5)"/>
</clipPath>
</defs>
</svg>
