<svg width="80" height="80" viewBox="0 0 80 80" fill="none" xmlns="http://www.w3.org/2000/svg">
<circle cx="40" cy="40" r="40" fill="#D6DFFF" fill-opacity="0.4"/>
<path d="M65.885 55.7836C65.4534 55.7836 65.1037 56.1571 65.1037 56.6177V62.191C65.1037 62.2685 65.0448 62.3315 64.9722 62.3315H62.0037V50.1449C62.0037 49.6843 61.654 49.3108 61.2224 49.3108C60.7908 49.3108 60.4412 49.6843 60.4412 50.1449V62.3316H54.7047L56.2573 60.508C56.4971 60.2263 56.6101 59.8263 56.5598 59.4378C56.5587 59.4295 56.5575 59.4212 56.5562 59.4129L54.8109 48.4031L55.132 47.8869L55.2157 47.9503C55.502 48.1675 55.8672 48.2467 56.2206 48.1525C56.5675 48.0599 56.8583 47.8107 57.018 47.469V47.4689L58.794 43.6686L62.8507 45.346C63.0108 45.4203 65.1033 46.4447 65.1033 49.1101V52.725C65.1034 53.1858 65.4531 53.5592 65.8847 53.5592C66.3162 53.5592 66.6659 53.1858 66.6659 52.7251V49.1102C66.6659 45.2611 63.5738 43.8596 63.4422 43.8018C63.4372 43.7996 63.4323 43.7975 63.4273 43.7955L56.5193 40.939V39.4198C57.5976 38.4936 58.3549 37.1587 58.5823 35.637C59.1201 35.5649 59.6191 35.335 60.0331 34.9548C60.6269 34.4096 60.9676 33.6163 60.9676 32.7785C60.9676 32.1098 60.7502 31.4699 60.361 30.9616V28.7109C60.361 24.3061 57.0045 20.7226 52.8791 20.7226C51.0269 20.7226 49.3311 21.4464 48.0231 22.6411C48.0062 22.0019 47.7919 21.3929 47.4185 20.9054V18.6547C47.4185 14.25 44.0621 10.6665 39.9367 10.6665C35.811 10.6665 32.4547 14.2501 32.4547 18.6547V20.9641C32.0792 21.4432 31.8691 22.0209 31.8505 22.634C31.016 21.8725 30.0171 21.2992 28.9039 20.9862C28.486 20.8688 28.0592 21.1349 27.9493 21.5804C27.8394 22.026 28.0886 22.4823 28.5059 22.5996C31.101 23.3292 32.9135 25.8423 32.9135 28.7108V29.9583C32.8797 29.9508 32.7714 29.9309 32.7672 29.9302C32.7566 29.6948 32.7007 29.551 32.5805 29.3664C32.3805 29.0595 32.0214 28.6773 30.8662 27.3516C30.4545 26.8795 29.7887 26.7929 29.2833 27.1456C27.3046 28.5256 24.9008 29.2289 22.67 29.0891C21.9433 29.0436 21.4894 29.3845 21.296 29.9431C21.2787 29.9461 21.0855 29.9877 21.0747 29.9905V28.7108C21.0747 25.945 22.8058 23.4567 25.2842 22.6597C25.6973 22.5269 25.9314 22.0616 25.807 21.6204C25.6825 21.1792 25.2461 20.9293 24.8335 21.0623C23.3262 21.547 21.9713 22.5561 21.0187 23.9036C20.033 25.2976 19.512 26.9599 19.512 28.7109V31.0203C19.1185 31.5224 18.9057 32.1325 18.9057 32.7785C18.9057 34.2065 19.8911 35.4519 21.2951 35.6376C21.5251 37.1238 22.2803 38.549 23.4721 39.518V40.9395L16.5718 43.7957C16.567 43.7977 16.5621 43.7998 16.5572 43.8019C16.4253 43.8596 13.333 45.2609 13.333 49.1101V62.191C13.333 63.1885 14.093 63.9998 15.0273 63.9998H39.0867C39.4229 63.9998 39.7357 63.8934 39.9997 63.7123C40.2634 63.8934 40.5763 63.9998 40.9127 63.9998H64.9722C65.9063 63.9998 66.6663 63.1885 66.6663 62.191V56.6177C66.6662 56.1571 66.3166 55.7836 65.885 55.7836ZM21.2186 33.9142C20.7606 33.7367 20.468 33.2843 20.468 32.7783C20.468 32.2875 20.8013 31.8843 21.2186 31.6929V33.9142ZM57.3307 43.0635L55.7971 46.345C55.7969 46.3447 54.0937 45.0532 54.0695 45.0348C54.8043 44.0664 54.4591 44.5214 55.987 42.5079L57.3307 43.0635ZM52.9402 43.8729L50.9196 41.2101V40.4099C51.5764 40.6523 52.2839 40.7642 52.9498 40.7644C52.9499 40.7644 52.9501 40.7644 52.9503 40.7644H52.9504C53.6389 40.7643 54.336 40.6247 54.9568 40.3753V41.2152L52.9402 43.8729ZM53.8574 46.9205L53.57 47.3824H52.3106L52.0232 46.9205L52.9404 46.2251L53.8574 46.9205ZM39.9976 33.8166L37.9771 31.1538V30.3536C38.6312 30.5951 39.338 30.7079 40.0073 30.7082C40.0074 30.7082 40.0076 30.7082 40.0077 30.7082H40.0078C40.6951 30.7082 41.3921 30.569 42.0143 30.3191V31.1589L39.9976 33.8166ZM40.9148 36.8645L40.6274 37.3263H39.3679L39.0805 36.8645L39.9977 36.169L40.9148 36.8645ZM33.8452 25.5014C33.9729 25.5386 34.1042 25.5638 34.2374 25.5814C34.4674 27.0676 35.2226 28.4928 36.4145 29.4618V30.8832L34.8206 31.5428C34.7282 31.3356 34.6127 31.1405 34.4756 30.9615V28.7109C34.4756 27.5789 34.2523 26.4908 33.8452 25.5014ZM44.1491 24.6182C44.1491 27.0597 42.2837 29.0396 40.0078 29.0396C37.44 29.0396 35.724 26.9149 35.724 24.6182V20.711C38.1909 20.8164 40.7537 20.0358 42.849 18.6434C43.5535 19.4499 43.9727 19.9185 44.1492 20.136C44.1491 22.2127 44.1491 23.0146 44.1491 24.6182ZM45.6399 25.5808C45.7724 25.563 45.903 25.5377 46.03 25.5007C45.6241 26.4838 45.3971 27.5692 45.3971 28.7109V31.0202C45.2769 31.1734 45.1736 31.3365 45.0881 31.5077L43.5769 30.8829V29.3637C44.6551 28.4374 45.4125 27.1025 45.6399 25.5808ZM36.948 32.453L38.8659 34.9805L37.558 35.9723C37.5573 35.9729 37.5568 35.9734 37.556 35.974L37.1409 36.2888L35.6073 33.0074L36.948 32.453ZM41.7957 34.0972L43.0444 32.4517L44.388 33.0072L42.8546 36.2888L42.4385 35.9734C42.4381 35.9731 42.4377 35.9726 42.4373 35.9723L41.127 34.9786L41.7957 34.0972ZM42.1895 37.8308L42.2731 37.8942C42.5652 38.1157 42.9317 38.1889 43.278 38.0964C43.625 38.0037 43.9157 37.7545 44.0755 37.4129V37.4127L45.394 34.5913C45.847 35.1875 46.5023 35.55 47.177 35.64C47.4154 37.2348 48.2228 38.5958 49.3571 39.518V40.9394L42.7151 43.6887L41.8682 38.3471L42.1895 37.8308ZM49.8906 42.5092L51.8085 45.0366C50.9699 45.6727 50.1269 46.312 50.0835 46.345L48.5499 43.0636L49.8906 42.5092ZM57.0916 34.6744C57.0918 37.0563 55.28 39.0959 52.9504 39.0959C50.2949 39.0959 48.6665 36.8754 48.6665 34.6744V30.7672C51.1159 30.8717 53.682 30.1014 55.7915 28.6996C56.496 29.5062 56.9151 29.9747 57.0917 30.1922C57.0916 32.2688 57.0916 33.0708 57.0916 34.6744ZM59.4051 32.7784C59.4051 33.2853 59.1116 33.7368 58.6545 33.9142V31.645C59.127 31.8288 59.4051 32.2898 59.4051 32.7784ZM46.9596 28.7108C46.9596 25.226 49.6152 22.3909 52.879 22.3909C56.1429 22.3909 58.7982 25.2261 58.7982 28.7108V29.9583C58.7627 29.9504 58.665 29.9323 58.652 29.9302C58.6414 29.6946 58.5852 29.5504 58.4653 29.3664C58.26 29.0515 57.9048 28.6758 56.751 27.3516C56.3481 26.8898 55.6837 26.7858 55.1681 27.1456C53.2431 28.4882 50.811 29.2466 48.4967 29.0861C47.8466 29.0406 47.3757 29.3805 47.1808 29.9432C47.1634 29.9462 46.9705 29.9878 46.9595 29.9906V28.7108H46.9596ZM47.1039 31.693V33.913C46.6445 33.7362 46.3533 33.2827 46.3533 32.7783C46.3532 32.2875 46.6863 31.8845 47.1039 31.693ZM46.4624 22.7223C46.4624 23.0735 46.32 23.4057 46.0717 23.6336C45.9652 23.7315 45.8437 23.8066 45.7117 23.8579V21.5888C46.1789 21.7698 46.4624 22.2284 46.4624 22.7223ZM39.9363 12.3347C43.2003 12.3347 45.8557 15.1698 45.8557 18.6546V19.9021C45.8204 19.8943 45.7225 19.8762 45.7094 19.8741C45.6979 19.6186 45.6289 19.4616 45.4882 19.2584C45.279 18.9561 44.8934 18.5405 43.8084 17.2953C43.3987 16.8257 42.7333 16.735 42.2255 17.0894C40.1926 18.5074 37.7265 19.1974 35.4912 19.0265C34.9443 18.9824 34.4294 19.3351 34.2383 19.8869C34.2209 19.8899 34.0279 19.9315 34.0171 19.9342V18.6547H34.017C34.017 15.1698 36.6725 12.3347 39.9363 12.3347ZM34.1612 21.6367V23.858C33.7031 23.6805 33.4105 23.2282 33.4105 22.7222C33.4105 22.2342 33.7413 21.8295 34.1612 21.6367ZM32.7691 31.645C33.2062 31.8149 33.4869 32.222 33.5147 32.7059C33.5497 33.244 33.24 33.7305 32.7691 33.9132V31.645ZM32.6967 35.6398C33.4336 35.5413 34.1099 35.1267 34.5534 34.4889L35.9199 37.4127C35.9199 37.4127 35.9199 37.4127 35.92 37.4129C36.0797 37.7546 36.3704 38.0037 36.7174 38.0964C37.0604 38.1879 37.4274 38.1178 37.7223 37.8942L37.8059 37.8308L38.1271 38.347L37.2805 43.6871L30.6343 40.9389V39.4204H30.6342C31.7407 38.4678 32.4746 37.1219 32.6967 35.6398ZM27.0548 43.8729L25.0343 41.2101V40.4099C25.6885 40.6513 26.3954 40.7642 27.0646 40.7643C27.0647 40.7643 27.0649 40.7643 27.065 40.7643C27.7636 40.7643 28.4594 40.6211 29.0715 40.3753V41.2152L27.0548 43.8729ZM27.9721 46.9205L27.6847 47.3824H26.4252L26.1379 46.9205L27.055 46.2251L27.9721 46.9205ZM30.1016 42.5079L31.4453 43.0636L29.9118 46.345L29.4958 46.0296C29.4953 46.0292 29.4949 46.0288 29.4945 46.0284L28.1842 45.0348L30.1016 42.5079ZM22.7812 34.6744V30.7672C25.2613 30.873 27.8258 30.082 29.9062 28.6996C30.604 29.4986 31.0296 29.9745 31.2064 30.1922C31.2064 32.269 31.2064 33.0709 31.2064 34.6744C31.2064 37.1003 29.3538 39.0959 27.065 39.0959C24.5168 39.0959 22.7812 36.9954 22.7812 34.6744ZM24.0054 42.5092L25.9233 45.0366L24.6154 46.0284C24.6146 46.029 24.6141 46.0296 24.6134 46.0301L24.1983 46.345L22.6646 43.0636L24.0054 42.5092ZM19.5583 62.3317V50.1449C19.5583 49.6843 19.2086 49.3108 18.777 49.3108C18.3455 49.3108 17.9958 49.6843 17.9958 50.1449V62.3316H15.0273C14.9546 62.3316 14.8956 62.2686 14.8956 62.1912V49.1101C14.8956 46.431 17.0099 45.4099 17.1467 45.3467L21.201 43.6686L22.9771 47.4689C22.9771 47.4689 22.9771 47.4689 22.9772 47.469C23.1369 47.8108 23.4277 48.0599 23.7747 48.1525C24.1178 48.2441 24.4847 48.174 24.7796 47.9503L24.8633 47.8869L25.1844 48.4031L23.4391 59.4129C23.4378 59.4211 23.4366 59.4295 23.4355 59.4378C23.3853 59.8261 23.4983 60.2261 23.7382 60.5083L25.2906 62.3316H19.5583V62.3317ZM25.0072 59.5183L26.6665 49.0507H27.4435L29.1028 59.5183L27.055 61.9236L25.0072 59.5183ZM39.2182 62.191C39.2182 62.2686 39.1593 62.3316 39.0867 62.3316H36.1183V50.1449C36.1183 49.6843 35.7687 49.3108 35.3371 49.3108C34.9055 49.3108 34.5558 49.6843 34.5558 50.1449V62.3316H28.8194L30.372 60.508C30.6118 60.2263 30.7248 59.8263 30.6745 59.4378C30.6734 59.4295 30.6722 59.4212 30.6709 59.4129L28.9256 48.4031L29.2467 47.8869L29.3303 47.9503C29.5394 48.1089 29.7869 48.1917 30.038 48.1917C30.4963 48.1917 30.923 47.9175 31.1328 47.469V47.4689L32.9088 43.6687L36.9655 45.3461C38.148 45.8953 39.2181 47.3116 39.2181 49.1101V62.191H39.2182ZM39.9996 46.079C39.6759 45.5223 39.2451 45.0072 38.7257 44.5675L39.6092 38.9947H40.3861L41.27 44.5704C40.7368 45.0225 40.3116 45.5423 39.9996 46.079ZM45.4435 62.3317V50.1449C45.4435 49.6843 45.0938 49.3108 44.6623 49.3108C44.2307 49.3108 43.881 49.6843 43.881 50.1449V62.3316H40.9126C40.84 62.3316 40.7809 62.2686 40.7809 62.1912V49.1101C40.7809 48.1185 41.0722 47.2052 41.6926 46.4379C42.1062 45.9313 42.6549 45.5212 43.0322 45.3467L47.0864 43.6685L48.8626 47.4689C48.8626 47.4689 48.8626 47.4689 48.8627 47.469C49.0224 47.8108 49.3131 48.0599 49.6601 48.1525C50.0031 48.2441 50.3701 48.174 50.6649 47.9503L50.7486 47.8869L51.0697 48.4031L49.3244 59.4129C49.3231 59.4211 49.3219 59.4295 49.3208 59.4378C49.2706 59.8261 49.3836 60.2261 49.6235 60.5083L51.1759 62.3316H45.4435V62.3317ZM50.8924 59.5184L52.5518 49.0508H53.3288L54.9882 59.5184L52.9403 61.9237L50.8924 59.5184Z" fill="#10284E"/>
</svg>
