<svg width="30" height="30" viewBox="0 0 30 30" fill="none" xmlns="http://www.w3.org/2000/svg">
<circle cx="15" cy="15" r="15" fill="#D6DFFF" fill-opacity="0.4"/>
<g clip-path="url(#clip0)">
<path d="M15 9.94843C13.1155 9.94843 11.582 11.4819 11.582 13.3664C11.582 15.251 13.1155 16.7844 15 16.7844C16.8846 16.7844 18.418 15.251 18.418 13.3664C18.418 11.4819 16.8846 9.94843 15 9.94843Z" fill="#10284E"/>
<path d="M14.2321 21.6188L14.2138 21.602L13.7783 21.2079L12.7534 20.2806L11.639 20.4006L10.957 20.4736L10.7954 20.4912L10.2747 20.547L8.63501 24.0315L11.1742 24.0651L12.8178 26L14.6864 22.0297L14.2321 21.6188Z" fill="#10284E"/>
<path d="M19.7253 20.547L19.2046 20.4912L19.0429 20.474L18.361 20.4006L17.2466 20.2806L16.2217 21.2079L15.7862 21.602L15.7679 21.6188L15.3136 22.0297L17.1822 26L18.8257 24.0651L21.365 24.0315L19.7253 20.547Z" fill="#10284E"/>
<path d="M20.9861 13.3665L22.0059 11.0902L19.8429 9.84805L19.33 7.40687L16.8498 7.67324L15 6L13.1502 7.67328L10.67 7.40691L10.1571 9.84805L7.99402 11.0901L9.01382 13.3664L7.99402 15.6428L10.1571 16.8848L10.67 19.326L10.859 19.3057L11.5414 19.2323L12.2233 19.1592L12.4061 19.1397H12.4065L13.1502 19.0596L13.7095 19.5654L14.2997 20.0994L14.4837 20.2658L14.754 20.5103L15 20.7329L15.2461 20.5103L15.5164 20.2658L15.7003 20.0994L16.1593 19.6846L16.1597 19.6842L16.8498 19.0596L18.0552 19.1889H18.0556L18.1782 19.2022L18.4587 19.2323H18.4591L19.141 19.3057L19.3301 19.3261L19.8429 16.8849L22.006 15.6428L20.9861 13.3665ZM15 17.9562C12.4694 17.9562 10.4102 15.8975 10.4102 13.3664C10.4102 10.8358 12.4694 8.77664 15 8.77664C17.5306 8.77664 19.5898 10.8358 19.5898 13.3664C19.5898 15.8975 17.5306 17.9562 15 17.9562Z" fill="#10284E"/>
</g>
<defs>
<clipPath id="clip0">
<rect width="20" height="20" fill="white" transform="translate(5 6)"/>
</clipPath>
</defs>
</svg>
