<svg width="30" height="30" viewBox="0 0 30 30" fill="none" xmlns="http://www.w3.org/2000/svg">
<circle cx="15" cy="15" r="15" fill="#10284E"/>
<g clip-path="url(#clip0)">
<path d="M14.7594 14.3677L13.5196 11.7334C13.444 11.5728 13.4434 11.3869 13.518 11.2258L14.856 8.33583C14.449 7.91493 13.9854 7.55665 13.4843 7.27911C12.6655 6.82556 11.7421 6.58579 10.8141 6.58579C7.60816 6.58579 5 9.37622 5 12.8061C5 13.8234 5.23465 14.8328 5.67797 15.7241C7.34551 19.0945 9.70363 21.5909 11.3883 23.0917C12.7706 24.3231 13.9217 25.0957 14.427 25.4143L13.5109 23.274C13.4434 23.1164 13.4466 22.9375 13.5196 22.7824L14.7593 20.1477L13.5196 17.5132C13.4434 17.3514 13.4434 17.164 13.5196 17.0022L14.7594 14.3677Z" fill="white"/>
<path d="M19.186 6.58579C18.3329 6.58579 17.484 6.78888 16.7163 7.17388L14.7246 11.4758L15.9653 14.1122C16.0415 14.274 16.0415 14.4614 15.9653 14.6232L14.7256 17.2577L15.9653 19.8923C16.0415 20.0541 16.0415 20.2414 15.9653 20.4032L14.7201 23.0495L15.6981 25.3345C16.2531 24.9766 17.3334 24.2305 18.6117 23.0917C20.2963 21.5909 22.6545 19.0945 24.3214 15.7252C24.7654 14.8328 25 13.8234 25 12.8061C25 9.37622 22.3919 6.58579 19.186 6.58579Z" fill="white"/>
</g>
<defs>
<clipPath id="clip0">
<rect width="20" height="20" fill="white" transform="translate(5 6)"/>
</clipPath>
</defs>
</svg>
