<svg width="30" height="30" viewBox="0 0 30 30" fill="none" xmlns="http://www.w3.org/2000/svg">
<circle cx="15" cy="15" r="15" fill="#D6DFFF" fill-opacity="0.4"/>
<g clip-path="url(#clip0)">
<path d="M14.5108 18.0209H22.5231C22.7985 18.0209 23.0218 18.2442 23.0218 18.5196V20.5226C23.0218 20.798 22.7985 21.0213 22.5231 21.0213H14.5108C14.2354 21.0213 14.0121 20.798 14.0121 20.5226V18.5196C14.0121 18.2442 14.2353 18.0209 14.5108 18.0209Z" fill="#10284E"/>
<path d="M6.43967 16.893L11.7555 11.5774L13.8772 13.6989L8.56133 19.0146C8.26887 19.307 7.88468 19.4533 7.50052 19.4533C7.11636 19.4533 6.73217 19.307 6.4397 19.0146C5.85474 18.4297 5.85474 17.4779 6.43967 16.893Z" fill="#10284E"/>
<path d="M11.748 10.1614L15.2855 6.62403L18.8289 10.1673L15.2914 13.7046L11.748 10.1614Z" fill="#10284E"/>
<path d="M20.5972 10.5166L21.3083 11.2277C21.5031 11.4224 21.5031 11.7382 21.3083 11.9329L17.0591 16.1819C16.9617 16.2793 16.8341 16.328 16.7065 16.328C16.5789 16.328 16.4512 16.2793 16.3539 16.1819L15.6428 15.4708C15.448 15.2761 15.448 14.9603 15.6428 14.7656L19.8919 10.5166C20.0867 10.3218 20.4024 10.3218 20.5972 10.5166Z" fill="#10284E"/>
<path d="M10.6884 9.81136C10.4937 10.0061 10.1779 10.0061 9.98318 9.81136L9.27204 9.10025C9.07729 8.90551 9.07729 8.58978 9.27204 8.39503L13.5212 4.14603C13.7159 3.95132 14.0316 3.95129 14.2264 4.14603L14.9376 4.85714C15.1323 5.05188 15.1323 5.36761 14.9376 5.56236L10.6884 9.81136Z" fill="#10284E"/>
</g>
<defs>
<clipPath id="clip0">
<rect width="20" height="20" fill="white" transform="translate(6 4)"/>
</clipPath>
</defs>
</svg>
