<svg width="30" height="30" viewBox="0 0 30 30" fill="none" xmlns="http://www.w3.org/2000/svg">
<circle cx="15" cy="15" r="15" fill="#EEF2FF"/>
<path d="M18.7031 12.1914C19.582 12.0976 20.2734 11.3477 20.2734 10.4453C20.2734 10.0907 20.1586 9.76417 19.976 9.48722L15.6573 7.3278L10.3881 9.08417C9.98891 9.40503 9.72656 9.89476 9.72656 10.4453C9.72656 11.3477 10.418 12.0976 11.2969 12.1914C11.6953 13.0352 12.375 13.7539 13.2187 14.1641C13.1484 14.4101 12.9258 14.586 12.6563 14.586H11.9414L13.1133 19.2735H15.8655L19.0773 14.6428C18.8919 14.617 18.708 14.5859 18.5156 14.5859H17.3438C17.0743 14.5859 16.8516 14.4101 16.7813 14.1641C17.625 13.7539 18.3047 13.0351 18.7031 12.1914Z" fill="#10284E"/>
<path d="M15 4C14.2134 4 13.485 4.23352 12.8601 4.61891L19.063 7.72039C18.8674 5.63949 17.1312 4 15 4Z" fill="#10284E"/>
<path d="M11.8982 5.44832C11.3742 6.06008 11.0336 6.82148 10.9426 7.66453L14.1754 6.58691L11.8982 5.44832Z" fill="#10284E"/>
<path d="M12.1992 20.4453C12.1156 20.1095 10.7859 14.7686 10.7579 14.6562C8.83594 15.0078 7.38281 16.6719 7.38281 18.6875V21.0312C7.38281 22.6533 8.69746 24 10.3125 24H17.9297V20.4453H12.1992Z" fill="#10284E"/>
<path d="M20.2614 14.9907L17.291 19.2734H19.1015V24H19.6875C21.3046 24 22.6171 22.6484 22.6171 21.0313V18.6875C22.6171 17.0524 21.6487 15.649 20.2614 14.9907Z" fill="#10284E"/>
</svg>
