<svg width="24" height="24" viewBox="0 0 24 24" fill="none" xmlns="http://www.w3.org/2000/svg">
<path d="M12 8.87575C10.2797 8.87575 8.87577 10.2797 8.87577 12C8.87577 13.7203 10.2797 15.1242 12 15.1242C13.7203 15.1242 15.1242 13.7203 15.1242 12C15.1242 10.2797 13.7203 8.87575 12 8.87575ZM21.3703 12C21.3703 10.7062 21.382 9.42419 21.3094 8.13278C21.2367 6.63278 20.8945 5.30153 19.7976 4.20465C18.6984 3.10544 17.3695 2.76559 15.8695 2.69294C14.5758 2.62028 13.2937 2.632 12.0023 2.632C10.7086 2.632 9.42655 2.62028 8.13515 2.69294C6.63515 2.76559 5.3039 3.10778 4.20702 4.20465C3.1078 5.30387 2.76796 6.63278 2.6953 8.13278C2.62265 9.42653 2.63436 10.7086 2.63436 12C2.63436 13.2914 2.62265 14.5757 2.6953 15.8672C2.76796 17.3672 3.11015 18.6984 4.20702 19.7953C5.30624 20.8945 6.63515 21.2343 8.13515 21.307C9.4289 21.3797 10.7109 21.3679 12.0023 21.3679C13.2961 21.3679 14.5781 21.3797 15.8695 21.307C17.3695 21.2343 18.7008 20.8922 19.7976 19.7953C20.8969 18.6961 21.2367 17.3672 21.3094 15.8672C21.3844 14.5757 21.3703 13.2937 21.3703 12V12ZM12 16.807C9.33983 16.807 7.19296 14.6601 7.19296 12C7.19296 9.33981 9.33983 7.19294 12 7.19294C14.6601 7.19294 16.807 9.33981 16.807 12C16.807 14.6601 14.6601 16.807 12 16.807ZM17.0039 8.11872C16.3828 8.11872 15.8812 7.61715 15.8812 6.99606C15.8812 6.37497 16.3828 5.8734 17.0039 5.8734C17.625 5.8734 18.1266 6.37497 18.1266 6.99606C18.1267 7.14354 18.0978 7.28961 18.0415 7.4259C17.9851 7.56219 17.9024 7.68603 17.7981 7.79031C17.6939 7.8946 17.57 7.97728 17.4337 8.03364C17.2974 8.08999 17.1514 8.1189 17.0039 8.11872V8.11872Z" fill="white"/>
</svg>
