<svg width="213" height="208" viewBox="0 0 213 208" fill="none" xmlns="http://www.w3.org/2000/svg">
<path d="M93.3333 206.953C60.9935 192.556 47.4455 183.396 26.6667 166.255H58.6667C70.9314 174.969 79.135 179.092 94.6667 184.754C109.308 178.898 116.553 174.802 128 166.255H158.667C135.121 185.318 120.95 194.441 93.3333 206.953Z" fill="white"/>
<path d="M29.3333 114.459H12V28.1315C53.9512 27.822 71.7345 21.8564 93.3333 1C112.966 22.2737 135.231 27.2049 176 28.1315V114.459H157.333V44.1637C126.349 44.0087 112.26 39.7921 93.3333 24.4317C73.7412 39.8174 60.8139 45.6795 29.3333 44.1637V114.459Z" fill="white"/>
<path d="M94.6667 114.459H89.3333C89.3333 114.459 90.2495 103.135 89.3333 95.9602C88.7105 91.0826 88.434 88.2593 86.6667 83.6277C85.1166 79.5656 83.7619 77.4374 81.3333 73.7617C78.6181 69.6522 77.0998 67.2212 73.3333 63.8957C70.0933 61.0351 68.203 59.1617 64 57.7295C61.028 56.7167 56 56.4962 56 56.4962L69.4757 85.2534C69.4757 85.2534 69.6627 85.1804 69.3333 86.0942C68.8676 87.3865 66.6667 88.5607 66.6667 88.5607C66.6667 88.5607 63.5924 90.5049 61.3333 91.0272C58.8076 91.6113 57.2266 91.4657 54.6667 91.0272C51.9095 90.555 50.2078 90.1597 48 88.5607C45.9501 87.0761 45.4756 85.2534 45.4756 85.2534C54.4282 89.9125 59.4492 91.2272 69.4757 85.2534L56 56.4962C56 56.4962 66.0993 55.7683 72 57.7295C75.9507 59.0425 81.3333 62.6625 81.3333 62.6625C85.2901 65.576 87.3427 67.4579 90.6667 71.2952C93.9906 75.1326 95.7914 77.6455 97.3333 82.3945C98.2443 85.2002 98.3699 86.8773 98.6667 89.794C99.057 93.6299 99.0663 95.8248 98.6667 99.66C98.0487 105.59 94.6667 114.459 94.6667 114.459Z" fill="white"/>
<path d="M101.333 87.3275L97.3333 74.995C97.3333 74.995 100.616 68.4226 104 65.129C106.297 62.8935 107.863 61.8644 110.667 60.196C113.604 58.4481 115.328 57.4464 118.667 56.4962C124.639 54.7966 134.667 56.4962 134.667 56.4962L148.179 83.1921C148.179 83.1921 148.329 85.1804 148 86.0942C147.534 87.3865 145.333 88.5607 145.333 88.5607C145.333 88.5607 142.259 90.5049 140 91.0272C137.474 91.6113 135.893 91.4657 133.333 91.0272C130.576 90.555 128.874 90.1597 126.667 88.5607C124.617 87.0761 124.179 83.1921 124.179 83.1921C133.678 90.7527 138.597 91.9111 148.179 83.1921L134.667 56.4962L128 57.7295C124.812 58.4916 122.824 58.6288 120 60.196C115.884 62.4805 112 68.8287 112 68.8287L101.333 87.3275Z" fill="white"/>
<path d="M104 46.6302V54.0297C102.694 59.5643 99.9653 60.821 94.6667 62.6625C88.4778 59.9457 86.1691 57.9921 86.6667 52.7965V46.6302L81.3333 44.1637L97.3333 40.464L110.667 44.1637L104 46.6302Z" fill="white"/>
<path d="M56 56.4962C56 56.4962 61.028 56.7167 64 57.7295C68.203 59.1617 70.0933 61.0351 73.3333 63.8957C77.0998 67.2212 78.6181 69.6522 81.3333 73.7617C83.7619 77.4374 85.1166 79.5656 86.6667 83.6277C88.434 88.2593 88.7105 91.0826 89.3333 95.9602C90.2495 103.135 89.3333 114.459 89.3333 114.459H94.6667C94.6667 114.459 98.0487 105.59 98.6667 99.66C99.0663 95.8248 99.057 93.6299 98.6667 89.794C98.3699 86.8773 98.2443 85.2002 97.3333 82.3945C95.7914 77.6455 93.9906 75.1326 90.6667 71.2952C87.3427 67.4579 85.2901 65.576 81.3333 62.6625C81.3333 62.6625 75.9507 59.0425 72 57.7295C66.0993 55.7684 56 56.4962 56 56.4962ZM56 56.4962L69.4757 85.2534M134.667 56.4962L128 57.7295C124.812 58.4916 122.824 58.6288 120 60.196C115.884 62.4805 112 68.8287 112 68.8287L101.333 87.3275C99.7712 82.5113 98.8954 79.8111 97.3333 74.995C97.3333 74.995 100.616 68.4226 104 65.129C106.297 62.8935 107.863 61.8644 110.667 60.196C113.604 58.4481 115.328 57.4464 118.667 56.4962C124.639 54.7966 134.667 56.4962 134.667 56.4962ZM134.667 56.4962L148.179 83.1921M56 57.7295L45.4756 85.2534M45.4756 85.2534C54.4282 89.9125 59.4492 91.2272 69.4757 85.2534M45.4756 85.2534C45.4756 85.2534 45.9501 87.0761 48 88.5607C50.2078 90.1597 51.9095 90.555 54.6667 91.0272C57.2266 91.4657 58.8076 91.6113 61.3333 91.0272C63.5924 90.5049 66.6667 88.5607 66.6667 88.5607C66.6667 88.5607 68.8676 87.3865 69.3333 86.0942C69.6626 85.1804 69.4757 85.2534 69.4757 85.2534M86.6667 54.0297H104M104 54.0297V46.6302L110.667 44.1637L97.3333 40.464L81.3333 44.1637L86.6667 46.6302V52.7965C86.1691 57.9921 88.4778 59.9457 94.6667 62.6625C99.9653 60.821 102.694 59.5643 104 54.0297ZM124.179 83.1921C133.678 90.7527 138.597 91.9111 148.179 83.1921M124.179 83.1921C124.179 83.1921 124.617 87.0761 126.667 88.5607C128.874 90.1597 130.576 90.555 133.333 91.0272C135.893 91.4657 137.474 91.6113 140 91.0272C142.259 90.5049 145.333 88.5607 145.333 88.5607C145.333 88.5607 147.534 87.3865 148 86.0942C148.329 85.1804 148.179 83.1921 148.179 83.1921M124.179 83.1921L134.667 57.7295M26.6667 166.255C47.4455 183.396 60.9935 192.556 93.3333 206.953C120.95 194.441 135.121 185.318 158.667 166.255H128C116.553 174.802 109.308 178.898 94.6667 184.754C79.135 179.092 70.9314 174.969 58.6667 166.255H26.6667ZM12 114.459H29.3333V44.1637C60.8139 45.6795 73.7412 39.8174 93.3333 24.4317C112.26 39.7921 126.349 44.0087 157.333 44.1637V114.459H176V28.1315C135.231 27.2049 112.966 22.2737 93.3333 1C71.7345 21.8564 53.9512 27.822 12 28.1315V114.459Z" stroke="white" stroke-width="0.5"/>
<path d="M82.667 52.7965V46.6302V45.397L84.0003 46.6302V54.0297H82.667V52.7965Z" fill="white"/>
<path d="M7.40625 127.046L10.957 119.359H14.8008L9.19922 130.234V136.421H5.625V130.234L0.0234375 119.359H3.87891L7.40625 127.046ZM26.625 129.027H19.875V133.597H27.7969V136.421H16.3594V119.359H27.7734V122.207H19.875V126.273H26.625V129.027ZM38.707 131.945C38.707 131.281 38.4727 130.773 38.0039 130.421C37.5352 130.062 36.6914 129.687 35.4727 129.296C34.2539 128.898 33.2891 128.507 32.5781 128.125C30.6406 127.078 29.6719 125.667 29.6719 123.894C29.6719 122.972 29.9297 122.152 30.4453 121.433C30.9688 120.707 31.7148 120.14 32.6836 119.734C33.6602 119.328 34.7539 119.125 35.9648 119.125C37.1836 119.125 38.2695 119.347 39.2227 119.792C40.1758 120.23 40.9141 120.851 41.4375 121.656C41.9688 122.46 42.2344 123.375 42.2344 124.398H38.7188C38.7188 123.617 38.4727 123.011 37.9805 122.582C37.4883 122.144 36.7969 121.925 35.9062 121.925C35.0469 121.925 34.3789 122.109 33.9023 122.476C33.4258 122.835 33.1875 123.312 33.1875 123.906C33.1875 124.46 33.4648 124.925 34.0195 125.3C34.582 125.675 35.4062 126.027 36.4922 126.355C38.4922 126.957 39.9492 127.703 40.8633 128.593C41.7773 129.484 42.2344 130.593 42.2344 131.921C42.2344 133.398 41.6758 134.558 40.5586 135.402C39.4414 136.238 37.9375 136.656 36.0469 136.656C34.7344 136.656 33.5391 136.417 32.4609 135.941C31.3828 135.457 30.5586 134.796 29.9883 133.96C29.4258 133.125 29.1445 132.156 29.1445 131.054H32.6719C32.6719 132.937 33.7969 133.878 36.0469 133.878C36.8828 133.878 37.5352 133.71 38.0039 133.375C38.4727 133.031 38.707 132.554 38.707 131.945Z" fill="#D6DFFF"/>
<path d="M58.5117 136.421H54.9961V129.109H48.1406V136.421H44.625V119.359H48.1406V126.273H54.9961V119.359H58.5117V136.421ZM65.332 136.421H61.8164V119.359H65.332V136.421ZM81.8906 131.5L84.1875 119.359H87.6914L83.9062 136.421H80.3672L77.5898 125.007L74.8125 136.421H71.2734L67.4883 119.359H70.9922L73.3008 131.476L76.1133 119.359H79.0898L81.8906 131.5ZM98.7188 132.906H92.5547L91.3828 136.421H87.6445L93.9961 119.359H97.2539L103.641 136.421H99.9023L98.7188 132.906ZM93.5039 130.058H97.7695L95.625 123.671L93.5039 130.058ZM114.082 131.945C114.082 131.281 113.848 130.773 113.379 130.421C112.91 130.062 112.066 129.687 110.848 129.296C109.629 128.898 108.664 128.507 107.953 128.125C106.016 127.078 105.047 125.667 105.047 123.894C105.047 122.972 105.305 122.152 105.82 121.433C106.344 120.707 107.09 120.14 108.059 119.734C109.035 119.328 110.129 119.125 111.34 119.125C112.559 119.125 113.645 119.347 114.598 119.792C115.551 120.23 116.289 120.851 116.812 121.656C117.344 122.46 117.609 123.375 117.609 124.398H114.094C114.094 123.617 113.848 123.011 113.355 122.582C112.863 122.144 112.172 121.925 111.281 121.925C110.422 121.925 109.754 122.109 109.277 122.476C108.801 122.835 108.562 123.312 108.562 123.906C108.562 124.46 108.84 124.925 109.395 125.3C109.957 125.675 110.781 126.027 111.867 126.355C113.867 126.957 115.324 127.703 116.238 128.593C117.152 129.484 117.609 130.593 117.609 131.921C117.609 133.398 117.051 134.558 115.934 135.402C114.816 136.238 113.312 136.656 111.422 136.656C110.109 136.656 108.914 136.417 107.836 135.941C106.758 135.457 105.934 134.796 105.363 133.96C104.801 133.125 104.52 132.156 104.52 131.054H108.047C108.047 132.937 109.172 133.878 111.422 133.878C112.258 133.878 112.91 133.71 113.379 133.375C113.848 133.031 114.082 132.554 114.082 131.945ZM136.242 129.027H129.492V133.597H137.414V136.421H125.977V119.359H137.391V122.207H129.492V126.273H136.242V129.027ZM145.359 127.046L148.91 119.359H152.754L147.152 130.234V136.421H143.578V130.234L137.977 119.359H141.832L145.359 127.046ZM162.188 132.906H156.023L154.852 136.421H151.113L157.465 119.359H160.723L167.109 136.421H163.371L162.188 132.906ZM156.973 130.058H161.238L159.094 123.671L156.973 130.058ZM177.551 131.945C177.551 131.281 177.316 130.773 176.848 130.421C176.379 130.062 175.535 129.687 174.316 129.296C173.098 128.898 172.133 128.507 171.422 128.125C169.484 127.078 168.516 125.667 168.516 123.894C168.516 122.972 168.773 122.152 169.289 121.433C169.812 120.707 170.559 120.14 171.527 119.734C172.504 119.328 173.598 119.125 174.809 119.125C176.027 119.125 177.113 119.347 178.066 119.792C179.02 120.23 179.758 120.851 180.281 121.656C180.812 122.46 181.078 123.375 181.078 124.398H177.562C177.562 123.617 177.316 123.011 176.824 122.582C176.332 122.144 175.641 121.925 174.75 121.925C173.891 121.925 173.223 122.109 172.746 122.476C172.27 122.835 172.031 123.312 172.031 123.906C172.031 124.46 172.309 124.925 172.863 125.3C173.426 125.675 174.25 126.027 175.336 126.355C177.336 126.957 178.793 127.703 179.707 128.593C180.621 129.484 181.078 130.593 181.078 131.921C181.078 133.398 180.52 134.558 179.402 135.402C178.285 136.238 176.781 136.656 174.891 136.656C173.578 136.656 172.383 136.417 171.305 135.941C170.227 135.457 169.402 134.796 168.832 133.96C168.27 133.125 167.988 132.156 167.988 131.054H171.516C171.516 132.937 172.641 133.878 174.891 133.878C175.727 133.878 176.379 133.71 176.848 133.375C177.316 133.031 177.551 132.554 177.551 131.945ZM196.383 119.359V130.597C196.383 132.464 195.797 133.941 194.625 135.027C193.461 136.113 191.867 136.656 189.844 136.656C187.852 136.656 186.27 136.128 185.098 135.074C183.926 134.019 183.328 132.57 183.305 130.726V119.359H186.82V130.621C186.82 131.738 187.086 132.554 187.617 133.07C188.156 133.578 188.898 133.832 189.844 133.832C191.82 133.832 192.824 132.792 192.855 130.714V119.359H196.383Z" fill="white"/>
<path d="M52.933 151.29C52.933 150.896 53.0424 150.53 53.2611 150.194C53.4838 149.858 53.89 149.485 54.4799 149.075C54.226 148.735 54.0267 148.417 53.8822 148.12C53.7377 147.819 53.6654 147.507 53.6654 147.183C53.6654 146.519 53.8744 145.979 54.2924 145.565C54.7142 145.147 55.2806 144.938 55.9916 144.938C56.6283 144.938 57.1498 145.128 57.556 145.507C57.9662 145.886 58.1713 146.358 58.1713 146.925C58.1713 147.604 57.8275 148.204 57.14 148.724L56.4838 149.198L57.9545 150.909C58.1849 150.456 58.3002 149.956 58.3002 149.409H59.7416C59.7416 150.519 59.4857 151.417 58.974 152.104L60.2513 153.587H58.3295L57.89 153.083C57.2611 153.497 56.5385 153.704 55.722 153.704C54.8783 153.704 54.2025 153.483 53.6947 153.042C53.1869 152.597 52.933 152.013 52.933 151.29ZM55.8041 152.345C56.2103 152.345 56.5951 152.231 56.9584 152.005L55.2767 150.06L55.1537 150.147C54.806 150.444 54.6322 150.794 54.6322 151.196C54.6322 151.536 54.7396 151.813 54.9545 152.028C55.1732 152.239 55.4564 152.345 55.8041 152.345ZM55.183 147.159C55.183 147.452 55.3549 147.821 55.6986 148.267L56.1498 147.968C56.3803 147.819 56.5385 147.675 56.6244 147.534C56.7142 147.394 56.7592 147.226 56.7592 147.03C56.7592 146.835 56.6869 146.665 56.5424 146.521C56.3978 146.376 56.2123 146.304 55.9857 146.304C55.7435 146.304 55.5482 146.382 55.3998 146.538C55.2553 146.694 55.183 146.901 55.183 147.159ZM68.9584 151.829H65.8763L65.2904 153.587H63.4213L66.597 145.056H68.226L71.4193 153.587H69.5502L68.9584 151.829ZM66.351 150.405H68.4838L67.4115 147.212L66.351 150.405ZM76.64 151.349C76.64 151.017 76.5228 150.763 76.2885 150.587C76.0541 150.407 75.6322 150.22 75.0228 150.024C74.4135 149.825 73.931 149.63 73.5756 149.438C72.6068 148.915 72.1224 148.21 72.1224 147.323C72.1224 146.862 72.2513 146.452 72.5092 146.093C72.7709 145.729 73.1439 145.446 73.6283 145.243C74.1166 145.04 74.6635 144.938 75.2689 144.938C75.8783 144.938 76.4213 145.05 76.8978 145.272C77.3744 145.491 77.7435 145.802 78.0053 146.204C78.2709 146.606 78.4037 147.063 78.4037 147.575H76.6459C76.6459 147.185 76.5228 146.882 76.2767 146.667C76.0306 146.448 75.6849 146.339 75.2396 146.339C74.8099 146.339 74.476 146.431 74.2377 146.614C73.9994 146.794 73.8803 147.032 73.8803 147.329C73.8803 147.606 74.0189 147.839 74.2963 148.026C74.5775 148.214 74.9896 148.39 75.5326 148.554C76.5326 148.854 77.2611 149.228 77.7181 149.673C78.1752 150.118 78.4037 150.673 78.4037 151.337C78.4037 152.075 78.1244 152.655 77.5658 153.077C77.0072 153.495 76.2553 153.704 75.3099 153.704C74.6537 153.704 74.056 153.585 73.517 153.347C72.9779 153.104 72.5658 152.774 72.2806 152.356C71.9994 151.938 71.8588 151.454 71.8588 150.903H73.6224C73.6224 151.845 74.1849 152.315 75.3099 152.315C75.7279 152.315 76.0541 152.231 76.2885 152.063C76.5228 151.892 76.64 151.653 76.64 151.349ZM84.0228 151.349C84.0228 151.017 83.9056 150.763 83.6713 150.587C83.4369 150.407 83.015 150.22 82.4056 150.024C81.7963 149.825 81.3138 149.63 80.9584 149.438C79.9896 148.915 79.5053 148.21 79.5053 147.323C79.5053 146.862 79.6342 146.452 79.892 146.093C80.1537 145.729 80.5267 145.446 81.0111 145.243C81.4994 145.04 82.0463 144.938 82.6517 144.938C83.2611 144.938 83.8041 145.05 84.2806 145.272C84.7572 145.491 85.1263 145.802 85.3881 146.204C85.6537 146.606 85.7865 147.063 85.7865 147.575H84.0287C84.0287 147.185 83.9056 146.882 83.6595 146.667C83.4135 146.448 83.0678 146.339 82.6224 146.339C82.1928 146.339 81.8588 146.431 81.6205 146.614C81.3822 146.794 81.2631 147.032 81.2631 147.329C81.2631 147.606 81.4017 147.839 81.6791 148.026C81.9603 148.214 82.3724 148.39 82.9154 148.554C83.9154 148.854 84.6439 149.228 85.101 149.673C85.558 150.118 85.7865 150.673 85.7865 151.337C85.7865 152.075 85.5072 152.655 84.9486 153.077C84.39 153.495 83.6381 153.704 82.6928 153.704C82.0365 153.704 81.4388 153.585 80.8998 153.347C80.3607 153.104 79.9486 152.774 79.6635 152.356C79.3822 151.938 79.2416 151.454 79.2416 150.903H81.0053C81.0053 151.845 81.5678 152.315 82.6928 152.315C83.1107 152.315 83.4369 152.231 83.6713 152.063C83.9056 151.892 84.0228 151.653 84.0228 151.349ZM93.9896 149.515C93.9896 150.354 93.8412 151.091 93.5443 151.724C93.2474 152.356 92.8217 152.845 92.267 153.188C91.7162 153.532 91.0834 153.704 90.3685 153.704C89.6615 153.704 89.0306 153.534 88.476 153.194C87.9213 152.854 87.4916 152.37 87.1869 151.741C86.8822 151.108 86.7279 150.382 86.724 149.562V149.14C86.724 148.3 86.8744 147.562 87.1752 146.925C87.4799 146.284 87.9076 145.794 88.4584 145.454C89.0131 145.11 89.6459 144.938 90.3568 144.938C91.0678 144.938 91.6986 145.11 92.2494 145.454C92.8041 145.794 93.2318 146.284 93.5326 146.925C93.8373 147.562 93.9896 148.298 93.9896 149.134V149.515ZM92.2084 149.128C92.2084 148.233 92.0482 147.554 91.7279 147.089C91.4076 146.624 90.9506 146.392 90.3568 146.392C89.767 146.392 89.3119 146.622 88.9916 147.083C88.6713 147.54 88.5092 148.212 88.5053 149.099V149.515C88.5053 150.386 88.6654 151.062 88.9857 151.542C89.306 152.022 89.767 152.263 90.3685 152.263C90.9584 152.263 91.4115 152.032 91.7279 151.571C92.0443 151.106 92.2045 150.431 92.2084 149.544V149.128ZM101.964 150.745C101.898 151.663 101.558 152.386 100.945 152.913C100.335 153.44 99.5306 153.704 98.5306 153.704C97.4369 153.704 96.5756 153.337 95.9467 152.603C95.3217 151.864 95.0092 150.853 95.0092 149.567V149.046C95.0092 148.226 95.1537 147.503 95.4428 146.878C95.7318 146.253 96.1439 145.774 96.6791 145.442C97.2181 145.106 97.8431 144.938 98.5541 144.938C99.5385 144.938 100.331 145.202 100.933 145.729C101.535 146.257 101.882 146.997 101.976 147.95H100.218C100.175 147.399 100.021 147.001 99.7553 146.755C99.4935 146.505 99.0931 146.38 98.5541 146.38C97.9681 146.38 97.5287 146.591 97.2357 147.013C96.9467 147.431 96.7982 148.081 96.7904 148.964V149.608C96.7904 150.53 96.9291 151.204 97.2064 151.63C97.4877 152.056 97.9291 152.269 98.5306 152.269C99.0736 152.269 99.4779 152.146 99.7435 151.899C100.013 151.649 100.167 151.265 100.206 150.745H101.964ZM104.988 153.587H103.23V145.056H104.988V153.587ZM111.544 151.829H108.462L107.876 153.587H106.007L109.183 145.056H110.812L114.005 153.587H112.136L111.544 151.829ZM108.937 150.405H111.07L109.997 147.212L108.937 150.405ZM120.521 146.479H117.908V153.587H116.15V146.479H113.572V145.056H120.521V146.479ZM126.661 149.89H123.286V152.175H127.247V153.587H121.529V145.056H127.236V146.479H123.286V148.513H126.661V149.89ZM132.703 151.349C132.703 151.017 132.585 150.763 132.351 150.587C132.117 150.407 131.695 150.22 131.085 150.024C130.476 149.825 129.994 149.63 129.638 149.438C128.669 148.915 128.185 148.21 128.185 147.323C128.185 146.862 128.314 146.452 128.572 146.093C128.833 145.729 129.206 145.446 129.691 145.243C130.179 145.04 130.726 144.938 131.331 144.938C131.941 144.938 132.484 145.05 132.96 145.272C133.437 145.491 133.806 145.802 134.068 146.204C134.333 146.606 134.466 147.063 134.466 147.575H132.708C132.708 147.185 132.585 146.882 132.339 146.667C132.093 146.448 131.747 146.339 131.302 146.339C130.872 146.339 130.538 146.431 130.3 146.614C130.062 146.794 129.943 147.032 129.943 147.329C129.943 147.606 130.081 147.839 130.359 148.026C130.64 148.214 131.052 148.39 131.595 148.554C132.595 148.854 133.324 149.228 133.781 149.673C134.238 150.118 134.466 150.673 134.466 151.337C134.466 152.075 134.187 152.655 133.628 153.077C133.07 153.495 132.318 153.704 131.372 153.704C130.716 153.704 130.119 153.585 129.579 153.347C129.04 153.104 128.628 152.774 128.343 152.356C128.062 151.938 127.921 151.454 127.921 150.903H129.685C129.685 151.845 130.247 152.315 131.372 152.315C131.79 152.315 132.117 152.231 132.351 152.063C132.585 151.892 132.703 151.653 132.703 151.349Z" fill="white"/>
</svg>
