<svg width="76" height="83" viewBox="0 0 76 83" fill="none" xmlns="http://www.w3.org/2000/svg">
<path d="M36.7561 82.4634C24.9244 76.7687 19.9679 73.1457 12.3659 66.3659H24.0732C28.5603 69.8125 31.5616 71.4431 37.2439 73.6829C42.6004 71.3663 45.2509 69.7463 49.439 66.3659H60.6585C52.0441 73.906 46.8597 77.5147 36.7561 82.4634Z" fill="white"/>
<path d="M13.3415 45.8781H7V11.7317C22.348 11.6093 28.8541 9.24964 36.7561 1C43.9387 9.41468 52.0846 11.3652 67 11.7317V45.8781H60.1707V18.0732C48.8348 18.0118 43.6804 16.344 36.7561 10.2683C29.5882 16.354 24.8587 18.6727 13.3415 18.0732V45.8781Z" fill="white"/>
<path d="M37.2439 45.8781H35.2927C35.2927 45.8781 35.6279 41.3988 35.2927 38.561C35.0648 36.6317 34.9637 35.5149 34.3171 33.6829C33.75 32.0762 33.2543 31.2344 32.3659 29.7805C31.3725 28.155 30.817 27.1934 29.439 25.8781C28.2536 24.7465 27.5621 24.0055 26.0244 23.439C24.9371 23.0384 23.0976 22.9512 23.0976 22.9512L28.0277 34.3259C28.0277 34.3259 28.0961 34.2971 27.9756 34.6585C27.8052 35.1697 27 35.6341 27 35.6341C27 35.6341 25.8753 36.4031 25.0488 36.6098C24.1247 36.8408 23.5463 36.7832 22.6098 36.6098C21.601 36.423 20.9785 36.2666 20.1707 35.6341C19.4208 35.0469 19.2472 34.3259 19.2472 34.3259C22.5225 36.1688 24.3595 36.6888 28.0277 34.3259L23.0976 22.9512C23.0976 22.9512 26.7924 22.6633 28.9512 23.439C30.3966 23.9584 32.3659 25.3902 32.3659 25.3902C33.8135 26.5427 34.5644 27.2871 35.7805 28.8049C36.9966 30.3227 37.6554 31.3167 38.2195 33.1951C38.5528 34.3049 38.5987 34.9683 38.7073 36.122C38.8501 37.6392 38.8535 38.5074 38.7073 40.0244C38.4812 42.3699 37.2439 45.8781 37.2439 45.8781Z" fill="white"/>
<path d="M39.6829 35.1463L38.2195 30.2683C38.2195 30.2683 39.4205 27.6686 40.6585 26.3659C41.4988 25.4816 42.0717 25.0746 43.0976 24.4146C44.1723 23.7233 44.803 23.327 46.0244 22.9512C48.2093 22.2789 51.8781 22.9512 51.8781 22.9512L56.8217 33.5106C56.8217 33.5106 56.8766 34.2971 56.7561 34.6585C56.5857 35.1697 55.7805 35.6341 55.7805 35.6341C55.7805 35.6341 54.6558 36.4031 53.8293 36.6098C52.9052 36.8408 52.3268 36.7832 51.3902 36.6098C50.3815 36.423 49.7589 36.2666 48.9512 35.6341C48.2013 35.0469 48.0412 33.5106 48.0412 33.5106C51.5164 36.5012 53.3159 36.9594 56.8217 33.5106L51.8781 22.9512L49.439 23.439C48.2725 23.7405 47.5453 23.7948 46.5122 24.4146C45.0062 25.3183 43.5854 27.8293 43.5854 27.8293L39.6829 35.1463Z" fill="white"/>
<path d="M40.6585 19.0488V21.9756C40.1808 24.1648 39.1824 24.6619 37.2439 25.3902C34.9797 24.3156 34.135 23.5429 34.3171 21.4878V19.0488L32.3659 18.0732L38.2195 16.6098L43.0976 18.0732L40.6585 19.0488Z" fill="white"/>
<path d="M23.0976 22.9512C23.0976 22.9512 24.9371 23.0384 26.0244 23.439C27.5621 24.0055 28.2536 24.7465 29.439 25.8781C30.817 27.1934 31.3725 28.155 32.3659 29.7805C33.2543 31.2344 33.75 32.0762 34.3171 33.6829C34.9637 35.5149 35.0648 36.6317 35.2927 38.561C35.6279 41.3987 35.2927 45.8781 35.2927 45.8781H37.2439C37.2439 45.8781 38.4812 42.3699 38.7073 40.0244C38.8535 38.5074 38.8501 37.6392 38.7073 36.122C38.5987 34.9683 38.5528 34.3049 38.2195 33.1951C37.6554 31.3167 36.9966 30.3227 35.7805 28.8049C34.5644 27.2871 33.8135 26.5427 32.3659 25.3902C32.3659 25.3902 30.3966 23.9584 28.9512 23.439C26.7924 22.6633 23.0976 22.9512 23.0976 22.9512ZM23.0976 22.9512L28.0277 34.3259M51.8781 22.9512L49.439 23.439C48.2725 23.7405 47.5453 23.7948 46.5122 24.4146C45.0062 25.3183 43.5854 27.8293 43.5854 27.8293L39.6829 35.1463C39.1114 33.2413 38.791 32.1733 38.2195 30.2683C38.2195 30.2683 39.4205 27.6686 40.6585 26.3659C41.4988 25.4816 42.0717 25.0746 43.0976 24.4146C44.1723 23.7233 44.803 23.327 46.0244 22.9512C48.2093 22.2789 51.8781 22.9512 51.8781 22.9512ZM51.8781 22.9512L56.8217 33.5106M23.0976 23.439L19.2472 34.3259M19.2472 34.3259C22.5225 36.1688 24.3595 36.6888 28.0277 34.3259M19.2472 34.3259C19.2472 34.3259 19.4208 35.0469 20.1707 35.6341C20.9785 36.2666 21.601 36.423 22.6098 36.6098C23.5463 36.7832 24.1247 36.8408 25.0488 36.6098C25.8753 36.4031 27 35.6341 27 35.6341C27 35.6341 27.8052 35.1697 27.9756 34.6585C28.0961 34.2971 28.0277 34.3259 28.0277 34.3259M34.3171 21.9756H40.6585M40.6585 21.9756V19.0488L43.0976 18.0732L38.2195 16.6098L32.3659 18.0732L34.3171 19.0488V21.4878C34.135 23.5429 34.9797 24.3156 37.2439 25.3902C39.1824 24.6619 40.1808 24.1648 40.6585 21.9756ZM48.0412 33.5106C51.5164 36.5012 53.3159 36.9594 56.8217 33.5106M48.0412 33.5106C48.0412 33.5106 48.2013 35.0469 48.9512 35.6341C49.7589 36.2666 50.3815 36.423 51.3902 36.6098C52.3268 36.7832 52.9052 36.8408 53.8293 36.6098C54.6558 36.4031 55.7805 35.6341 55.7805 35.6341C55.7805 35.6341 56.5857 35.1697 56.7561 34.6585C56.8766 34.2971 56.8217 33.5106 56.8217 33.5106M48.0412 33.5106L51.878 23.439M12.3659 66.3659C19.9679 73.1457 24.9244 76.7687 36.7561 82.4634C46.8597 77.5147 52.0441 73.906 60.6585 66.3659H49.439C45.2509 69.7463 42.6004 71.3663 37.2439 73.6829C31.5616 71.4431 28.5603 69.8125 24.0732 66.3659H12.3659ZM7 45.8781H13.3415V18.0732C24.8587 18.6727 29.5882 16.354 36.7561 10.2683C43.6804 16.344 48.8348 18.0118 60.1707 18.0732V45.8781H67V11.7317C52.0846 11.3652 43.9387 9.41468 36.7561 1C28.8541 9.24964 22.348 11.6093 7 11.7317V45.8781Z" stroke="white" stroke-width="0.5"/>
<path d="M32.8537 21.4878V19.0488V18.561L33.3415 19.0488V21.9756H32.8537V21.4878Z" fill="white"/>
<path d="M2.77734 53.2161L4.10889 50.3333H5.55029L3.44971 54.4114V56.7317H2.10938V54.4114L0.00878906 50.3333H1.45459L2.77734 53.2161ZM9.98438 53.9588H7.45312V55.6726H10.4238V56.7317H6.13477V50.3333H10.415V51.4011H7.45312V52.926H9.98438V53.9588ZM14.5151 55.053C14.5151 54.804 14.4272 54.6135 14.2515 54.4817C14.0757 54.3469 13.7593 54.2063 13.3022 54.0598C12.8452 53.9104 12.4834 53.7639 12.2168 53.6204C11.4902 53.2278 11.127 52.699 11.127 52.034C11.127 51.6883 11.2236 51.3806 11.417 51.1111C11.6133 50.8386 11.8931 50.6262 12.2563 50.4739C12.6226 50.3216 13.0327 50.2454 13.4868 50.2454C13.9438 50.2454 14.3511 50.3289 14.7085 50.4959C15.0659 50.6599 15.3428 50.8928 15.5391 51.1946C15.7383 51.4964 15.8379 51.8391 15.8379 52.2229H14.5195C14.5195 51.93 14.4272 51.7029 14.2427 51.5418C14.0581 51.3777 13.7988 51.2957 13.4648 51.2957C13.1426 51.2957 12.8921 51.3645 12.7134 51.5022C12.5347 51.637 12.4453 51.8157 12.4453 52.0384C12.4453 52.2464 12.5493 52.4207 12.7573 52.5613C12.9683 52.7019 13.2773 52.8338 13.6846 52.9568C14.4346 53.1824 14.981 53.4622 15.3237 53.7962C15.6665 54.1301 15.8379 54.5462 15.8379 55.0442C15.8379 55.5979 15.6284 56.033 15.2095 56.3494C14.7905 56.6629 14.2266 56.8196 13.5176 56.8196C13.0254 56.8196 12.5771 56.7302 12.1729 56.5515C11.7686 56.3699 11.4595 56.1223 11.2456 55.8089C11.0347 55.4954 10.9292 55.1321 10.9292 54.719H12.252C12.252 55.4251 12.6738 55.7781 13.5176 55.7781C13.8311 55.7781 14.0757 55.7151 14.2515 55.5891C14.4272 55.4602 14.5151 55.2815 14.5151 55.053Z" fill="#35C6DA"/>
<path d="M21.9419 56.7317H20.6235V53.9895H18.0527V56.7317H16.7344V50.3333H18.0527V52.926H20.6235V50.3333H21.9419V56.7317ZM24.4995 56.7317H23.1812V50.3333H24.4995V56.7317ZM30.709 54.886L31.5703 50.3333H32.8843L31.4648 56.7317H30.1377L29.0962 52.4514L28.0547 56.7317H26.7275L25.3081 50.3333H26.6221L27.4878 54.8772L28.5425 50.3333H29.6587L30.709 54.886ZM37.0195 55.4134H34.708L34.2686 56.7317H32.8667L35.2485 50.3333H36.4702L38.8652 56.7317H37.4634L37.0195 55.4134ZM35.064 54.3455H36.6636L35.8594 51.9505L35.064 54.3455ZM42.7808 55.053C42.7808 54.804 42.6929 54.6135 42.5171 54.4817C42.3413 54.3469 42.0249 54.2063 41.5679 54.0598C41.1108 53.9104 40.749 53.7639 40.4824 53.6204C39.7559 53.2278 39.3926 52.699 39.3926 52.034C39.3926 51.6883 39.4893 51.3806 39.6826 51.1111C39.8789 50.8386 40.1587 50.6262 40.522 50.4739C40.8882 50.3216 41.2983 50.2454 41.7524 50.2454C42.2095 50.2454 42.6167 50.3289 42.9741 50.4959C43.3315 50.6599 43.6084 50.8928 43.8047 51.1946C44.0039 51.4964 44.1035 51.8391 44.1035 52.2229H42.7852C42.7852 51.93 42.6929 51.7029 42.5083 51.5418C42.3237 51.3777 42.0645 51.2957 41.7305 51.2957C41.4082 51.2957 41.1577 51.3645 40.979 51.5022C40.8003 51.637 40.7109 51.8157 40.7109 52.0384C40.7109 52.2464 40.8149 52.4207 41.0229 52.5613C41.2339 52.7019 41.543 52.8338 41.9502 52.9568C42.7002 53.1824 43.2466 53.4622 43.5894 53.7962C43.9321 54.1301 44.1035 54.5462 44.1035 55.0442C44.1035 55.5979 43.894 56.033 43.4751 56.3494C43.0562 56.6629 42.4922 56.8196 41.7832 56.8196C41.291 56.8196 40.8428 56.7302 40.4385 56.5515C40.0342 56.3699 39.7251 56.1223 39.5112 55.8089C39.3003 55.4954 39.1948 55.1321 39.1948 54.719H40.5176C40.5176 55.4251 40.9395 55.7781 41.7832 55.7781C42.0967 55.7781 42.3413 55.7151 42.5171 55.5891C42.6929 55.4602 42.7808 55.2815 42.7808 55.053ZM51.0908 53.9588H48.5596V55.6726H51.5303V56.7317H47.2412V50.3333H51.5215V51.4011H48.5596V52.926H51.0908V53.9588ZM54.5098 53.2161L55.8413 50.3333H57.2827L55.1821 54.4114V56.7317H53.8418V54.4114L51.7412 50.3333H53.187L54.5098 53.2161ZM60.8203 55.4134H58.5088L58.0693 56.7317H56.6675L59.0493 50.3333H60.271L62.666 56.7317H61.2642L60.8203 55.4134ZM58.8647 54.3455H60.4644L59.6602 51.9505L58.8647 54.3455ZM66.5815 55.053C66.5815 54.804 66.4937 54.6135 66.3179 54.4817C66.1421 54.3469 65.8257 54.2063 65.3687 54.0598C64.9116 53.9104 64.5498 53.7639 64.2832 53.6204C63.5566 53.2278 63.1934 52.699 63.1934 52.034C63.1934 51.6883 63.29 51.3806 63.4834 51.1111C63.6797 50.8386 63.9595 50.6262 64.3228 50.4739C64.689 50.3216 65.0991 50.2454 65.5532 50.2454C66.0103 50.2454 66.4175 50.3289 66.7749 50.4959C67.1323 50.6599 67.4092 50.8928 67.6055 51.1946C67.8047 51.4964 67.9043 51.8391 67.9043 52.2229H66.5859C66.5859 51.93 66.4937 51.7029 66.3091 51.5418C66.1245 51.3777 65.8652 51.2957 65.5312 51.2957C65.209 51.2957 64.9585 51.3645 64.7798 51.5022C64.6011 51.637 64.5117 51.8157 64.5117 52.0384C64.5117 52.2464 64.6157 52.4207 64.8237 52.5613C65.0347 52.7019 65.3438 52.8338 65.751 52.9568C66.501 53.1824 67.0474 53.4622 67.3901 53.7962C67.7329 54.1301 67.9043 54.5462 67.9043 55.0442C67.9043 55.5979 67.6948 56.033 67.2759 56.3494C66.8569 56.6629 66.293 56.8196 65.584 56.8196C65.0918 56.8196 64.6436 56.7302 64.2393 56.5515C63.835 56.3699 63.5259 56.1223 63.312 55.8089C63.1011 55.4954 62.9956 55.1321 62.9956 54.719H64.3184C64.3184 55.4251 64.7402 55.7781 65.584 55.7781C65.8975 55.7781 66.1421 55.7151 66.3179 55.5891C66.4937 55.4602 66.5815 55.2815 66.5815 55.053ZM73.6436 50.3333V54.5476C73.6436 55.2478 73.4238 55.8015 72.9844 56.2088C72.5479 56.616 71.9502 56.8196 71.1914 56.8196C70.4443 56.8196 69.8511 56.6218 69.4116 56.2263C68.9722 55.8308 68.748 55.2874 68.7393 54.596V50.3333H70.0576V54.5564C70.0576 54.9754 70.1572 55.2815 70.3564 55.4749C70.5586 55.6653 70.8369 55.7605 71.1914 55.7605C71.9326 55.7605 72.3091 55.3709 72.3208 54.5916V50.3333H73.6436Z" fill="white"/>
<path d="M20.0103 61.7747C20.0103 61.6103 20.0558 61.4581 20.147 61.3181C20.2397 61.1782 20.409 61.0227 20.6548 60.8518C20.549 60.7102 20.466 60.5776 20.4058 60.4539C20.3455 60.3286 20.3154 60.1983 20.3154 60.0633C20.3154 59.7866 20.4025 59.562 20.5767 59.3894C20.7524 59.2153 20.9884 59.1282 21.2847 59.1282C21.55 59.1282 21.7673 59.2071 21.9365 59.365C22.1074 59.5229 22.1929 59.7198 22.1929 59.9558C22.1929 60.239 22.0496 60.4889 21.7632 60.7053L21.4897 60.9031L22.1025 61.616C22.1986 61.4272 22.2466 61.2189 22.2466 60.991H22.8472C22.8472 61.4532 22.7406 61.8276 22.5273 62.114L23.0596 62.7317H22.2588L22.0757 62.5218C21.8136 62.6943 21.5125 62.7805 21.1724 62.7805C20.8208 62.7805 20.5392 62.6886 20.3276 62.5047C20.116 62.3191 20.0103 62.0758 20.0103 61.7747ZM21.2065 62.2141C21.3758 62.2141 21.5361 62.1669 21.6875 62.0725L20.9868 61.262L20.9355 61.2986C20.7907 61.4223 20.7183 61.568 20.7183 61.7356C20.7183 61.8772 20.763 61.9928 20.8525 62.0823C20.9437 62.1702 21.0617 62.2141 21.2065 62.2141ZM20.9478 60.0535C20.9478 60.1756 21.0194 60.3294 21.1626 60.5149L21.3506 60.3904C21.4466 60.3286 21.5125 60.2683 21.5483 60.2097C21.5858 60.1511 21.6045 60.0812 21.6045 59.9998C21.6045 59.9184 21.5744 59.8476 21.5142 59.7874C21.4539 59.7272 21.3766 59.697 21.2822 59.697C21.1813 59.697 21.0999 59.7296 21.0381 59.7947C20.9779 59.8598 20.9478 59.9461 20.9478 60.0535ZM26.6875 61.9993H25.4033L25.1592 62.7317H24.3804L25.7036 59.177H26.3823L27.7129 62.7317H26.9341L26.6875 61.9993ZM25.6011 61.406H26.4897L26.043 60.0755L25.6011 61.406ZM29.8882 61.7991C29.8882 61.6607 29.8394 61.555 29.7417 61.4817C29.644 61.4068 29.4683 61.3287 29.2144 61.2473C28.9604 61.1643 28.7594 61.0829 28.6113 61.0032C28.2077 60.7851 28.0059 60.4913 28.0059 60.1218C28.0059 59.9298 28.0596 59.7589 28.167 59.6092C28.276 59.4578 28.4315 59.3398 28.6333 59.2551C28.8368 59.1705 29.0646 59.1282 29.3169 59.1282C29.5708 59.1282 29.797 59.1746 29.9956 59.2674C30.1942 59.3585 30.348 59.4879 30.457 59.6555C30.5677 59.8232 30.623 60.0136 30.623 60.2268H29.8906C29.8906 60.0641 29.8394 59.9379 29.7368 59.8484C29.6343 59.7573 29.4902 59.7117 29.3047 59.7117C29.1257 59.7117 28.9865 59.7499 28.8872 59.8264C28.7879 59.9013 28.7383 60.0006 28.7383 60.1243C28.7383 60.2399 28.7961 60.3367 28.9116 60.4148C29.0288 60.4929 29.2005 60.5662 29.4268 60.6345C29.8434 60.7599 30.147 60.9153 30.3374 61.1009C30.5278 61.2864 30.623 61.5175 30.623 61.7942C30.623 62.1018 30.5067 62.3435 30.2739 62.5193C30.0412 62.6935 29.7279 62.7805 29.334 62.7805C29.0605 62.7805 28.8115 62.7309 28.5869 62.6316C28.3623 62.5307 28.1906 62.3932 28.0718 62.219C27.9546 62.0449 27.896 61.843 27.896 61.6135H28.6309C28.6309 62.0058 28.8652 62.2019 29.334 62.2019C29.5081 62.2019 29.644 62.1669 29.7417 62.0969C29.8394 62.0253 29.8882 61.926 29.8882 61.7991ZM32.9644 61.7991C32.9644 61.6607 32.9155 61.555 32.8179 61.4817C32.7202 61.4068 32.5444 61.3287 32.2905 61.2473C32.0366 61.1643 31.8356 61.0829 31.6875 61.0032C31.2839 60.7851 31.082 60.4913 31.082 60.1218C31.082 59.9298 31.1357 59.7589 31.2432 59.6092C31.3522 59.4578 31.5076 59.3398 31.7095 59.2551C31.9129 59.1705 32.1408 59.1282 32.3931 59.1282C32.647 59.1282 32.8732 59.1746 33.0718 59.2674C33.2703 59.3585 33.4242 59.4879 33.5332 59.6555C33.6439 59.8232 33.6992 60.0136 33.6992 60.2268H32.9668C32.9668 60.0641 32.9155 59.9379 32.813 59.8484C32.7104 59.7573 32.5664 59.7117 32.3809 59.7117C32.2018 59.7117 32.0627 59.7499 31.9634 59.8264C31.8641 59.9013 31.8145 60.0006 31.8145 60.1243C31.8145 60.2399 31.8722 60.3367 31.9878 60.4148C32.105 60.4929 32.2767 60.5662 32.5029 60.6345C32.9196 60.7599 33.2231 60.9153 33.4136 61.1009C33.604 61.2864 33.6992 61.5175 33.6992 61.7942C33.6992 62.1018 33.5828 62.3435 33.3501 62.5193C33.1174 62.6935 32.804 62.7805 32.4102 62.7805C32.1367 62.7805 31.8877 62.7309 31.6631 62.6316C31.4385 62.5307 31.2668 62.3932 31.1479 62.219C31.0308 62.0449 30.9722 61.843 30.9722 61.6135H31.707C31.707 62.0058 31.9414 62.2019 32.4102 62.2019C32.5843 62.2019 32.7202 62.1669 32.8179 62.0969C32.9155 62.0253 32.9644 61.926 32.9644 61.7991ZM37.1172 61.0349C37.1172 61.3849 37.0553 61.6917 36.9316 61.9553C36.8079 62.219 36.6305 62.4225 36.3994 62.5657C36.1699 62.7089 35.9062 62.7805 35.6084 62.7805C35.3138 62.7805 35.0509 62.7097 34.8198 62.5681C34.5887 62.4265 34.4097 62.2247 34.2827 61.9627C34.1558 61.699 34.0915 61.3963 34.0898 61.0545V60.8787C34.0898 60.5288 34.1525 60.2211 34.2778 59.9558C34.4048 59.6889 34.583 59.4846 34.8125 59.343C35.0436 59.1998 35.3073 59.1282 35.6035 59.1282C35.8997 59.1282 36.1626 59.1998 36.3921 59.343C36.6232 59.4846 36.8014 59.6889 36.9268 59.9558C37.0537 60.2211 37.1172 60.5279 37.1172 60.8762V61.0349ZM36.375 60.8738C36.375 60.5011 36.3083 60.2179 36.1748 60.0242C36.0413 59.8305 35.8509 59.7337 35.6035 59.7337C35.3577 59.7337 35.1681 59.8297 35.0347 60.0218C34.9012 60.2122 34.8337 60.4921 34.832 60.8616V61.0349C34.832 61.3979 34.8988 61.6795 35.0322 61.8797C35.1657 62.0799 35.3577 62.18 35.6084 62.18C35.8542 62.18 36.043 62.0839 36.1748 61.8919C36.3066 61.6982 36.3734 61.4166 36.375 61.0471V60.8738ZM40.4399 61.5476C40.4123 61.9301 40.2707 62.2312 40.0151 62.451C39.7612 62.6707 39.4259 62.7805 39.0093 62.7805C38.5535 62.7805 38.1947 62.6275 37.9326 62.3216C37.6722 62.0139 37.542 61.5924 37.542 61.0569V60.8396C37.542 60.4978 37.6022 60.1967 37.7227 59.9363C37.8431 59.6759 38.0148 59.4765 38.2378 59.3382C38.4624 59.1982 38.7228 59.1282 39.019 59.1282C39.4292 59.1282 39.7596 59.2381 40.0103 59.4578C40.2609 59.6775 40.4058 59.9859 40.4448 60.3831H39.7124C39.6945 60.1536 39.6302 59.9876 39.5195 59.885C39.4105 59.7809 39.2437 59.7288 39.019 59.7288C38.7749 59.7288 38.5918 59.8167 38.4697 59.9925C38.3493 60.1666 38.2874 60.4376 38.2842 60.8054V61.074C38.2842 61.4581 38.342 61.7389 38.4575 61.9163C38.5747 62.0937 38.7586 62.1824 39.0093 62.1824C39.2355 62.1824 39.404 62.1311 39.5146 62.0286C39.627 61.9244 39.6912 61.7641 39.7075 61.5476H40.4399ZM41.6997 62.7317H40.9673V59.177H41.6997V62.7317ZM44.4316 61.9993H43.1475L42.9033 62.7317H42.1245L43.4478 59.177H44.1265L45.457 62.7317H44.6782L44.4316 61.9993ZM43.3452 61.406H44.2339L43.7871 60.0755L43.3452 61.406ZM48.1719 59.7703H47.083V62.7317H46.3506V59.7703H45.2764V59.177H48.1719V59.7703ZM50.7305 61.1912H49.3242V62.1433H50.9746V62.7317H48.5918V59.177H50.9697V59.7703H49.3242V60.6175H50.7305V61.1912ZM53.2476 61.7991C53.2476 61.6607 53.1987 61.555 53.1011 61.4817C53.0034 61.4068 52.8276 61.3287 52.5737 61.2473C52.3198 61.1643 52.1188 61.0829 51.9707 61.0032C51.5671 60.7851 51.3652 60.4913 51.3652 60.1218C51.3652 59.9298 51.4189 59.7589 51.5264 59.6092C51.6354 59.4578 51.7909 59.3398 51.9927 59.2551C52.1961 59.1705 52.424 59.1282 52.6763 59.1282C52.9302 59.1282 53.1564 59.1746 53.355 59.2674C53.5535 59.3585 53.7074 59.4879 53.8164 59.6555C53.9271 59.8232 53.9824 60.0136 53.9824 60.2268H53.25C53.25 60.0641 53.1987 59.9379 53.0962 59.8484C52.9937 59.7573 52.8496 59.7117 52.6641 59.7117C52.485 59.7117 52.3459 59.7499 52.2466 59.8264C52.1473 59.9013 52.0977 60.0006 52.0977 60.1243C52.0977 60.2399 52.1554 60.3367 52.271 60.4148C52.3882 60.4929 52.5599 60.5662 52.7861 60.6345C53.2028 60.7599 53.5063 60.9153 53.6968 61.1009C53.8872 61.2864 53.9824 61.5175 53.9824 61.7942C53.9824 62.1018 53.866 62.3435 53.6333 62.5193C53.4006 62.6935 53.0872 62.7805 52.6934 62.7805C52.4199 62.7805 52.1709 62.7309 51.9463 62.6316C51.7217 62.5307 51.55 62.3932 51.4312 62.219C51.314 62.0449 51.2554 61.843 51.2554 61.6135H51.9902C51.9902 62.0058 52.2246 62.2019 52.6934 62.2019C52.8675 62.2019 53.0034 62.1669 53.1011 62.0969C53.1987 62.0253 53.2476 61.926 53.2476 61.7991Z" fill="white"/>
</svg>
