<svg width="1442" height="1031" viewBox="0 0 1442 1031" fill="none" xmlns="http://www.w3.org/2000/svg">
<path opacity="0.5" d="M1 278.749L1441 0V818.878L1 1031V278.749Z" fill="#D6DFFF"/>
<g opacity="0.55">
<line y1="-0.5" x2="165.059" y2="-0.5" transform="matrix(-0.703046 0.711144 -0.77493 -0.632047 119.681 263.448)" stroke="#10284E" stroke-opacity="0.1"/>
<line y1="-0.5" x2="415.422" y2="-0.5" transform="matrix(0.996736 -0.0807307 0.0977046 0.995215 6.27466 380.829)" stroke="#003DC9" stroke-opacity="0.1"/>
<line y1="-0.5" x2="470.279" y2="-0.5" transform="matrix(-0.886077 0.463539 -0.535511 -0.844528 420.341 344.896)" stroke="#003DC9" stroke-opacity="0.1"/>
<line x1="3.87307" y1="562.447" x2="688.014" y2="927.975" stroke="#003DC9" stroke-opacity="0.1"/>
<line x1="493.504" y1="957.06" x2="419.844" y2="347.351" stroke="#003DC9" stroke-opacity="0.1"/>
<line x1="420.693" y1="346.937" x2="966.353" y2="889.646" stroke="#10284E" stroke-opacity="0.1"/>
<line x1="803.65" y1="911.643" x2="1108.34" y2="612.838" stroke="#003DC9" stroke-opacity="0.1"/>
<line y1="-0.5" x2="317.86" y2="-0.5" transform="matrix(0.75505 0.655668 -0.724977 0.688774 1108.69 613.194)" stroke="#003DC9" stroke-opacity="0.1"/>
<line y1="-0.5" x2="118.471" y2="-0.5" transform="matrix(0.779157 -0.626829 0.698148 0.715953 1348.69 821.605)" stroke="#003DC9" stroke-opacity="0.1"/>
<line x1="1109.19" y1="610.798" x2="1109.49" y2="865.999" stroke="#003DC9" stroke-opacity="0.1"/>
<line x1="1152.64" y1="862.345" x2="799.759" y2="491.367" stroke="#003DC9" stroke-opacity="0.1"/>
<line x1="800.474" y1="491.376" x2="306.853" y2="984.854" stroke="#003DC9" stroke-opacity="0.1"/>
<line y1="-0.5" x2="227.432" y2="-0.5" transform="matrix(0.997278 -0.0737304 0.089255 0.996009 457.264 627.567)" stroke="#10284E" stroke-opacity="0.1"/>
<line x1="684.571" y1="610.725" x2="731.494" y2="922.926" stroke="#10284E" stroke-opacity="0.1"/>
<line y1="-0.5" x2="471.954" y2="-0.5" transform="matrix(0.899697 0.436515 -0.506926 0.86199 684.077 610.799)" stroke="#003DC9" stroke-opacity="0.1"/>
<line x1="857.715" y1="904.411" x2="211.704" y2="455.5" stroke="#10284E" stroke-opacity="0.1"/>
<line y1="-0.5" x2="222.006" y2="-0.5" transform="matrix(0.938496 0.345291 -0.407291 0.913298 3.63745 380.829)" stroke="#10284E" stroke-opacity="0.1"/>
<line y1="-0.5" x2="311.496" y2="-0.5" transform="matrix(0.965211 0.261473 -0.311968 0.950093 119.681 265.843)" stroke="#10284E" stroke-opacity="0.1"/>
<line y1="-0.5" x2="495.809" y2="-0.5" transform="matrix(0.92024 -0.391355 0.458185 0.888857 1 821.605)" stroke="#003DC9" stroke-opacity="0.1"/>
<line y1="-0.5" x2="389.507" y2="-0.5" transform="matrix(0.385948 -0.92252 0.945278 0.326267 270.011 706.619)" stroke="#003DC9" stroke-opacity="0.1"/>
<line y1="-0.5" x2="261.694" y2="-0.5" transform="matrix(0.907024 -0.42108 0.490401 0.871497 1111.33 816.813)" stroke="#003DC9" stroke-opacity="0.1"/>
<line y1="-0.5" x2="145.455" y2="-0.5" transform="matrix(0.652743 0.757579 -0.815058 0.57938 1346.06 706.619)" stroke="#003DC9" stroke-opacity="0.1"/>
<line x1="6.62664" y1="562.533" x2="416.352" y2="968.645" stroke="#003DC9" stroke-opacity="0.1"/>
</g>
</svg>
